<?xml version="1.0" encoding="UTF-8"?>
<svg id="Layer_2" data-name="Layer 2" xmlns="http://www.w3.org/2000/svg" viewBox="0 0 50 50">
  <defs>
    <style>
      .cls-1 {
        fill: #fff;
        stroke-width: 0px;
      }
    </style>
  </defs>
  <g id="Layer_1-2" data-name="Layer 1">
    <g>
      <path class="cls-1" d="m25,50C11.21,50,0,38.78,0,25S11.21,0,25,0s25,11.22,25,25-11.21,25-25,25M25,.69C11.6.69.69,11.6.69,25s10.9,24.31,24.31,24.31,24.31-10.9,24.31-24.31S38.4.69,25,.69"/>
      <polygon class="cls-1" points="25.01 36.59 7.23 14.65 7.77 14.21 25.02 35.5 42.45 14.87 42.45 11.59 37.31 11.59 25.24 27.02 12.67 11.59 7.1 11.59 7.1 10.89 13 10.89 25.23 25.91 36.98 10.89 43.15 10.89 43.15 15.12 25.01 36.59"/>
      <path class="cls-1" d="m14.66,38.93H4.42v-.69c2.06-.07,2.61-3.45,2.66-3.75V11.24h.69v23.31c-.02.13-.35,2.48-1.67,3.68h8.56v.69Z"/>
      <path class="cls-1" d="m45.73,38.84c-.84,0-1.55-.27-2.1-.8-1.17-1.14-1.19-3.08-1.19-3.16V13.17h.69v21.71s.02,1.73.98,2.66c.43.42,1,.63,1.7.6l.02.69s-.07,0-.11,0"/>
      <path class="cls-1" d="m34.12,38.93h-12.64v-.69h12.64c.51,0,.93-.17,1.28-.53,1.08-1.11,1.04-3.56,1.04-3.58v-12.12h.69v12.11c0,.1.06,2.75-1.23,4.07-.48.49-1.07.74-1.77.74"/>
      <rect class="cls-1" x="14.64" y="2.47" width=".69" height="11.6"/>
      <polygon class="cls-1" points="40.96 44.3 21.13 44.3 21.13 31.93 21.83 31.93 21.83 43.6 40.96 43.6 40.96 44.3"/>
      <rect class="cls-1" x="21.13" y=".76" width=".69" height="21.17"/>
      <rect class="cls-1" x="14.31" y="23.28" width=".69" height="23.99"/>
    </g>
  </g>
</svg>