<?xml version="1.0" encoding="UTF-8"?>
<svg id="Layer_2" data-name="Layer 2" xmlns="http://www.w3.org/2000/svg" xmlns:xlink="http://www.w3.org/1999/xlink" viewBox="0 0 1254.75 800">
  <defs>
    <style>
      .cls-1 {
        letter-spacing: .06em;
      }

      .cls-2 {
        fill: #939598;
      }

      .cls-3 {
        letter-spacing: .02em;
      }

      .cls-4, .cls-5, .cls-6 {
        fill: #fafafa;
        font-family: RedHatDisplayRoman-SemiBold, 'Red Hat Display';
        font-size: 17px;
        font-variation-settings: 'wght' 600;
        font-weight: 600;
      }

      .cls-4, .cls-7 {
        letter-spacing: .08em;
      }

      .cls-8 {
        letter-spacing: .06em;
      }

      .cls-9, .cls-6 {
        letter-spacing: .07em;
      }

      .cls-10 {
        letter-spacing: .08em;
      }

      .cls-11 {
        fill: #ed1d24;
      }

      .cls-12 {
        letter-spacing: .04em;
      }

      .cls-13 {
        clip-path: url(#clippath);
      }

      .cls-14 {
        letter-spacing: .1em;
      }

      .cls-15 {
        fill: none;
      }

      .cls-16 {
        letter-spacing: -.05em;
      }

      .cls-17 {
        letter-spacing: .05em;
      }

      .cls-18 {
        letter-spacing: -.05em;
      }

      .cls-19 {
        letter-spacing: .06em;
      }

      .cls-20 {
        fill: #58595b;
      }
    </style>
    <clipPath id="clippath">
      <rect class="cls-15" width="1254.75" height="800"/>
    </clipPath>
  </defs>
  <g id="Layer_1-2" data-name="Layer 1">
    <g class="cls-13">
      <g>
        <polygon class="cls-20" points="884.8 366.08 882 363.79 880.35 361.57 878.38 360.43 875.9 361.25 875.27 364.62 875.27 368.3 875.27 371.04 875.59 375.04 876.29 376.69 879.21 375.86 880.8 372.43 881.62 370.72 884.48 370.27 886.07 368.3 884.8 366.08"/>
        <polygon class="cls-20" points="869.55 402.36 874 402.48 877.24 401.98 878 399.69 877.43 395.94 874.25 395.75 871.71 395.75 871.33 393.02 870.57 388.19 871.39 385.2 870.5 382.66 867.46 381.2 865.1 384.06 864.15 392.76 861.55 396.77 857.54 400.01 852.91 406.61 848.33 411.06 844.84 413.79 841.92 417.48 836.9 422.69 832.77 424.15 827.69 430.94 823.62 435.65 821.01 438.19 819.36 441.3 819.62 443.78 821.08 447.14 822.54 447.97 825.53 446.32 827.3 441.55 831.12 437.93 836.58 434.44 849.03 424.53 850.81 417.73 853.48 413.22 859.39 408.84 866.06 405.6 869.55 402.36"/>
        <polygon class="cls-20" points="881.7 328.16 878.66 328.16 879.19 331.63 882.03 333.77 884.4 335.09 885.39 332.91 884.93 331.2 884.93 329.02 881.7 328.16"/>
        <polygon class="cls-20" points="880.53 512.31 881.67 510.54 884.15 510.11 884.86 508.91 884.22 506.35 882.66 505.21 880.53 504.22 876.98 506.92 875.14 508.41 873.79 510.61 873.79 512.31 877.16 512.31 880.53 512.31"/>
        <polygon class="cls-20" points="877.43 379.42 875.27 377.33 874.13 377.33 873.36 378.02 872.66 379.1 872.66 381.2 873.68 381.52 876.54 381.01 877.43 379.42"/>
        <polygon class="cls-20" points="918.98 331.02 920.46 332.91 923.29 335.63 925.6 338.82 929.2 342.95 932.27 343.49 933.75 342.72 934.28 339.29 933.45 336.04 932.51 333.98 930.38 332.26 930.97 330.79 932.62 330.55 935.99 332.62 937.53 335.57 939.89 337.93 942.55 340.35 945.92 344.67 947.81 347.8 950.82 350.22 954.48 350.69 956.02 352.52 957.67 354.3 958.42 355.63 960.58 356.01 962.71 354.87 964.26 353.59 963.73 350.67 963.2 346.84 962.61 344.13 958.72 342.35 955.35 340.17 954.95 337.07 955.88 333.57 957.53 331.86 956.67 328.49 953.44 327.17 950.2 325.85 948.95 325.12 946.51 326.51 944.59 329.15 942.81 329.28 940.9 326.84 940.17 324.33 937.79 321.49 936.8 318.59 932.18 318.59 926.64 318.92 923.27 321.56 918.92 322.75 914.96 320.83 914.03 317.47 911.2 312.98 911.73 309.88 909.41 305.19 907.37 298.66 910.01 291.86 912.05 286.58 918.92 283.22 924.66 281.37 925.39 277.61 926.97 274.83 929.61 271.07 929.41 266.72 931.66 262.82 930.14 257.67 927.37 254.24 923.27 249.69 924.13 242.03 926.24 240.71 926.31 237.48 925.12 230.94 923.29 228.77 918.8 232.37 916.5 233.2 912.54 231.31 909.11 229.18 905.92 228.48 904.74 226.94 900.67 227.29 897.65 229.18 889.03 229.77 888.03 233.5 886.9 251.81 886.9 260.79 886.9 266.04 885.78 272.19 885.07 280.81 883.77 281.58 880.47 279.87 877.98 278.15 876.57 275.85 873.97 275.73 872.14 277.33 873.14 283.77 874.68 288.31 875.03 293.81 876.68 299.42 878.28 302.73 879.4 305.27 879.05 308.81 881.29 311.65 883.83 315.31 887.26 317.67 890.51 317.02 891.04 313.01 892.81 311.47 895.11 312.3 895.88 314.9 892.93 317.67 889.74 320.27 888.32 325.76 890.03 329.01 893.17 330.43 897 330.96 898.42 332.5 901.38 335.87 905.27 335.87 908.05 335.16 910.53 332.2 912.3 330.9 918.98 331.02"/>
        <polygon class="cls-20" points="914.67 223.99 916.38 225.82 918.86 225.4 919.45 224.34 920.51 222.39 920.51 220.26 918.92 218.55 915.55 218.55 914.67 221.56 914.67 223.99"/>
        <polygon class="cls-20" points="918.79 303.34 916.21 303.34 914.76 304.73 914.36 307.7 915.49 310.34 916.81 311.79 918.59 314.3 920.57 313.11 922.22 311.46 921.43 307.04 920.83 304.47 918.79 303.34"/>
        <polygon class="cls-20" points="959.51 333.7 961.62 336.34 964.26 337.2 967.1 336.94 969.41 334.76 970.53 332.58 971.12 329.35 969.67 327.3 967.3 326.05 965.45 324.4 962.35 324.4 961.42 325.19 962.08 326.77 961.29 330.54 959.51 333.7"/>
        <polygon class="cls-20" points="967.79 105.35 967.79 102.68 966.86 99.48 963.25 98.68 961.39 99.21 961.39 102.41 965.52 106.15 967.79 105.35"/>
        <polygon class="cls-20" points="905.98 210.1 904.74 211.29 904.74 213 906.46 214.59 909.26 215.48 911.6 215.48 912.54 213.53 912.54 210.87 909.94 208.92 908.17 209.22 905.98 210.1"/>
        <polygon class="cls-20" points="816.15 466.08 815.23 468.05 816.15 469.7 818.92 470.14 820.89 468.49 822.22 467.03 823.56 465.82 822.03 464.3 820.63 462.96 817.84 465.25 816.15 466.08"/>
        <polygon class="cls-20" points="515.35 367.71 514.02 365.93 513.78 365.14 511.84 364.23 510.21 365.62 509.6 367.38 511.69 369.32 512.27 370.71 514.2 371.19 515.9 370.1 515.35 367.71"/>
        <polygon class="cls-20" points="518.98 377.49 520.5 376.4 519.83 374.46 518.98 372.89 516.81 374.34 515.6 374.76 515.6 376.7 516.32 377.79 518.98 377.49"/>
        <polygon class="cls-20" points="665.21 238.31 667.58 235.19 673.54 233.2 676.95 229.89 681.97 227.14 684.24 221.55 686.51 216.54 687.56 211.61 694.09 207.45 692.95 202.24 688.88 198.93 684.05 195.71 678.66 196.27 673.54 198.07 664.74 198.83 656.12 200.72 652.34 203.09 648.36 207.54 644.86 210.29 642.11 212.84 642.11 226.76 642.58 231.02 647.89 234.05 651.96 234.15 655.37 236.7 659.44 238.31 665.21 238.31"/>
        <polygon class="cls-20" points="552.01 560.93 553.31 561.23 553.85 560.09 553.85 558.33 552.62 556.96 552.93 555.2 550.18 554.51 549.11 555.28 549.57 557.03 549.11 558.79 552.01 560.93"/>
        <polygon class="cls-20" points="464.57 417.16 463.22 418.82 463.22 420.64 464.57 421.58 466.23 422.06 467.73 422.06 468.91 420.56 468.91 418.5 467.49 417.16 466.07 417.16 464.57 417.16"/>
        <polygon class="cls-20" points="776.93 523.81 777.29 524.61 778.09 525.21 780.01 524.93 780.5 523.71 780.5 521.84 780.03 518.48 778.93 516.2 778.48 513.43 777.75 513.49 777.75 515.96 778.23 518.33 777.14 522.22 776.93 523.81"/>
        <path class="cls-20" d="M955.98,360.3l.95-1.43,.47-1.67-1.58-1.19-2.38-1.78h-1.48l-.43,1.78s.17,2,.35,2.17,1.9,1.16,1.9,1.16l2.21,.96Z"/>
        <polygon class="cls-20" points="680.36 192.39 678.56 191.07 674.77 191.07 674.77 192.77 677.57 195.14 679.32 193.91 680.36 192.39"/>
        <polygon class="cls-20" points="734.19 164.17 733.76 161.94 731.15 161.07 728.73 161.51 727.43 163.77 728.11 165.97 732.21 166.47 734.19 164.17"/>
        <polygon class="cls-20" points="770.49 517.88 771.02 516.4 770.21 513.88 768.82 514.94 765.83 516.99 762.09 517.99 756.99 521.69 759.99 524.69 761.01 526.46 763.31 528.77 764.59 530.95 766.55 531.21 767.85 531.21 769.51 529.59 770.02 527.87 769.81 525.49 768.77 523.14 769.69 519.56 770.49 517.88"/>
        <polygon class="cls-20" points="945.09 408.94 947.92 404.28 949.84 400.35 950.85 396.51 951.52 393.4 950.11 390.84 946.91 389.47 945.27 388.01 940.24 390.2 938.41 393.22 936.86 399.7 936.01 404.92 936.01 407.72 933.75 408.67 929.45 409.86 927.63 410.68 925.89 413.24 926.26 416.77 927.99 418.54 931.92 421.74 935.58 424.48 938.05 426.49 938.78 428.78 941.69 429.87 944.45 428.5 946.27 426.13 945.09 421.65 943.26 416.77 944.45 412.24 945.09 408.94"/>
        <polygon class="cls-20" points="958.16 405.77 961.45 402.36 962 398.38 961.54 394.77 962 391.39 960.72 389.65 958.89 389.65 957.4 394.95 954.87 399.7 951.12 405.28 948.49 408.94 946.64 413.69 946.64 417.26 947.37 418.91 949.38 418.91 952.41 416.77 953.4 412.24 956.24 408.94 958.16 405.77"/>
        <polygon class="cls-20" points="542.14 396.04 540.81 395.01 540.14 395.01 538.87 395.32 538.41 395.99 538.41 397.62 540.2 399.46 542.29 399.71 543.21 399 543.62 397.98 542.95 396.9 542.14 396.04"/>
        <polygon class="cls-20" points="948.83 427.41 949.29 429.51 951.52 430.42 954.32 429.87 954.32 426.4 953.59 424.3 951.52 425.94 948.83 427.41"/>
        <polygon class="cls-20" points="983.73 411.15 990.02 411.15 987.05 404.86 988.54 400.28 985.56 394.09 983.04 390.77 981.89 386.19 979.49 382.76 978.23 379.78 975.25 380.69 973.08 376.92 971.47 373.37 967.24 374.63 968.04 381.84 968.04 387.57 969.18 390.2 973.65 392.26 974.57 395.81 974.22 400.85 975.37 406.92 978.23 410.58 983.73 411.15"/>
        <polygon class="cls-20" points="974.22 425.68 972.91 426.62 973.53 427.93 974.22 430.42 976.7 431.22 977.85 429.87 977.85 428.11 976.64 426.43 975.55 425.28 974.22 425.68"/>
        <path class="cls-20" d="M949.66,357.79l-3.03-1.43-1.9,1.04,.65,2.37-2.44,2.64-1.25,4.29,1.91,3.37,4.03-1.32,1.65-2.64,2.57-.4,2.64,1.91,3.63,3.56,3.43,2.18,1.58-2.05-.86-2.11-1.06-2.57-2.77-2.57-1.44-.04-2.21-.48s-1.77-1.38-1.9-1.51c-.13-.13-1.64-2.38-1.77-2.46-.13-.09-1.47-1.77-1.47-1.77Z"/>
        <polygon class="cls-20" points="994.49 399.7 993.35 399.7 990.6 404.97 991.97 407.83 991.97 410.12 994.6 411.84 997.12 411.15 995.75 405.31 997.12 401.88 994.49 399.7"/>
        <polygon class="cls-20" points="922.88 365.32 922.88 362.55 923.34 358.12 923.67 354.76 920.83 353.37 917.86 357 916.41 360.1 916.41 364.39 918.2 365.32 922.88 365.32"/>
        <polygon class="cls-20" points="935.02 362.41 936.01 360.7 934.63 358.65 933.11 356.21 931.59 356.41 928.29 356.01 927.5 357 927.1 359.21 929.21 361.09 932.15 362.41 935.02 362.41"/>
        <polygon class="cls-20" points="922.69 399.7 925.62 397.7 928.36 396.23 931.56 394.95 934.48 392.26 936.49 390.29 939.42 388.37 943.64 384.81 944.45 381.33 943.64 377.59 940.7 377.13 938.78 375.48 936.01 375.48 931.1 375.48 930.37 374.11 925.62 371.92 923.67 374.2 921.14 376.86 921.32 380.42 920.04 383.71 920.04 388.28 918.2 393.77 918.2 399.34 920.59 401.45 922.69 399.7"/>
        <polygon class="cls-20" points="920.3 344.73 922.61 342.02 923.34 339.78 922.75 337.47 919.71 336.61 915.42 337.2 914.36 339.38 915.42 341.03 917.27 343.93 920.3 344.73"/>
        <polygon class="cls-20" points="1001.25 411.84 1000.33 414.13 1001.13 416.77 1003.99 416.77 1005.37 414.13 1004.75 409.03 1003.31 407.72 1001.25 411.84"/>
        <polygon class="cls-20" points="1049.36 574.21 1053.94 573.4 1055.87 570.35 1057.5 567.7 1058.01 565.87 1055.57 562.71 1054.75 561.19 1052.72 561.19 1049.46 563.42 1047.53 566.38 1046 569.23 1046.92 572.18 1049.36 574.21"/>
        <polygon class="cls-20" points="1050.38 53.58 1051.99 51.58 1051.05 47.31 1048.65 46.1 1043.71 52.78 1040.11 56.91 1037.57 59.31 1035.04 62.38 1035.04 65.05 1036.11 66.92 1038.51 66.92 1040.24 64.25 1041.84 61.45 1044.78 59.72 1047.72 55.45 1050.38 53.58"/>
        <polygon class="cls-20" points="1043.35 572.18 1040.3 573.71 1037.45 576.35 1034.4 579.74 1032.26 583.48 1032.26 587.85 1031.04 592.43 1032.46 594.57 1035.92 595.49 1039.08 592.94 1041.93 588.77 1044.88 584.9 1043.76 579.74 1042.85 576.25 1043.76 574.21 1043.35 572.18"/>
        <polygon class="cls-20" points="1013.09 534.13 1014.81 536.97 1017.38 538.08 1017.98 537.05 1019.27 534.31 1020.13 532.07 1021.42 530.61 1022.88 528.55 1022.88 526.23 1021.59 524.51 1019.36 523.4 1019.36 521.77 1017.38 520.74 1016.52 521.42 1015.46 522.2 1014.12 523.66 1014.12 525.89 1015.06 527.52 1015.46 530.44 1014.63 532.5 1013.09 534.13"/>
        <polygon class="cls-20" points="814.73 449.3 813.26 451.21 812.95 454.7 814.03 456.04 815.39 456.55 817.84 455.85 818.79 453.82 819.36 450.89 817.84 448.48 814.73 449.3"/>
        <polygon class="cls-20" points="546.22 407.75 548.22 409.5 550.09 408.96 551.24 408.11 550.82 404.84 549.91 402.97 548.7 401.45 546.95 400.85 545.64 399.98 544.08 400.84 543.62 401.88 544.83 404.24 546.22 407.75"/>
        <polygon class="cls-20" points="984.19 787.82 986.19 784.72 983.69 782.92 982.49 780.72 976.18 780.72 971.48 782.06 969.68 785.42 968.28 787.82 975.38 787.82 984.19 787.82"/>
        <polygon class="cls-20" points="987.68 652.62 985.89 651.31 982.36 649.23 977.39 647.58 973.04 647.44 967.94 647.71 967.73 650.06 966.62 651.24 966.07 653.38 967.94 654.76 973.25 655.37 978.91 654.48 984.82 655.79 987.68 654.55 987.68 652.62"/>
        <polygon class="cls-20" points="965.98 786.55 967.48 784.27 965.88 782.72 964.48 783.63 962.33 784.82 959.28 784.92 957.18 786.55 959.18 789.02 961.88 790.52 964.28 789.72 965.98 786.55"/>
        <polygon class="cls-20" points="907.43 490.88 905.02 490.88 903.39 489.28 900.69 488.68 898.7 489.88 897.71 490.8 896.5 490.73 895.08 493.36 895.65 495.7 899.41 495.35 903.74 495.13 907.72 495.7 908.78 494.92 908.35 492.44 907.43 490.88"/>
        <polygon class="cls-20" points="648.74 558.79 650.42 557.03 650.42 553.67 649.27 552.22 647.36 553.22 645.61 554.67 645.61 556.5 646.98 557.64 648.74 558.79"/>
        <polygon class="cls-20" points="828.66 542.62 827.45 543.84 826.28 544.29 825.77 545.66 826.33 547.18 827.45 548.04 829.17 548.04 831.05 547.23 830.34 544.24 831.05 542.82 828.66 542.62"/>
        <polygon class="cls-20" points="911.06 351.33 910.34 346.38 909.48 342.75 907.57 341.36 904.99 340.04 901.63 339.45 899.05 337.73 895.82 336.61 891.46 336.28 886.45 335.09 886.12 336.61 884.14 336.61 883.08 338.26 884.8 340.3 887.24 344.2 891.79 346.9 892.19 351.13 892.39 353.5 895.69 356.74 898.26 359.71 901.56 363.73 904.53 364.06 906.91 362.48 908.69 358.45 911.06 356.01 911.06 351.33"/>
        <polygon class="cls-20" points="990.89 783.72 990.89 785.82 992.69 786.55 994.49 784.92 996.39 783.02 994.49 780.72 992.99 781.62 990.89 783.72"/>
        <polygon class="cls-20" points="998.11 658.42 998.18 661.66 999.62 664.98 1003.01 666.22 1004.11 664.28 1003.84 660.9 1003.08 658.49 1003.63 656.76 1006.53 655.79 1009.01 654.14 1008.67 652 1004.46 652 994.1 651.62 991.2 651.62 990.17 653.51 992.1 655.79 997.62 656.41 998.11 658.42"/>
        <path class="cls-20" d="M1053.84,595.49l2.75-1.53,2.04-2.75,1.73-2.24-1.22-2.24-1.73-2.04-1.83-2.14-5.29,4.27-3.26,2.04-1.02,3.05-2.34,1.83-2.24,1.73-1.02,1.83-3.77,.81-2.24,1.53v3.16l1.12,5.29,1.42,1.83-.92,4.17,.31,3.46,2.24,2.24,1.24,3.87,1.21,1.5,2.28,2.35,3.1,1.67,1.5,2.96,2.08,1.36,1.16-1.11-.78-2.38-1.41-2.67-1.94-1.89-2.52-3.05-1.79-.87,.43-1.84,.31-2.75-1.53-4.58,1.43-5.39,2.65-1.32,3.46,3.05s3.05,.81,3.46,1.02,3.56,.81,3.56,.81l2.14-.31,.51-2.85-3.36-2.85-2.95-3.1-1.53-1.37v-2.44l2.54-2.14Z"/>
        <polygon class="cls-20" points="1072.37 613.85 1070.73 613.29 1069.25 613.85 1068.49 615.53 1068.49 616.73 1070.63 618.03 1071.96 619.3 1074.66 620.18 1075.74 619.72 1076.04 617.63 1074.97 615.74 1073.69 614.46 1072.37 613.85"/>
        <polygon class="cls-20" points="650.78 650.61 650.78 648.84 650.78 646.88 649.61 645.57 647.74 645.57 646.67 645.57 646.18 647.67 647.74 650.61 650.78 650.61"/>
        <polygon class="cls-20" points="1077.74 13.68 1078.94 12.75 1080.41 10.48 1079.34 9.54 1074.8 9.54 1071.87 12.08 1068.26 13.28 1065.86 15.42 1068.66 19.29 1070.27 21.42 1074.14 20.62 1076.54 17.15 1077.74 13.68"/>
        <path class="cls-20" d="M959.81,474.01l-.8,3.34,.89,4.51,2.21,3.67,2.73,2.68,3.15,2.54,2.63,1.65,4.04,1.83,2.91,1.5h4.04l2.77-.33,1.27,1.79,1.6,1.55h5.03l2.23-1.56,1.03-1.47v-7.67l-1.57-2.61-2.56-3.49-1.28-2.75,.98-3.19,.74-3.1,2.06-1.38,2.21,1.57,3.24,1.62,1.67-.74,7.31,.75,1.98-1.24,1.87-2.85,3.24-2.9-1.28-3.15-.25-6.54-1.67-5.26-1.62-3.69-1.18-3.69-1.08-5.26-.59-3.34,1.08-3.49-1.03-4.23-2.02-3-5.11-2.85-2.56-3.74-2.36-1.62-1.38-.74-.93-1.57-2.28-.49-.61,6.25-.19,3.95-.38,3.19-3.1,.52-2.26,1.46-1.17,1.5h-3.71l-3.52,.7v3.48l-.88,2.4-3.96-.42-3.2,1.93-2.91,3.34-2.35,1.64-3.38-.8-1.6-2.82-1.5-2.07-2.68-3.2-2.28-1.64-2.05,1.74-2.16,2.35-3.81,3.76-3.52,.89-2.3,2.91-2.68,2.16-3.95,1.74-4.61-.75-3.1,1.5-2.77,3.43-.47,5.54-2.68,4.32v5.97l1.74,1.41h2.58l3.48-1.74,1.79-2.35,1.79-4.14,1.5-3.29,2.11-1.17,1.36,1.5,.47,2.68,.61,2.4,3.29,.89,2.16-1.36,.7-3.1,1.64-.47,2.4,1.5,2.02,.14,2.4-.89,1.36-3.57,1.41-1.27,2.82,.8s1.55,.61,1.69,.66c.14,.05,3.81,.94,3.81,.94l2.91,2.73,.28,2.54-3.34,4.28-.61,4.84Z"/>
        <polygon class="cls-20" points="431.91 448.94 430.31 448.51 428.64 448.94 429.01 451.55 428.64 454.52 429.37 457.06 431.25 457.06 432.56 455.54 432.2 452.78 432.99 451.11 431.91 448.94"/>
        <path class="cls-20" d="M428.37,376.3l-1.9,1.11v2.45l1.9,.63,2.88-2.77h2.25l1.9-1.42-.55-3.95-1.34-2.29-2.25,1.34s-1.54,1.03-1.62,1.26c-.08,.24-.63,2.37-.63,2.37l-.63,1.26Z"/>
        <path class="cls-20" d="M458.95,480.67c0-.17-.46-1.88-.51-2.05-.06-.17-1.31-1.26-1.31-1.26l-1.26,.91-.97,1.31-.63,2.17,1.83,.86,1.03,2.8,1.77,1.77h2.68s.74-.97,.74-1.14,.51-1.65,.51-1.65l-1.48-1.08-2.17-.63s-.23-1.83-.23-2Z"/>
        <path class="cls-20" d="M430.03,361.76l.4,.63h1.9l1.19-.79v-4.47l-.71-3.83-1.58-1.42-1.5,1.42s-.71,2.21-.71,2.53,.63,3.48,.79,3.95c.16,.47,.24,1.98,.24,1.98Z"/>
        <path class="cls-20" d="M430.19,410.44v-3.16h-3.16s.24,2.37,0,2.61c-.24,.24-.55,2.21-.55,2.21h1.9l1.82-1.66Z"/>
        <path class="cls-20" d="M426.97,394.87l2.04,.79,1.5-.71,.75-3.16-1.54-1.9-.32-1.19h-2.13c-.4,0-2.13,1.26-2.13,1.26l-.59,1.74,1.94,1.66,.49,1.5Z"/>
        <path class="cls-20" d="M463.99,480.91l.97-.72,2.2-2.39h3.75l1.83,1.31,1.75,.02,3.67,.66,2.41,3.59,4.64,.94,3.24,3.94v4.75l-.94,2.64,1.12,1.23,.26-.17,2.36-4.9,7.64,1.32,2.27,1.34,2.21-.94,2.04-3.1,4.48-4.37-11.97-10.19-5.02-4.09-7.81-.37-5.02-3.25-5.2-1.49-.84-2.33,2.41-2.7-.19-10.05-2.51-4.37-1.02-4.65-5.12-4.55-1.39-3.63-.94-3.16-.74-6.88-4-.94-9.95-.09-.29-22.51,2.51-4.84,3.07-6.41,3.71-10.42,4.28-7.44,2.7-7.35,.18-22.41,5.31-2.61h10.5l2.24,4.29-.93,5.11,2.14,8,10.32-1.21,7.06,.94,7.26,4.55,8.09,4.94,.77,.78,2.98-5.15-1.51-2.49-5.45-3,1.1-4.28-2.13-4.78-3.09-2.47v-8.84l5.61-2.23,1.48-3.69,4.64-6.02,4.54-2.69,5.19-3.68,6.8-1.61,6.67,2.44,13.96-2.57,10.4,1.74,1.18,1.29,3.82-3.63,2.34-1.89-.43-5.56-1.27-7.17,2.59-4.15,1.18-3.54-3.1-4.33-3.93-3-5.26-4.29-4.87-5.91v-5.55l-2.25-6.75,2.17-5.32-1.19-3.98-2.95-2.57-7.05-4.74-3.17-7.2-3.84-3.52-7.76-1.51-3.45,2.23-6.1,7.82-7.52,2.78-7.89-5.7-2.16-1.41-7,2.65-7.13,7.84-6.25,3.9h-5.18l-.64-5.78,1.6-5.27,2.33-4.77-3.06-5.29,1.93-6.33,4.57-5.59-1.34-6.75v-5.66l-3.41,.98c-10.21,.49-10.61,.11-11.06-.33l-.42-.4v-.31c-.4-.63-1.86-2.47-3.12-3.96l-.62-.73,3.49-5.69-1.41-2.31-4.4-4.27h-4.12l-5.78,.91-4.72,3.88-3.79,.92-3.2,5.21-5.62,3.15h-15.05l-2.91,1.6-1.09,6.51-1.92,4.53,1.26,7.14-3.37,4.44-3.79,1.77,.25,1.51,4.86,4.73v4.73l.77,4.29,3.71,4.27,8.07,6.2,3.69,6.73,.7,7.33,3.67,2.33,3.39,4.22-1.69,4.03-3.56,3.57,.11,3.31-2.25,7.15-3.06,2.92-3.44,3,.53,4.38,2.11,5.28,4.41,5.53,11.84,11.59v16.07l1.36,6.3,4.16,4.74-.13,3.73,3.18,6.38v9.74l-3.92,3.8-3.32,5.84-7.8,10.57-5.96,2.95-.58,6.61-2.87,20.52-2.7,9.54,1.73,9.1,2.28,1.14,2.11,1.3,2.65,.28,2.96,2.25,4.22,6.03,9.46,11.48,4.55,5.23-.25,4.14,3.19,2.61,1,1.68Z"/>
        <polygon class="cls-20" points="426.24 360.02 423.15 360.02 420.71 360.73 420.71 362.39 423 363.65 423.98 365.31 424.97 366.42 428.37 366.42 428.37 363.22 427.26 361.44 426.24 360.02"/>
        <polygon class="cls-20" points="435.31 449.66 434.66 451.11 436.54 452.78 437.85 452.78 438.43 450.9 436.98 449.01 435.67 448.51 435.31 449.66"/>
        <polygon class="cls-20" points="588.86 670.87 591.62 672.62 593.67 675.25 597.66 676.71 600.48 677.2 604.27 677.2 605.05 675.74 605.05 673.69 604.18 671.94 604.18 669.41 603.01 667.47 600.58 665.52 597.66 663.67 595.52 661.63 593.67 658.52 593.28 654.04 590.65 650.73 588.02 647.52 585.69 645.57 579.75 646.06 578.49 648.3 574.69 651.9 572.36 653.36 571.09 654.43 571.48 657.15 574.69 657.54 580.14 658.32 583.84 659 587.05 663.67 586.95 667.37 588.86 670.87"/>
        <polygon class="cls-20" points="558.68 621.95 556.06 621.95 554.02 621.95 553.37 624.21 554.39 626.24 554.89 627.84 557.29 628.57 560.09 628.57 559.62 625.26 560.49 623.41 558.68 621.95"/>
        <polygon class="cls-20" points="585.91 557.03 587.13 556.12 587.13 553.75 585.98 552.68 584.46 550.93 583.01 550.93 581.48 551.54 580.72 551.99 581.63 553.98 582.7 555.81 585.91 557.03"/>
        <polygon class="cls-20" points="621.29 678.63 623.15 680.68 625.5 680.68 628.64 680.68 631.58 680.68 634.13 679.7 634.91 677.2 636.28 676.18 637.56 673.04 636.67 670.3 634.91 668.73 631.48 667.85 629.72 665.79 627.07 665.79 623.94 666.48 621.88 669.03 622.47 672.26 623.15 675.2 621.98 676.47 621.29 678.63"/>
        <polygon class="cls-20" points="639.5 539.93 640.57 536.88 639.73 534.13 638.96 531.69 636.83 529.7 634 527.18 632.17 527.18 631.41 528.79 630.95 531.08 629.42 532.91 628.28 535.81 630.19 537.57 632.86 539.09 634 540.85 637.28 541.61 638.51 539.93 639.5 539.93"/>
        <polygon class="cls-20" points="564.13 619.26 564.13 615.99 562.31 613.08 560.93 610.61 559.33 609.3 557.88 610.75 557.88 613.08 556.49 615.48 556.06 618.1 556.78 619.92 561.15 619.92 564.13 619.26"/>
        <path class="cls-20" d="M519.6,590.25c-.34-.23-2.5-3.07-2.5-3.07l-1.71-3.36-4.21-.74h-.91l1.59,3.87,2.05,3.53,1.93,3.94,5.12,3.11,4.78,1.3h3.07l1.69-3.46-2.71-2.96-5.46-1.46s-2.39-.48-2.73-.7Z"/>
        <path class="cls-20" d="M535.29,591.96h-1.82v4.21s-.11,2.36,0,2.66,1.59,3.03,1.59,3.03h2.84l.57-3.03-2.53-4.41-.66-2.46Z"/>
        <path class="cls-20" d="M497.75,572.65l-2.44,1.97,1.22,3.48s1.79,2.35,2.07,2.44c.28,.09,3.85,0,3.85,0l1.03-2.44-1.88-3.2-1.22-3.1-2.63,.85Z"/>
        <polygon class="cls-20" points="913.86 84.86 909.84 82.45 904.22 85.06 897.39 89.68 892.77 99.12 884.34 110.37 879.51 117.8 881.32 135.27 888.15 147.12 894.98 156.56 907.43 123.83 917.48 87.87 914.06 87.67 913.86 84.86"/>
        <polygon class="cls-20" points="944.64 713.39 945.03 710.93 944.35 708.32 943.87 705.81 939.57 705.81 938.46 709.77 937.37 713.16 936.96 715.79 936.24 717.69 935.8 719.67 936.38 721.48 935.8 722.56 934.79 724.36 934.4 726.34 936.24 728.85 938.41 727.98 940.92 727.55 943.34 725.52 943.77 721.99 941.21 719.24 941.12 716.68 942.9 714.75 944.64 713.39"/>
        <path class="cls-20" d="M945.51,700.4l-.77-2.08-.87-1.35-1.3-1.01-2.46,.73-.34,1.55,.58,1.84s.43,1.35,.53,1.5,2.22,.68,2.22,.68l1.93-.29,.48-1.55Z"/>
        <polygon class="cls-20" points="932.92 706.2 937.45 705.54 938.35 704.31 938.27 699.86 935.63 698.05 931.18 694.67 925.66 690.71 924.26 686.02 926.16 682.06 925.5 673.17 922.78 668.63 917.11 666.16 912.4 661.55 912.65 659.24 908.78 656.44 906.88 653.97 909.1 651.5 913.22 650.18 916.27 648.61 921.22 648.78 924.76 649.27 928.47 646.72 929.78 643.51 932.83 638.32 935.8 635.76 939.01 634.77 943.13 635.43 946.76 635.19 947.58 629.17 943.87 627.52 940 626.45 934.15 628.59 928.71 629.34 926.16 631.23 921.3 632.71 917.92 633.54 913.88 631.56 911.41 631.15 909.02 634.28 905.81 638.15 901.44 642.02 896.58 642.68 891.14 640.29 888.18 638.56 884.64 635.27 880.68 627.77 878.54 622.09 880.52 618.79 881.67 613.43 884.72 610.06 887.6 605.44 893.95 604.29 903.42 604.45 913.22 605.69 919.49 604.04 926.32 605.36 934.97 605.28 942.72 606.76 947.91 607.83 953.84 607.91 967.52 606.68 970.57 603.8 975.67 599.26 978.48 595.06 982.1 590.28 984.82 586.91 983.83 582.7 981.77 580.73 978.99 579.74 973.75 584.46 970.32 589.1 962.33 595.46 955.03 596.92 936.91 596.14 930.29 593.91 913.46 592.45 908.48 591.94 905.04 589.53 900.32 587.38 896.63 588.33 893.62 593.31 890.7 597.43 887.18 599.24 880.39 599.84 872.49 608.77 873.69 616.76 873.27 624.39 872.11 629.91 867.99 634.11 864.62 643.67 862.66 649.36 862.06 655.78 859.84 660.56 857.53 665.67 855.64 669.38 855.22 679.02 855.22 685.61 856.87 687.5 860.25 687.17 863.21 687.09 865.77 688.41 866.26 692.36 867.83 694.67 869.56 698.87 870.71 706.95 869.39 710.57 867.33 715.35 867.09 719.55 866.35 724.66 866.76 727.62 867.99 729.35 870.38 730.1 875 731 879.69 730.26 883.15 730.1 885.71 731 887.85 730.51 889 727.79 886.94 722.43 884.8 717.82 886.45 712.71 887.44 707.69 886.7 695.91 888.51 688.9 887.11 681.73 885.13 678.77 885.95 674.07 889.08 672.18 892.63 671.11 896.5 671.77 898.64 674.4 896.83 679.59 895.43 685.28 896.5 687.83 898.81 690.8 902.1 693.02 905.48 695.58 909.76 698.71 909.6 702.25 908.94 705.71 908.53 710.24 909.6 713.54 913.06 714.69 920.64 713.45 922.62 709.66 924.51 707.44 930.11 705.79 932.92 706.2"/>
        <polygon class="cls-20" points="891.45 760.51 892.85 762.07 893.71 761.64 894.36 760.67 893.98 759.43 893.23 758.41 892.48 757.39 891.99 757.66 890.86 758.41 891.45 760.51"/>
        <polygon class="cls-20" points="918.8 719.63 917.97 717.33 915.46 719.43 914.11 721.22 914.88 723.68 916.72 725.81 917.97 727.79 920.02 727.79 920.44 726.2 920.02 723.64 919.42 721.75 920.02 720.25 918.8 719.63"/>
        <polygon class="cls-20" points="887.69 747.06 889.27 748.51 889.95 747.92 889.57 745.98 889.95 743.83 889.03 742.43 887.36 742.75 886.83 744.31 887.69 747.06"/>
        <path class="cls-20" d="M930.2,726.34l2.15-2.73,.08-1.56v-1.22l1.07-1.83,.99-1.68-.58-2.03v-1.9l.88-1.75-2.13-1.01-3.29,.19-1.5,1.21s-1.45,1.84-1.5,1.98c-.05,.15-1.21,3.24-1.21,3.24v5.94l.43,2.32,2.75,.19,1.84,.63Z"/>
        <polygon class="cls-20" points="948.16 647.13 950.96 646.64 952.03 645.24 951.37 643.09 950.96 641.12 948.98 639.22 947 638.98 944.78 640.54 943.3 639.47 940.49 638.65 937.61 638.98 935.88 639.55 936.05 641.86 936.13 644.33 934.89 645.57 934.89 648.04 939.84 648.04 940.41 646.47 942.64 645.81 943.46 647.13 945.93 647.13 948.16 647.13"/>
        <polygon class="cls-20" points="943.6 345.58 940.57 343.54 938.78 344 938.78 347.23 941.36 351.26 945.71 354.56 946.59 354.56 948.49 353.9 947.3 351 943.6 345.58"/>
        <polygon class="cls-20" points="951.89 726 952.91 726.39 954.07 726.2 954.74 724.8 954.36 723.1 953.29 721.9 953.29 720.83 951.07 720.83 949.67 721.61 949.67 722.33 950.49 723.93 951.89 726"/>
        <polygon class="cls-20" points="913.14 622.25 912.15 623.73 911.08 624.48 911.08 627.11 914.3 628.43 916.85 627.77 918.74 626.04 918.33 623.9 915.86 622.25 913.14 622.25"/>
        <polygon class="cls-20" points="890.11 734.69 888.55 733.5 887.1 734.79 887.1 736.46 887.1 738.72 888.55 739.8 889.68 740.33 890.97 739.63 891.45 737.7 890.75 736.35 890.11 734.69"/>
        <polygon class="cls-20" points="824.06 632.18 827.93 630.3 827.71 625.99 826.5 620.9 825.72 614.93 826.5 609.95 828.71 605.96 832.91 598.33 835.45 595.68 838.99 595.24 842.2 597.34 848.94 597.34 851.82 596.12 854.03 593.69 855.15 591.03 853.15 589.48 849.17 586.5 846.29 584.17 842.42 581.64 840.1 580.42 836.72 578.87 834.57 576.54 834.67 573.11 837.44 570.68 838.55 566.26 836.72 563.61 832.46 559.07 830.03 556.3 827.05 554.42 823.84 549.99 820.63 548.11 820.19 543.91 820.74 541.7 822.73 540.37 826.5 540.37 827.71 539.15 827.27 534.62 829.09 533.15 825.14 529.54 820.34 528.5 811.55 527.29 803.92 528.52 795.59 528.52 790.78 530.3 787.42 532.94 787.42 546.67 785.22 551.88 779.55 554.91 778.18 558.89 779.48 565.89 772.42 569.79 772.42 576.37 766.47 580.44 766.47 587.72 752.39 587.72 746.58 590.86 736.46 589.3 729.73 583.25 721.4 584.32 715.22 588.96 711.39 595.08 691.64 595.08 687.74 598.53 681.11 600.28 672.55 593.97 668.04 587.33 662.44 583.24 662.44 578.61 661.67 572.82 659.61 573.75 657.85 577.85 653.41 579.95 650.49 583.75 648.97 586.85 648.97 591.41 647.33 593.98 646.98 602.29 648.21 607.08 649.96 610.29 652.54 612.69 653.53 615.02 652.77 618.06 651.95 621.52 653.16 625.99 654.05 629.53 653.16 632.4 658.26 634.84 661.57 635.94 661.02 638.16 659.8 642.14 661.46 643.57 664.89 642.02 667.88 639.49 669.98 640.14 671.86 643.13 671.86 648.78 672.41 651.65 673.63 654.75 674.07 658.73 676.06 661.93 676.72 666.36 676.06 671.34 680.05 674.77 684.03 677.09 690.77 678.41 694.75 678.19 699.06 676.98 702.16 675.54 705.92 674.33 708.36 675.98 709.13 679.64 708.36 682.62 709.35 686.6 712.12 688.15 714.56 685.83 719.09 684.94 722.3 684.06 726.39 683.29 730.26 681.18 733.02 678.75 736.35 678.19 740.43 679.08 742.54 680.85 745.08 683.84 748.18 685.5 751.17 685.83 754.38 684.39 758.24 684.06 761.79 685.39 765.44 688.04 766.87 693.35 766.87 698.22 769.2 700.77 772.41 698.88 779.48 695.79 790.44 690.03 794.08 687.27 796.63 682.29 798.51 679.86 800.61 675.88 804.37 666.03 806.59 661.93 805.7 658.95 804.37 655.52 803.26 651.32 805.26 646.9 810.78 641.47 818.31 635.61 824.06 632.18"/>
        <polygon class="cls-20" points="826.33 782.32 824.53 784.17 825.53 785.42 827.53 787.22 830.33 786.72 831.53 785.42 831.53 783.27 831.53 781.12 829.13 781.12 828.03 783.27 826.33 782.32"/>
        <path class="cls-20" d="M805.92,784.17l-1.8-.9-8.9,4.55v3.1s.6,1.9,.4,2.2-3.2,1.7-3.2,1.7l-.6,2.3,2.2,.9h3l1.5,.9h4.9l3.6-1.9,2-2.4,.8-2.9,.4-3.9-.6-1.9-3.7-1.75Z"/>
        <polygon class="cls-20" points="861.04 794.32 860.34 790.47 859.04 788.12 856.74 786.72 855.34 785.02 853.44 784.82 843.94 783.92 840.34 781.42 837.64 780.32 833.53 782.32 833.53 784.82 835.23 786.12 837.64 787.72 838.54 788.82 838.74 791.27 837.24 792.22 833.03 792.22 829.93 789.82 824.83 788.72 823.13 787.92 821.73 786.72 820.73 785.42 819.03 786.27 817.23 786.72 815.93 788.52 813.23 790.27 811.93 792.22 811.93 795.82 811.93 798.83 814.33 800.63 818.43 799.83 824.23 798.92 830.23 799.83 831.93 799.23 840.84 797.72 845.14 796.62 852.84 796.52 857.34 795.82 861.04 794.32"/>
        <polygon class="cls-20" points="787.08 758.77 787.72 757.05 786.43 754.48 785.67 754.48 783.62 752.66 780.75 754.59 780 755.87 780.64 757.48 782.9 758.77 787.08 758.77"/>
        <polygon class="cls-20" points="861.64 784.92 861.04 783.27 859.34 781.12 857.94 782.32 857.94 784.32 859.74 785.42 861.64 784.92"/>
        <polygon class="cls-20" points="908.06 789.77 903.06 787.72 899.96 784.27 896.06 784.27 892.61 783.63 889.95 782.32 886.83 783.63 883.55 785.22 879.25 786.42 876.85 787.82 874.55 790.92 873.45 793.62 875.15 794.92 884.65 794.92 887.65 795.52 892.61 796.12 897.46 796.12 901.56 797.22 908.96 797.22 914.06 798.22 917.66 796.72 921.06 795.22 921.47 791.62 921.47 790.52 914.86 789.02 908.06 789.77"/>
        <polygon class="cls-20" points="868.45 795.82 869.55 794.22 870.25 791.27 870.25 788.22 867.55 786.72 866.45 788.62 865.05 790.92 865.05 793.02 866.3 794.92 868.45 795.82"/>
        <polygon class="cls-20" points="1082.06 773.72 1079.6 773.72 1076.91 772.56 1074.89 775.02 1074.89 777.56 1076.12 779.95 1078 781.84 1081.34 782.56 1081.84 780.9 1083.58 779.81 1083.94 776.98 1083.58 774.74 1082.06 773.72"/>
        <polygon class="cls-20" points="1309.12 751.13 1311.07 745.25 1311.07 670.65 1311.58 667.89 1307.52 665.72 1302.44 662.96 1294.18 663.83 1286.93 661.66 1280.98 659.77 1273.15 655.42 1262.71 650.06 1253.87 647.45 1248.07 643.39 1242.7 643.97 1237.92 646.72 1233.57 649.77 1230.38 653.1 1229.07 657.89 1222.26 657.45 1213.7 662.24 1208.92 668.33 1202.43 676.01 1198.77 679.06 1194.12 681.52 1188.76 681.52 1187.6 676.01 1183.25 672.68 1182.05 666.44 1179.62 665.72 1175.42 666.59 1173.39 663.4 1172.37 657.6 1170.34 655.28 1170.34 649.33 1172.66 646.29 1174.98 642.52 1172.52 639.76 1170.92 636.57 1169.47 630.92 1164.11 629.61 1159.9 629.03 1155.12 627.73 1152.36 625.84 1147.43 625.41 1140.91 624.1 1135.83 622.07 1128.87 622.94 1123.36 627.15 1119.88 628.74 1113.21 630.92 1110.75 634.11 1107.12 633.96 1103.35 630.92 1095.81 630.05 1092.48 631.5 1092.48 634.11 1096.83 636.57 1100.45 639.33 1104.8 646.14 1114.23 648.32 1121.48 649.33 1123.94 651.36 1126.55 655.86 1130.03 661.51 1140.18 663.54 1148.74 661.8 1155.99 660.5 1161.93 660.5 1163.24 662.82 1162.95 665.28 1161.5 666.44 1157.15 665.43 1152.8 664.41 1148.45 665.14 1143.66 669.34 1140.47 671.23 1134.24 671.81 1127.13 670.65 1123.94 671.23 1125.39 674.42 1130.61 676.3 1136.85 680.8 1142.36 685.15 1142.94 696.31 1144.82 699.21 1149.03 698.78 1153.96 697.91 1156.86 696.31 1156.86 690.37 1158.89 686.31 1162.08 686.45 1165.85 692.11 1169.76 695.01 1175.27 695.88 1180.49 697.33 1181.36 702.26 1190.06 705.02 1195.86 708.5 1207.18 708.5 1215.59 712.7 1224.43 716.62 1238.64 722.13 1244.15 723.72 1253 731.84 1257.35 735.03 1262.57 747.65 1264.89 753.16 1262.86 755.62 1263.29 758.81 1265.76 762.58 1266.47 765.43 1267.44 767.07 1269.53 768.93 1269.83 770.87 1269.83 772.36 1270.65 773.93 1270.8 777.73 1269.15 780.04 1270.05 781.6 1271.35 783.01 1274.37 782.12 1275.86 783.17 1278.01 784.84 1279.75 782.23 1290.84 782.23 1300.63 792.24 1310.75 802.02 1312.38 802.02 1312.38 758.09 1309.12 755.91 1309.12 751.13"/>
        <polygon class="cls-20" points="1267.59 781.01 1267.51 778.47 1269.38 777.06 1269.53 774.6 1268.41 772.73 1268.33 770.2 1266.92 768.71 1265.43 767.07 1263.27 767.07 1260.43 767.07 1258.36 767.51 1253.58 768.53 1249.81 769.98 1248.86 774.62 1244.95 781.8 1242.34 784.84 1245.17 787.23 1251.26 786.15 1259.09 785.71 1264.09 786.58 1268.88 788.1 1271.27 784.41 1268.93 782.87 1267.59 781.01"/>
        <path class="cls-20" d="M1159.43,700.5h-1.36l-1.59-2.44-2.44,2.27v1.39l1.7,.65,1.81,2.66,3.17,.34s.62-1.7,.57-1.87-.74-1.42-.74-1.42l-1.13-1.59Z"/>
        <polygon class="cls-20" points="1146.79 727.47 1144.75 728.32 1143.96 730.7 1141.3 730.08 1140.5 728.32 1138.97 727.7 1136.54 728.38 1136.14 731.5 1136.88 733.42 1136.65 735.63 1136.99 737.96 1139.48 738.58 1142.71 738.24 1145.6 738.35 1147.53 738.07 1147.47 734.84 1148.49 733.76 1149.4 730.9 1150.7 729.34 1151.16 726.96 1151.38 723.22 1148.49 723.22 1146.79 727.47"/>
        <polygon class="cls-20" points="1124.67 759.23 1116.7 759.23 1114.46 761.47 1111.85 764.3 1110.32 765.97 1107.72 768.79 1106.99 772.05 1106.48 776.84 1104.38 779.37 1102.79 781.26 1100.03 782.71 1098.87 784.23 1099.24 786.55 1101.63 787.42 1106.12 786.26 1108.3 784.45 1110.98 782.92 1111.77 780.39 1114.09 779.66 1115.98 778.14 1116.12 775.82 1118.3 773.32 1118.44 771.26 1119.31 769.52 1120.25 765.89 1121.41 764.88 1122.72 764.66 1124.67 766.26 1126.63 765.75 1126.63 763.36 1126.27 760.46 1124.67 759.23"/>
        <polygon class="cls-20" points="1186.43 632.44 1183.95 633.97 1182.52 635.11 1183.95 638.06 1187.47 639.21 1189.09 637.21 1188.62 634.63 1186.43 632.44"/>
        <polygon class="cls-20" points="1212.35 647.07 1206.91 647.5 1200.24 646.64 1197.67 648.26 1199.29 650.83 1203.48 651.88 1208.34 653.69 1215.11 655.98 1218.73 655.03 1221.21 655.03 1226.74 654.17 1226.74 650.45 1224.64 649.98 1219.97 649.02 1217.21 647.5 1212.35 647.07"/>
        <polygon class="cls-20" points="1215.4 634.16 1212.73 634.16 1210.73 632.44 1207.2 630.06 1204.44 630.34 1203.48 628.72 1199.77 627.96 1199.1 626.25 1197.19 626.91 1197.19 630.92 1198.81 632.44 1201.2 635.2 1202.43 638.35 1203.1 640.64 1206.34 641.4 1212.2 641.4 1216.54 641.4 1217.78 639.21 1219.11 638.25 1217.4 635.82 1215.4 634.16"/>
        <polygon class="cls-20" points="1102.07 689.92 1100.21 685.83 1097.66 680.74 1096.18 677.87 1091.77 676.49 1084.82 674.9 1082.91 672.52 1072.83 672.83 1059.73 672.83 1048.11 672.52 1044.61 672.52 1043.07 676.55 1040.05 681 1041.06 684.19 1043.5 686.1 1045.62 684.45 1047 681.8 1048.96 682.65 1049.38 685.83 1047.47 687.42 1042.97 689.86 1042.97 691.99 1045.35 693.42 1049.97 691.67 1053.79 690.24 1057.08 687.79 1057.55 685.67 1059.15 683.92 1061.59 682.86 1065.14 682.97 1070.18 685.94 1075.33 686.63 1077.29 683.92 1081.06 684.03 1083.66 685.78 1088.54 687.53 1094.59 690.55 1097.82 694.16 1101.8 692.52 1102.07 689.92"/>
        <polygon class="cls-20" points="1032.42 767.42 1029.37 767.78 1028.36 769.37 1028.94 771.62 1031.11 773.72 1033.79 773.72 1033.79 771.47 1033.36 768.36 1032.42 767.42"/>
        <polygon class="cls-20" points="1032.46 650.16 1036.01 649.95 1041.22 650.58 1045.97 650.58 1047.37 649.95 1046.96 647.76 1045.6 645.89 1043.31 644.22 1041.33 642.39 1039.14 641.4 1035.07 641.4 1033.46 642.65 1032.57 644.17 1031.06 646.67 1028.29 648.29 1029.13 650.11 1032.46 650.16"/>
        <path class="cls-20" d="M980.77,805.03l-1.48-1.99,.62-2.92v-1.69l-.33-.28-.6,1.18-5.98,2.55-.04,3.47c-.12,.52-.43,1.76-.69,2.28-.16,.31-.4,.79-3.63,2.61l-2.17,1.48-5.32-.8-2.17-2.68-6.1,3.9,.9,4.3-1.3,4,1,1.91,.61,3.6,3.3,.5h5.1l5-2.4,4.01,.2,5.5-3,3.1-5.5,2.8-3.88-2.11-2.64v-4.19Z"/>
        <polygon class="cls-20" points="949.37 782.72 945.77 784.27 943.87 786.55 942.57 787.82 940.57 789.82 940.57 790.92 944.57 790.52 948.72 789.82 952.48 788.22 955.18 783.22 949.37 782.72"/>
        <polygon class="cls-20" points="1024.5 784.42 1023.6 783.63 1018.5 786.12 1016.1 787.92 1011.3 789.12 992.39 789.12 989.09 790.82 983.29 790.82 980.82 795.7 982.59 797.17 982.56 800.54 982.16 802.42 983.44 804.14 983.44 808.28 984.83 810.02 988.79 807.53 994.39 803.92 1002.79 801.22 1008.39 799.73 1015.1 795.62 1019.9 792.23 1023.6 791.33 1028.11 790.52 1024.6 786.55 1024.5 784.42"/>
        <polygon class="cls-20" points="1053.51 762.49 1054.81 765.6 1057.85 766.11 1058.8 764.3 1058.8 761.26 1056.19 760.39 1053.51 762.49"/>
        <polygon class="cls-20" points="785.42 782.32 784.82 780.32 770.81 781.12 768.21 782.52 766.11 783.27 766.11 785.42 768.61 787.22 770.61 788.92 772.31 791.1 774.41 793.62 777.11 793.62 782.12 792.22 783.22 791.1 785.22 789.92 787.52 789.22 788.82 787.72 786.72 784.17 785.42 782.32"/>
        <polygon class="cls-20" points="1037.18 682.86 1036.55 681 1032.41 681 1030.39 682.12 1032.67 684.66 1035.22 686.1 1037.5 685.78 1037.18 682.86"/>
        <polygon class="cls-20" points="1041.26 779.81 1039.74 777.56 1037.71 779.74 1037.13 782.06 1039.74 783.21 1041.33 785.82 1044.88 786.55 1045.82 785.82 1045.82 783.07 1045.82 780.75 1043.87 779.81 1041.26 779.81"/>
        <path class="cls-20" d="M936.47,787.82l3-2,2.3-2.19-1.2-2.41-2.4,.5-3.6,2.55-2.9,3.05-1.9,2s-1.9,.4-2.2,.7c-.3,.3-1.8,2.7-1.8,2.7v.9l4,.6,3.2-1,2.8-2.7,.7-2.7Z"/>
        <polygon class="cls-20" points="1082.36 656.84 1086.43 658.56 1090.13 658.56 1094.15 658.09 1095.19 654.65 1094.62 651.62 1094.2 649.59 1092.01 647.45 1090.13 647.45 1088.67 648.08 1087.58 649.54 1085.13 649.9 1081.69 651.2 1079.39 651.67 1077.41 653.71 1078.51 655.85 1082.36 656.84"/>
        <polygon class="cls-20" points="1093.36 623.75 1094.79 626.21 1097.14 626.82 1098.62 625.95 1099.89 624.21 1101.99 622.89 1106.48 623.65 1110.26 624.67 1111.64 622.63 1111.94 620.43 1111.54 618.6 1110 616.25 1108.73 615.99 1105.82 615.29 1104.03 613.85 1101.88 613.85 1100.25 614.31 1097.44 615.63 1095.86 615.28 1091.57 616.73 1090.75 617.47 1089.63 617.52 1087.99 619.36 1087.99 621.51 1090.29 622.07 1092.48 622.48 1093.36 623.75"/>
        <polygon class="cls-20" points="1064.53 31.29 1065.86 28.76 1065.86 25.56 1063.19 22.09 1061.33 23.02 1059.72 25.96 1061.19 30.36 1064.53 31.29"/>
        <polygon class="cls-20" points="291.35 24.47 289.32 22.9 284.65 21.67 278.08 23.01 276.22 20.72 273.52 20.94 266.88 20.64 262.38 16.57 257.63 15.66 254.95 18.23 251.61 21.28 245.75 26.19 242.53 30.49 239.23 34.98 237.42 34.4 237.57 39.77 235.24 41.12 235.83 43.8 239.48 44.8 241.57 47.31 250.01 47.86 252.1 49.69 258.09 48.91 261.3 49.62 264.05 46.62 268.52 45.12 269.61 48.24 284.35 48.24 288.34 46.16 291.71 47.54 295.43 47.54 299.77 45.54 299.8 42.3 300.45 38.57 298.25 36.44 294.69 34.6 289.87 32.36 291.35 26.75 291.35 24.47"/>
        <path class="cls-20" d="M282.75,144.39l-1.67-1.55-2.39-.3-2.57-1.25-1.07,2.75,1.49,1.55,1.37,1.25,.42,2.09,1.58,3.28,2,.72,1.43-1.07s.36-2.27,.36-2.45-.6-2.33-.6-2.33l-.36-2.69Z"/>
        <path class="cls-20" d="M222.02,54.06l4.34-1.09,4.36,2.81-.98,1.51,2.77,.53,1.29,1.49,5.62-1.91,1.77,3.75,2.84,3.96,3.91-.56,4.18-3.43,3.77,4.98v14.93l3.74,1.58,4.42,1.47,22.63-1.44,11.42,1.46h7.25l2.54,3.53,2.71,3.04-4.99,5.27-2.54,4.04-2.55,6-4.83,2.74-5.73,2.1-3.57,2.92-1.53,3.38,.88,7.9,2.34,3.51,2.83,1.92h2.8l3.12-7.78,3.62-6.67,7.23,1.44,1.58,5.94,.88,6.75-.83,4.01,1.32,4.38c.72,1.31,1.62,2.84,1.93,3.25,.53,.41,.8,1.32,1.45,11.63l2.16-.94,2.99-.57,2.62-.77-.73-3.01,.04-6.15,2.36-9.43,4.14-1.38v-22.41l7.2-.38,4.74,2.81,2.76,.23,.96-.56,.97-2.81,1.38-5.97,3.77-3.91,2.78-5.14,2.03-5.48-2.26-2.98,1.4-5.95,4.58-4.28,1.59-4.2,3.59-3.59-.7-2.73-.94-5.95,3.47-6.96,8.21-3.19,5.17-3.26,2.31-3.56,3.14-3.48,8.11-.16,6.51,.96,2.94,1.15,.96-.25,.29-1.39-1.52-2.16-1.28-3.84,2.57-3.96,2.74-2.73,2.25-1.76,1.22-4.73,.6-1.79-5.1-.41-3.61-1.67-3.44-.38h-5.26l-4.66-1.59,2.26-4.82,1.28-3.6v-1.63l-1.16-.99-4.77-.53,1.52-7.52-1.75-1.84h-4.07l-4.03,2.08-3.87,4.57-4.08,.82-6.41-.46-3.72-3.14-4.29-1.36-7.18,5.9-7.3,5.58-11.78,2.69-2.97,6.73-5.23,2.54-2.55,1.51-.78,2.45-4.2,4.2-4.02,1.1-5.26,.54-6.02,1.72-3.08-.74-.61,2.34,2.85,1.33,3.96,2.05,3.49,3.39-.88,5v4.61l-6.42,2.97h-4.84l-2.71-1.1-3.47,1.8h-17.3l-.84-2.41-1.33,.44-3.32,3.63-4.25-.94-6.72,.88-2.33-2.04-8.69-.55-2.28-2.74-4.4-1.21-1.35-6.16,2.65-1.54-.12-4.7-.55-.18-1.1-3.47v-5.08l-1.44-2.38-3.3-.74-2.98,1.31-2.28,1.34-2.13,1.18,1.32,2.45-1.62,7.81-2.9,4.48,1.88,3.97,2.58,4.65-.19,5.16Z"/>
        <path class="cls-20" d="M310.02,168.37l.43,.03,.02-2.72,1-6.3v-3.93c-.3-5.06-.73-10.69-.96-11.96-.36-.46-1-1.46-2.28-3.78l-.11-.27-1.55-5.16,.87-4.23-.81-6.23-1.1-4.07-3.66-.74-2.65,4.88-3.7,9.24h-5.43l-3.95-2.68-2.98-4.48-1.05-9.28,2.1-4.61,4.41-3.61,6.03-2.22,3.75-2.14,2.34-5.46,2.82-4.45,3.39-3.59-1.21-1.37-1.77-2.47h-6.15s-11.25-1.45-11.25-1.45l-22.89,1.46-5.07-1.69-5.42-2.28v-15.8l-1.55-2.05-2.6,2.14-6.26,.9-3.98-5.59-.8-1.7-5.07,1.72-1.86-2.15-2.93-.57-.89,1.38-3.91,2.41-1.1,4.85,3.9,4.08,5.91,3.54,4.43,4.65v6.58l-7.95,1.29-2.69,2.88-4.92,1.46-.88,3.65,2.5,4.37h4.69l7.7,4.43-2.3,8.02-2.12,5.31,3.36,6.01,4.08,4.72-1.81,8.66,3.28,6.95v7.18l.6,9.07,6.95-.71,6.41-3.88,2.53-4.39,5.32,1.27,1.94,3.29,6.16-2.36,5.15-3.3-5.07-18.51-1.58-8.52h3.71l2.23,8.34,3.8,5.01,4.45,3.43,4.36-1.3,4.9,.85,3.21,5.49,4.04,9.03,.68,9.2,2.07,5.22,.84-1.12,4.73-2.84,3.14,2.98Z"/>
        <polygon class="cls-20" points="214.69 40.07 218.14 34.76 219.46 28.39 218.41 26.46 210.59 27.56 201.33 27.56 198.5 23.46 190.68 21.07 185.8 23.75 182.16 22.71 176.93 23.75 173.82 20.93 171.77 18.26 168.48 18.24 158.54 16.14 156.3 11.39 154.68 7.75 148.95 7.75 143.58 5.7 137.72 .28 136.41 -4.73 131.62 -4.74 123.2 -6.06 120.18 -10.72 117.87 -14.51 109.64 -14.51 106.07 -19.1 101.39 -20.59 98.52 -24.76 94.55 -28.47 90.96 -30.72 86.62 -31.55 82.04 -28.5 77.64 -24.11 72.96 -25.66 70.64 -27.48 68.46 -23.19 63.27 -17.03 58.03 -5.79 54.8 1.92 57.49 5.49 65.74 5.49 70.31 11.51 86.07 20.93 94.18 23.38 99.76 23.38 106.54 28.73 113.63 33.01 133.25 33.01 136.79 36.35 148.1 36.35 151.12 42.41 153.85 45.14 161.45 46.99 170.91 47.81 173.01 50.12 180.95 52.95 186 54.45 200.37 54.47 210.2 56.01 219.32 54.63 219.51 49.54 217.25 45.47 214.69 40.07"/>
        <polygon class="cls-20" points="1033.28 632.74 1035.72 633.96 1038.77 633.96 1040.3 631.42 1037.96 629.08 1036.94 625.31 1035.11 622.77 1032.57 622.07 1030.33 622.07 1028.6 620.32 1026.97 619.3 1023.51 619.92 1023.51 623.48 1024.52 627.45 1024.52 630.5 1026.25 632.43 1028.8 632.43 1033.28 632.74"/>
        <polygon class="cls-20" points="953.91 100.41 952.18 102.55 953.11 105.35 956.85 107.62 958.85 106.68 959.78 104.15 957.12 101.08 953.91 100.41"/>
        <polygon class="cls-20" points="991.81 97.34 993.01 95.34 991.54 92.54 988.87 91.07 987.67 89.74 986.6 90.94 985.54 93.54 987.67 95.21 991.81 97.34"/>
        <path class="cls-20" d="M995.29,386.19l.46-2.4-1.83-5.95s-1.83-6.07-1.83-6.41,.46-6.1,.46-6.1l-3.55-5.02-2.86-3.94-5.27-.35-7.44-1.45-5.38,1.45v8.05l3.08,2.32,2.87,3.09,4.01,2.98,2.63,3.55,.11,3.44,.11,1.95,5.15,2.75,4.35,2.06h4.92Z"/>
        <polygon class="cls-20" points="963.73 416.77 966.84 418.17 969.95 416.16 972.42 415.34 971.78 410.77 968.67 408.21 966.48 407.11 963.46 407.72 960.63 410.04 957.98 413.24 957.4 416.16 960.63 416.77 963.73 416.77"/>
        <polygon class="cls-20" points="929.45 397.97 929.45 400.07 931.32 400.9 933.02 399.7 934.39 398.38 933.57 395.87 931.32 396.6 929.45 397.97"/>
        <polygon class="cls-20" points="1004.09 778.32 1009.55 779.22 1013.3 777.56 1017.4 774.32 1016.5 771.62 1012.6 770.57 1008.2 770.57 1001.69 770.57 998.49 773.72 996.39 775.72 996.39 778.52 999.49 779.22 1004.09 778.32"/>
        <polygon class="cls-20" points="916.09 482.22 918.43 483.78 921.34 484.63 923.9 483.78 925.32 481.43 925.32 478.95 922.91 478.95 921.7 476.82 918.08 476.82 916.09 478.31 914.67 479.59 914.25 480.44 914.53 481.93 916.09 482.22"/>
        <polygon class="cls-20" points="988.7 562.22 990.5 563.42 991.19 561.62 991.19 560.07 991.19 557.67 989.9 556.21 987.41 556.21 986.29 557.32 986.29 558.53 987.41 559.81 988.44 560.59 988.7 562.22"/>
        <path class="cls-20" d="M1021.11,691.83c.16-.11,4.56-1.38,4.56-1.38l1.8-2.44-1.17-2.44-2.76-4.08-1.59-3.24-6.21-.69-10.61,.48-2.23,2.81-.58,3.45,3.66,2.65,3.03,.53,4.82,4.19,4.99,1.43s2.12-1.17,2.28-1.27Z"/>
        <g id="Country_Sarawak" data-name="Country Sarawak">
          <polygon class="cls-20" points="781.47 527.81 776.91 528.48 774.68 526.79 773.72 524.67 774.09 522.06 775.03 518.69 774.62 516.57 774.62 513.09 773.85 512.54 772.15 513.08 773.39 516.91 772.48 519.44 771.7 521.05 771.13 523.36 771.99 525.28 772.26 528.59 771.43 531.46 768.49 534.34 765.84 534.33 762.51 533.89 760.65 530.75 758.43 528.58 757.39 526.79 754.55 523.95 751.05 527.92 744.91 535.52 742.17 540.19 735.15 547.44 726.09 551.88 721.18 553.81 717.9 554.11 714.23 555.04 711.13 557.38 708.78 557.32 704.87 558.13 700.95 560.89 700.66 563.51 699.72 565.79 696.57 567.37 694.64 574.1 693.47 575.85 693.01 580.23 693.06 583.63 691.3 584.8 687.97 584.73 685.87 583.27 683.47 582.63 677.68 580.64 673.83 580.41 670.2 577.66 665.52 574.92 663.98 573.79 664.66 578.98 664.66 582.35 669.53 585.91 674.06 592.56 681.21 597.83 686 596.56 690.18 592.87 709.46 592.87 712.76 587.58 719.91 582.22 730.14 580.9 737.2 587.24 745.64 588.54 751.26 585.51 763.35 585.51 763.35 579.5 769.3 575.42 769.3 568.67 776.04 564.95 774.96 559.15 776.91 553.51 782.67 550.43 784.29 546.59 784.29 532.11 781.47 527.81"/>
          <path id="Dot_Sarawak" data-name="Dot Sarawak" class="cls-11" d="M754.3,556.75c0,2.76-2.24,5-5,5s-5-2.24-5-5,2.24-5,5-5,5,2.24,5,5"/>
          <g id="Sarawak">
            <text class="cls-5" transform="translate(649.44 555.63)"><tspan class="cls-19" x="0" y="0">S</tspan><tspan class="cls-9" x="11.53" y="0">A</tspan><tspan class="cls-10" x="24.72" y="0">R</tspan><tspan class="cls-3" x="37.37" y="0">AW</tspan><tspan class="cls-9" x="65.53" y="0">AK</tspan></text>
          </g>
        </g>
        <g id="Country_Sabah" data-name="Country Sabah">
          <polygon class="cls-20" points="849.5 514.16 854.15 514.16 856.8 513.17 859.23 511.62 861.67 509.95 862.66 507.19 862.66 505.09 859.9 503.43 856.03 502.99 853.92 501.88 851.49 499.78 848.68 498.56 844.08 496.35 840.21 495.7 838.99 493.25 833.57 493.25 830.69 491.26 831.03 489.27 831.47 483.74 830.59 480.75 827.49 479.76 824.06 478.1 820.41 476.44 818.75 474.78 812.95 474.78 810.78 472.01 808.74 472.01 807.17 473.85 806.87 477.24 806.05 480.05 804.64 483.02 802.43 485.66 798.45 488.22 795.94 492.44 794.53 496.06 792.25 500.62 786.18 501.32 781.96 504.77 782.9 508.11 783.84 511.26 782.08 513.13 781.16 513.2 781.51 515.39 782.62 517.68 783.18 521.75 783.18 524.22 782.43 526.1 785.83 530.79 789.46 527.94 795.11 525.84 803.81 525.84 811.51 524.59 820.86 525.88 826.41 527.08 830.6 530.91 831.25 528.98 835.24 526.88 838.66 527.65 843.2 526.77 848.17 525.88 850.17 522.89 847.73 520.46 844.19 518.81 843.31 516.93 843.53 514.71 849.5 514.16"/>
          <path id="Dot_Sabah" data-name="Dot Sabah" class="cls-11" d="M820.58,507.15c0,2.76-2.24,5-5,5s-5-2.24-5-5,2.24-5,5-5,5,2.24,5,5"/>
          <g id="Sabah">
            <text class="cls-5" transform="translate(785.87 490.24)"><tspan class="cls-19" x="0" y="0">S</tspan><tspan class="cls-9" x="11.53" y="0">A</tspan><tspan class="cls-8" x="24.72" y="0">B</tspan><tspan class="cls-9" x="37.21" y="0">AH</tspan></text>
          </g>
        </g>
        <g id="Country_Indonesia" data-name="Country Indonesia">
          <path class="cls-20" d="M1004.45,484.83s1.56,.68,1.72,.68,1.36-1.56,1.36-1.56v-2.5l-1.72-1.62,.05-1.88-1.2-1.62-1.77,.73v1.77l.36,2.76-.1,2.71,1.3,.52Z"/>
          <polygon class="cls-20" points="762.42 762.95 764.56 762.2 764.56 760.05 762.95 758.77 762.42 758.77 760.06 758.77 758.56 760.16 759.2 761.13 761.35 761.98 762.42 762.95"/>
          <polygon class="cls-20" points="507.36 722.88 507.36 724.51 507.36 726.07 510.12 726.07 513.25 729.27 515.26 729.27 515.88 724.88 515.13 723.88 507.36 722.88"/>
          <polygon class="cls-20" points="573.81 730.36 576.4 729.27 577.96 729.84 581.07 734.12 583.54 734.9 584.58 732.3 584.71 700.13 584.84 693 587.95 682.62 588.86 678.34 585.61 673.15 582.11 670.29 579.13 666.3 575.76 664.48 570.7 663.94 566.55 664.48 563.43 667.96 560.71 667.96 560.06 665.75 561.23 663.29 563.43 661.47 565.51 659.01 563.69 656.23 560.19 650.06 559.41 646.42 556.82 637.6 551.11 636.18 542.29 635.53 538.14 632.53 535.15 628 534.24 625.41 538.14 618.4 540.86 616.98 543.19 612.57 541.64 608.8 537.49 606.6 532.17 606.99 528.15 608.8 525.94 608.8 526.72 606.6 528.15 604.26 527.24 601.54 522.7 601.02 515.56 597.13 512.71 592.98 511.93 589.86 507.52 585.06 502.07 583.12 495.71 580.78 493.64 577.28 491.56 573.26 487.15 568.46 483.91 569.58 480.67 571.83 477.42 570.4 475.22 567.94 469.38 561.55 464.19 554.45 456.15 547.31 449.01 541.09 443.43 538.49 437.08 535.12 430.07 529.67 426.31 525.26 422.42 521.5 419.69 513.58 416.32 508.78 412.82 508.01 400.37 508.78 389.08 507.23 383.78 503.47 379.61 500.22 366.38 500.22 365.86 503.73 366.38 506.58 369.12 511.12 369.12 515.4 375.2 519.68 382.33 527.21 385.97 533.95 392.32 538.1 399.98 540.18 404.23 544.33 409.19 550.43 414.65 557.43 417.62 567.33 424.24 569.58 434.61 576.76 439.8 581.95 441.75 589.22 445.77 596.09 446.42 607.64 452.78 611.01 459.39 615.81 465.23 623.07 471.33 632.53 474.83 642.9 481.83 651.61 483.39 662.25 495.07 675.59 509.34 688.2 513.23 696.11 521.79 702.86 529.96 710.77 535.28 713.49 541.64 717.39 555.78 733.6 559.8 733.6 561.87 731.01 564.6 730.1 566.16 731.4 571.22 732.56 573.81 730.36"/>
          <polygon class="cls-20" points="436.87 624.72 438.17 621.24 435.92 618.9 434.53 616.55 433.14 613.95 429.23 613.52 429.23 614.3 429.67 617.94 430.45 620.63 429.23 622.28 429.23 626.36 432.36 628.62 434.96 627.41 436.87 624.72"/>
          <polygon class="cls-20" points="463.18 661.87 460.75 658.66 457.88 656.23 454.93 656.23 453.8 659.44 453.8 662.05 457.27 662.31 459.53 664.48 462.74 664.48 463.18 661.87"/>
          <polygon class="cls-20" points="312.77 393.86 310.48 389.55 307.92 389.55 307.11 389.55 306.03 392.92 305.09 395.01 305.09 397.64 307.11 400.47 310.35 400.47 312.77 398.31 312.77 393.86"/>
          <polygon class="cls-20" points="474.29 674.81 472.03 672.64 468.91 669.69 467.09 667 463.7 666.3 463.18 667.86 462.05 670.56 464.13 672.73 464.74 674.29 467.17 676.63 469.78 677.76 471.51 681.32 474.38 684.88 476.38 683.75 476.98 679.93 476.03 676.46 474.29 674.81"/>
          <polygon class="cls-20" points="730.57 761.45 734.86 761.45 738.72 763.48 742.8 764.77 748.27 762.95 754.27 761.77 757.59 758.77 755.56 754.91 752.77 753.62 731.22 754.48 729.4 757.37 729.4 759.3 730.57 761.45"/>
          <polygon class="cls-20" points="784.42 792.72 783.62 794.42 784.52 796.52 786.52 796.52 787.12 794.92 787.72 794.17 786.52 791.82 784.42 792.72"/>
          <polygon class="cls-20" points="574.9 750.08 574.9 748.15 573.83 746.22 572.22 746.97 570.18 748.15 568.79 750.4 570.18 752.55 571.25 752.98 574.25 751.69 574.9 750.08"/>
          <path class="cls-20" d="M763.6,787.22l.96-2.4v-1.55l1.07-2.95-1.07-3.22-.96-2.9-3.22-1.82-5.36-.43-3.54-2.04-5.04,.11-4.07,2.04-7.18-.54-2.57-2.04-2.04-.75-2.25-2.36,1.07-3.43-2.25-3-.86-3.22-2.57-.96-8.47-1.61-8.15-1.5-8.26-1.72-4.29-1.82-2.68-3.32-3.65,.54-4.82,6.54-2.25,2.9-4.29,1.07-5.68-1.72-7.83-.64-13.19-.32-5.15-.96-8.26-10.4-15.12-.75-4.5-4.07-8.04-.86-4.07,1.5-7.83-1.5h-6.65l-2.89,3.54-6.22,8.36-1.72,2.57-3.22,1.82-2.25,.75v2.25l3.22,.43h4.72l7.51-.75,1.61,1.18,2.68,1.72,2.79,.86v2.68s.54,2.79,.64,3.11c.11,.32,4.07,2.68,4.07,2.68h3.97l5.58,1.82h6.97l4.4,1.29,3.65,2.36,3.54,1.5,7.29,1.29,8.36-1.29,3.75-1.61,11.47,1.07,6.11,1.82,10.19,2.47,3.54,3.97,9.65,3.32h11.47l8.47,1.5,8.47,.75h5.04l7.93,.54,3.65-1.93,6.22,.54,7.29,2.14,4.61,1.24,4.5,2.53,4.93,.55,3.59,1.48,1.56-.64v-1.93l-3.11-3-.96-2.85Z"/>
          <polygon class="cls-20" points="725.96 730.14 723.71 731.96 723.71 734.21 725.96 735.29 728.86 734.75 729.4 732.71 728.11 731.21 725.96 730.14"/>
          <polygon class="cls-20" points="449.11 643.9 447.12 640.43 445.64 636.35 443.3 633.83 436.87 632.53 435.4 632.96 434.96 636.18 434.96 640.69 434.96 644.34 437.74 645.9 440.87 650.24 445.29 652.76 449.72 653.28 451.46 649.02 450.5 646.16 449.11 643.9"/>
          <polygon class="cls-20" points="406.83 572.71 411 574.97 412.56 573.93 413.52 571.49 411.09 569.24 408.74 567.33 403.79 567.33 403.79 569.58 404.75 571.15 406.83 572.71"/>
          <polygon class="cls-20" points="331.72 451.61 333.95 450.33 333.95 446.91 331.24 444.52 329.69 444.52 328.93 447.23 327.18 448.34 325.43 450.33 325.43 453.84 327.9 455.43 330.68 455.43 332.19 454.31 331.72 451.61"/>
          <polygon class="cls-20" points="314.2 423.98 312.77 426.77 314.2 429.63 317.7 430.43 318.58 426.69 317.94 423.98 314.2 423.98"/>
          <polygon class="cls-20" points="317.63 339.66 316.48 342.9 313.18 349.77 313.04 358.67 312.5 365.68 309 371.21 310.35 374.58 311.16 382.8 314.12 384.02 316.41 381.19 317.63 374.04 318.98 365.41 321.81 360.56 323.96 355.7 321.67 353.01 321.94 348.56 323.96 341.28 323.96 336.02 319.92 334.81 317.63 339.66"/>
          <polygon class="cls-20" points="340.47 466.57 338.33 464.66 336.26 462.2 333.07 461.72 331.64 463.79 332.27 467.21 333.95 468.33 333.95 470.79 335.54 473.58 336.81 476.68 340 476.68 341.75 474.77 340.87 469.68 340.47 466.57"/>
          <polygon class="cls-20" points="421.77 591.2 419.07 588.95 417.6 586.17 414.91 583.82 407.27 583.82 405.01 585.47 404.23 588.16 407.27 592.94 411.87 595.54 415.17 601.53 418.9 605.01 422.11 603.88 423.5 602.06 425.06 598.83 423.94 593.37 421.77 591.2"/>
          <polygon class="cls-20" points="386.95 559.25 383.3 555.87 378.18 553.52 376.18 554.65 374.36 556.82 375.23 559.51 379.48 562.9 385.69 565.68 389.47 569.58 392.59 569.58 393.2 566.29 391.55 563.85 386.95 559.25"/>
          <polygon class="cls-20" points="372.06 497.93 373.08 496.18 371.95 493.57 366.11 493.29 365.15 496.57 369.97 498.61 372.06 497.93"/>
          <path id="Dot_Indonesia" data-name="Dot Indonesia" class="cls-11" d="M515.64,642.84c0,2.76-2.24,5-5,5s-5-2.24-5-5,2.24-5,5-5,5,2.24,5,5"/>
          <g id="Indonesia">
            <text class="cls-4" transform="translate(462.07 671.58)"><tspan x="0" y="0">INDONESIA</tspan></text>
          </g>
        </g>
        <g id="Country_Myanmar" data-name="Country Myanmar">
          <polygon class="cls-20" points="331.88 227.42 334.02 228.92 336.59 228.92 336.59 225.58 335.86 223.01 332.37 221.5 330.38 221.84 328.39 223.15 329.7 225.72 331.88 227.42"/>
          <path class="cls-20" d="M380.28,281.79l7.43-6.58,11.73-5.92,1.43-11.73,2.96-1.43,1.68,4.3,5.15,9.79,6.24,6.76,1.69,6.83,2.19,25.66,4.81,15.62,6.33,9.87,4.56,10.39,1.35,5.91-1.81,3.47-.16,1.97-.16,3.88,.55,1.35-.28,3.02-.12,3.7,1.11,2.37-.09,3.71,.55,1.66,.56,.97,.77,4.98-2.11,11.65-.17,1.92,3.92-1.94,3.3-4.5,4.08-5.5,3.39-5.96,3.39-3.29v-7.97l-3.2-6.42,.12-3.36-3.92-4.45-1.57-7.4v-15.09l-11.21-10.98-4.7-5.9-2.4-5.98-.73-6.13,4.45-3.89,2.52-2.41,1.91-6.06-.13-4.02,4.02-4.02,.87-2.08-2.11-2.63-4.4-2.81-.77-8.08-3.16-5.75-7.92-6.13-4.28-4.93-.94-5.37v-3.71l-4.68-4.56-.73-4.37,5.02-2.35,2.25-2.98-1.18-6.76,2.16-5.1,1.18-7.34,4.66-2.56h15.04l4.41-2.47,3.41-5.56,4.28-1.03,4.81-3.96,6.81-1.05h3.63l.73-4.81,6.83-9.26,4.94-4.68,4.75-2.14,2.22-3.27-1.04-2.75-.94,.24-2.39,1.63-3.05,3.17-5.49,.7-6.24-1.62-3.8-3.96-2.36-3.27-.83-3.42-4.74-.72-6.73-.65-3.92-3.55,5.08-6.81-.49-7.2,2.2-3.08-1.32-2.05h-5.35l-5.1-2.7-.65-7.79-3.69-6.87,1.4-4.19-2.25-.35h-5.72l-4.94,1.27-4.19,2.2-3.69,1.34-2.55-3.92,2-5.01-1.51-3.37-1.68-4.61,3.41-5.9,2.29-8.28,4.26-2.71,3.67-5.02,3.97-2.51,3.92-2.07-.12-6.57,2.17-3.2,2.65-11.82-3.99-6.52,.76-8.53-.91-3.55h-5.06l-3.37-2.73-.76-7.41-3.39-4.63c-1.22-1.17-2.72-2.52-3.16-2.82-.65-.22-2.33-.95-3.56-1.51l-3.18,1.27-2.08,6.29-1.42,5.49-2.91,2.27-2.46,2.45-1.61,2.54,.76,2.26,1.97,2.79-.87,4.14-3.4,.91-3.61-1.42-5.84-.84-6.73,.13-2.3,2.55-2.43,3.79-6,3.77-7.38,2.87-2.64,5.26,.8,5.04,1.04,4.02-4.26,4.27-1.61,4.24-4.44,4.15-.93,3.94,2.39,3.14-2.66,7.11-2.99,5.54-3.5,3.65-1.27,5.45-1.32,3.8-2.54,1.49-4.22-.36-4.57-2.72-3.86,.2v21.81l-4.58,1.52-1.96,7.86v5.49l1.3,5.01-5.3,1.57-2.9,.55-2.7,1.19-.02,3.41-1,6.3v5.24l-4.23-.27-2.38-2.25-2.54,1.53-1.51,2.02,3.63,9.16,9.87,10.13,8.36,4.13,7.85,7.09,4.98,3.63-3.23,3.98-4.13,.58,7.82,11.6,3.06-.1,.88-7.03,3.04,3.21,2.28,9.45,6.49,18.4-.76,10.81-3.8,15.79-.33,7.34,3.12,3.71,11.99,2.28,9.87,1.94,6.84-6.58Z"/>
          <g id="Myanmar">
            <text class="cls-5" transform="translate(333.94 155.55)"><tspan class="cls-7" x="0" y="0">M</tspan><tspan class="cls-18" x="15.91" y="0">Y</tspan><tspan class="cls-9" x="26.37" y="0">ANMAR</tspan></text>
          </g>
          <path id="Dot_Myanmar" data-name="Dot Myanmar" class="cls-11" d="M385.76,174.14c0,2.76-2.24,5-5,5s-5-2.24-5-5,2.24-5,5-5,5,2.24,5,5"/>
        </g>
        <g id="Country_Peninsular_Malaysia" data-name="Country Peninsular Malaysia">
          <polygon class="cls-20" points="547.45 587.93 550.14 585.52 551.26 583.84 547.17 569.88 545.49 564.87 537.87 556.5 536.75 540.96 536.47 532.12 538.89 527.76 538.61 521.33 536.29 516.41 535.64 510.08 531.35 505.43 526.14 499.76 512.08 487.79 507.52 492.21 505.31 495.64 501.1 497.43 498.09 495.66 492.91 494.76 491.12 498.49 488.35 500.36 484.58 496.25 485.9 492.52 485.9 489.2 483.87 486.73 479.08 485.77 476.7 482.21 474.27 481.77 472.02 481.77 470.19 480.46 468.47 480.46 466.8 482.25 465.5 483.22 466.96 485.71 469.73 487.4 471.84 493.23 472.6 502.09 468.63 505.22 470.48 508.43 473.19 512.48 477.25 523.95 480.78 535.27 486.7 542.11 492.02 548.26 492.77 556.96 501.72 562.78 516.49 574.27 525.87 579.67 532.29 584.68 537.4 587.28 544 588.12 547.45 587.93"/>
          <path id="Dot_Peninsular_Malaysia" data-name="Dot Peninsular Malaysia" class="cls-11" d="M520.64,543.94c0,2.76-2.24,5-5,5s-5-2.24-5-5,2.24-5,5-5,5,2.24,5,5"/>
          <g id="Peninsular_Malaysia" data-name="Peninsular Malaysia">
            <text class="cls-5" transform="translate(455.35 504.74)"><tspan class="cls-9" x="0" y="0">PENINSU</tspan><tspan class="cls-14" x="82.55" y="0">L</tspan><tspan class="cls-9" x="94.62" y="0">AR</tspan><tspan class="cls-7" x="12.65" y="20.4">MA</tspan><tspan class="cls-14" x="41.75" y="20.4">L</tspan><tspan class="cls-16" x="53.82" y="20.4">A</tspan><tspan class="cls-1" x="64.87" y="20.4">Y</tspan><tspan class="cls-7" x="77.28" y="20.4">SIA</tspan></text>
          </g>
        </g>
        <g id="Country_Vietnam" data-name="Country Vietnam">
          <path class="cls-20" d="M657.16,354.76l.28-32.84-2.41-6.05-2.61-5.11-2.14-12-6.89-9.11-10.23-9.4-15.25-14.04-17.58-17.96-.28-11.44-5.95-2.51-10.24-12.93,.09-4.84,2.42-3.72,2.7-8.09,7.35-8.46,6.14-3.63,2.04-6.79,3.91-2.04,4.84,.37,4.37-6.98,4.84-1.76,2.6-7.26,3.5-.43-.84-1.65-1.62-1.74-8.2,1.58-7.14-5.1-9.76-5.05,.54-3.83-2.9-4.5,.77-5.57,3.5-3.78-.81-.94-4.08-.42-6.38-.16h-5.57l-5.37-2.51-3.68-4.51-2.57-2.44-3.95,2.49-3.55,2.13-.95,4.61-3.23,2.23-6.65,1.37h-4.83l-4.17,5.2-3.83-2.13-5.31-2.36-5.02,1.26-5.87,5.33-5.15-3.77-2.9-2.51-3.7,2.71-1.92,3.99,1.27,7.86,4.91,4.31,8.17,1.79v13.13l5.1,3.61,7.47,3.3,6.33-3.16,5.38-1.08,8.91,3.71-1.34,6.58,2.66,2.47,3.75,4.23,2.15,4.94-6.13,5.6-4.44,3.09h-5.33l-.51,2.53-1,3.79,4.5,3.47,12.69,6.68,5.24,3.06v6.24l5.16,5.38,5.31,5.79,16.93,19.15v7.69l7.22,2.19,6.29,4.77,5.43,4.86-4.01,6.02,3.18,5.17,6.86,3.02-3.74,8.28,1.83,8.7-4.59,.79,.5,1.67-1.5,5.64,.43,4.39,2.94,3.71,2,4.72-1.17,8,1.15,14.85-3.04,5.07h-7.32l-9.42,6.01-4.06,4.23-4.81,2.9-5.14-2.35-2.62,2.61-.76,3.92,3.3,3.3,4,2.78,1.48,4.68-5.49,2.29-6.15-2.11-3.4-.99-4.29,1.57-5.17,3.55-4.27,3.38-3.54,3.69,4.91,3.58,3.07,4.69-4.04,4.21-2.94,12.6-.84,5.12,.28,5.58,5.02,.93,4.75-1.39,9.02-9.11,9.11-5.31s7.29-6.98,7.01-6.9c-.29,.1,5.83-10.42,5.83-10.42l4.46-6.49,4.37,1.67,5.11,1.02,10.41-5.49,14.51-12.09,13.77-10.98,.46-19.62Z"/>
          <path id="Dot_Vietnam" data-name="Dot Vietnam" class="cls-11" d="M647.78,367.26c0,2.76-2.24,5-5,5s-5-2.24-5-5,2.24-5,5-5,5,2.24,5,5"/>
          <g id="Vietnam">
            <text class="cls-6" transform="translate(661.98 372.26)"><tspan x="0" y="0">VIETNAM</tspan></text>
          </g>
        </g>
        <g id="Country_Laos" data-name="Country Laos">
          <path class="cls-20" d="M490.9,173.89l-1.89-4.03-.47-1.67-1.42,2.09-5.03,2.26-4.52,4.29-6.22,8.44-.7,4.62,4.63,4.53,2.35,3.85-3.34,5.44c1.51,1.81,2.28,2.85,2.68,3.5,1.43,.09,5.46,0,8.96-.17l6.38-1.92v9.11l1.54,7.6-5.04,6.16-1.44,4.72,3.18,5.51-2.9,5.96-1.34,4.44,.32,2.87h2.02l5.29-3.3,7.3-8.04,8.87-3.36,3.35,2.17,6.79,4.91,5.47-2.02,5.92-7.57,4.73-3.06,9.55,1.85,4.81,4.4,3.08,7,6.61,4.46,3.59,3.14,1.69,5.63-2.16,5.26,2.08,6.23v5.02l4.18,5.06,4.94,4,4.21,3.22,4.12,5.76-1.8,5.26-2.13,3.41,1.13,6.35,.53,7.04-3.39,2.73-3.73,3.55,.52,.57,6.67,.47,5.39,4.09,1.55,.24,.88-3.41-1.84-4.5,6.74-2.12,3.86-3.86,6.16,3.22,3.5,3.1,4.22-2.38,3.19-2.84h2.82l3.22-.55-1.43-6.84,2.99-6.62-5.16-2.27-4.52-7.34,3.68-5.51-3.66-3.28-5.77-4.39-8.66-2.62v-8.66l-16.25-18.38-5.27-5.75-5.88-6.13v-5.78l-3.87-2.26-12.93-6.82-6-4.63,1.43-5.43,.92-4.6h6.68l3.67-2.57,4.53-4.13-1.22-2.81-3.42-3.86-3.63-3.34,1.2-5.92-6.13-2.55-4.23,.85-7.14,3.56-8.98-3.99-6.33-4.48v-12.36l-6.74-1.48-6.15-5.4-1.31-8.15-2.88-.12-6.01-.74-3.77,3.16,1.67,3.71,3.72,2.48-.7,7.81,.74,7.51-4.63,1.32h-8.27Z"/>
          <path id="Dot_Laos" data-name="Dot Laos" class="cls-11" d="M605.35,292.08c0,2.76-2.24,5-5,5s-5-2.24-5-5,2.24-5,5-5,5,2.24,5,5"/>
          <g id="Laos">
            <text class="cls-5" transform="translate(573.34 276.14)"><tspan class="cls-14" x="0" y="0">L</tspan><tspan class="cls-12" x="12.07" y="0">A</tspan><tspan class="cls-9" x="24.65" y="0">OS</tspan></text>
          </g>
        </g>
        <g id="Country_Cambodia" data-name="Country Cambodia">
          <polygon class="cls-20" points="619.25 332.44 616.04 328.38 615.49 322.73 616.91 317.36 616.49 315.91 615.57 315.91 612.81 318.34 606.79 321.72 601.99 317.47 597.99 315.4 595.04 318.34 590.46 319.8 591.52 322.42 589.81 329.04 585.21 328.32 579.92 324.3 572.98 323.81 569.37 319.87 560.34 318.36 546.12 320.98 539.51 318.57 534 319.87 529.1 323.34 524.94 325.8 520.85 331.12 519.07 335.53 514.09 337.52 514.09 343.25 516.69 345.32 519.46 351.55 518.64 354.73 522.9 357.07 525.59 361.53 521.47 368.68 525.64 372.9 528.34 379.6 529.08 387.87 530.49 392.34 534.54 389.77 538.11 386.69 540.41 388.51 540.77 392.8 544.31 395.69 545.85 397.16 551.06 400.04 552.27 397.72 554.51 399.52 554.65 401.17 560.19 402.09 564.67 397.42 569.12 393.91 574.76 390.09 580.03 388.16 584.34 389.41 589.59 391.21 591.88 390.26 591.42 388.78 587.88 386.3 583.49 381.9 584.67 375.79 589.19 371.29 594.73 373.83 598.03 371.84 602.2 367.54 612.41 361.02 619.01 361.02 620.82 357.99 619.71 343.69 620.81 336.13 619.25 332.44"/>
          <path id="Dot_Cambodia" data-name="Dot Cambodia" class="cls-11" d="M565.34,367.26c0,2.76-2.24,5-5,5s-5-2.24-5-5,2.24-5,5-5,5,2.24,5,5"/>
          <g id="Cambodia">
            <text class="cls-5" transform="translate(509.73 350.06)"><tspan class="cls-9" x="0" y="0">CAM</tspan><tspan class="cls-19" x="42.64" y="0">B</tspan><tspan class="cls-7" x="55.15" y="0">ODIA</tspan></text>
          </g>
        </g>
        <g id="Country_China" data-name="Country China">
          <path class="cls-2" d="M66.75-35.47l4.37,4.96,3.13,2.46,2.67,.89,3.53-3.48,5.59-3.74,5.92,1.13,4.33,2.74,4.35,4.12,2.43,3.53,4.61,1.46,3.28,4.21h8.41l3.08,5.04,2.34,3.63,7.14,1.11h6.56l1.63,6.25,4.91,4.53,4.42,1.69h6.98l2.31,5.19,1.67,3.53,8.51,1.79h4.19l2.77,3.61,1.86,1.67,4.55-.91,3.21,.91,4.9-2.69,9.79,2.98,2.56,3.72h7.77l8.22-1.18,3.05-1.68,2.45-1.43,3.86-1.7,5.26,1.19,2.42,3.97v5.42l.55,1.77,1.91,.6,2.16-2.95,3.54-4.65,5.94-4.97,3.27-3,3.65-3.49,6.84,1.3,4.34,3.94,5.51,.25,3.93-.33,1.73,2.13,5.59-1.14,5.82,1.52,3.49,2.71v2.71l2.64,.64,5.69-1.6,5.27-.54,3-.84,3.25-3.25,.88-2.8,3.58-2.11,4.38-2.13,3.12-7.07,12.53-2.86,6.81-5.19,8.26-6.79,6.19,1.96,3.47,2.93,5.18,.37,2.82-.56,3.6-4.27,5.08-2.62h5.87l3.5,3.69-1.24,6.01,2.69,.29,2.72,2.32v3.32l-1.51,4.21-1.02,2.17,1.42,.48h5.03s3.95,.45,3.95,.45l3.56,1.65,5.27,.43,1.02-3.12,5.39-2.16,.52,.23c1.59,.71,3.5,1.54,3.83,1.64,.31,.08,.81,.21,4.25,3.51l.15,.18,3.88,5.3,.71,7.03,1.77,1.43h6.19l1.53,6-.71,8.11,4.09,6.69-2.98,13.37-1.99,2.91,.12,7.38-5.33,2.81-3.4,2.16-3.67,5.02-3.82,2.42-2.19,7.77-2.87,4.97,1.24,3.4,1.92,4.26-1.91,4.77,.63,.98,1.6-.59,4.37-2.27,5.59-1.38h6.2s5.48,.86,5.48,.86l-2.03,6.09,3.4,6.34,.58,6.89,3.22,1.7h6.15l3.08,4.8-2.69,3.78,.49,7.22-4.22,5.67,1.47,1.33,5.92,.57,6.58,1.01,1.13,4.65,2,2.77,3.09,3.21,5.02,1.3,4.04-.52,2.7-2.77,2.88-1.97,3.71-.97,2.38,6.3-.04,.05,1.05,3.73,1.04,2.19h6.2l2.13-.61-.54-5.54,.58-6.48-3.04-2.03-2.82-6.25,6.21-5.2,7.12,.86,2.93,.12,2.01-4.18,5.95-4.37,4.46,3.88,3.25,2.38,4.76-4.32,6.56-1.64,6.32,2.81,1.91,1.06,3.56-4.45h5.97l5.71-1.2,1.92-1.32,.97-4.71,4.53-2.71,5.68-3.6,4.24,4.06,3.35,4.11,4.28,2h5.02l6.57,.17,5.19,.53,3.06,3.56-4.54,4.9-.52,3.76,2.9,4.51-.42,2.93,8.33,4.33,6.28,4.49,8.53-1.64,2.89,3.09,1.45,2.84,3.44-.42,4.75-3.35,6.32,.37,5.2,2.88,2.51,3.16,7.07-.84,3.72-1.3,3.53,2.24,7.54,2.33,4.28,2.04,9.77-1.95,5.11-4.37,7.91-.74,7.71-3.44,4.65-3.26,8.65-.28,4.93-1.3,7.16-3.16,7.9-5.96s2.14-4.55,1.77-4.46c-.37,.1-.19-5.02-.19-5.02l1.58-.84,3.72,1.31,.46,3.9-.37,4.84,2.98,1.21,7.45-.84,2.23-6.79,4.1-2.15,5.11,.94,8.93-1.21,5.21,.56,10.51-1.86,9.58-5.59,9.21-10.5,4.75-3.54,3.71,2.23,4.19-2.69,1.59-5.21,8-4,1.85-8,1.59-2.89,6.05,1.67,5.67-2.79,1.21-5.86,2.98-2.41,1.3-4.46,4.28-.94,3.06-5.3,2.98-.09,3.82,2.23,2.5-3.06-4-8.28-.18-6.04,6.97-4.94-.75-5.39,4.94-5.59,7.16-8.46,2.41-4.75,2.6-6.32,3.54-6.32,6.05-2.14,5.21-4.09,2.69-5.02,.94-7.35,.09-6.14-.37-3.35,3.16,.75,4.47,.65,1.49-4.1-1.59-5.76,1.67-4.56-2.98-1.76-3.81-.75-3.44-4.46-2.7-3.77-4.1-1.72-5.39,2.33-5.02,2.61-8.09-1.59,1.76-2.79,6.14-1.59,6.14-2.14,4.94-3.35,6.98-1.85,4.28-2.42,2.6-3.16-2.6-4.65-4.65-3.81-4.84-4.28-8.28-6.32-2.24-3.35,1.86-1.02,2.79,.37,1.11,3.72,4.19,2.24,2.61,2.7,4.55,1.49,4.1,1.49,1.3-2.7-1.3-5.11-1.4-5.3-5.3-4.56-4.37-5.76-3.38-2.8-5.46-1.85,.19-6.05-1.95-8-3.81-8.28-3.26-7.63-4.19-7.63-4.37-5.58-10.61-4.19-5.95-4.46,1.77-4.75,5.95-7.54,7.71-7.44,3.63-5.21,2.79-3.9,9.11-1.11,.46-5.4,2.89-1.4,4.19-4.46,7.25-1.58,4-2.98,4.1-2.51,6.6,1.76,6.14-.09,.46-3.35,2.24-6.14-2.14-6.7-11.54,.37-10.41-2.05-7.72-4.93-8.84-4.37-6.98,4.74-4.46,6.05-6.42,4.19-7.71,3.16-7.63-3.63-2.89-4.65,2.7-5.49-.84-8-6.32-2.61h-8.84l-6.89-3.06-5.58-6.98-1.77-3.82,4.94-5.02,2.41-3.35,5.11,.93,11.54-.19,6.79-3.35,4.75-6.98,2.7-5.39,6.23-3.72,6.51-1.86,4.84-3.63,3.54-2.14h4.19l.93-5.11,2.14-4.19,6.98-5.02h7.54l6.6,.84,4.37,4.28-.28,4.84-5.02,5.3-10.41,10.51-4.1,5.11,.46,3.26,3.26,.74,3.54,.29,2.6,1.67-.75,2.69-3.44,1.02-2.7,.46-3.53,1.67-1.4,3.35,.84,3.63,1.76,.74,1.46-.35,15.3-9.59,12.19-8.55,12.44-3.63,11.93-3.37,10.74-3.36,4.93-10.88,7.88-2.9,7.33-6.34,11.39-5.15,5.34-1.25,2.86-6.29,6.49-4.9,1.57-6.54,4.85-4.12,7.47,1.93,2.37,5.13,6.56,1.24,12.31-.37,1.02-1.59-1.72-3.91-4.11-2.28,1.52-5.79h18.74l2.94-2.12,3.19-7.45h7.88l2.1-6.65,2.52-7.12h5.89l5.17,2.96v3.29l2.93,.14,15.38-13.61-2.66-10.28,2.06-7.74-4.72-21.9,8.11-1.81,8.71-9.08,6.89,2.06,6.65,3.03,8.6,.85,4.71-3.27,1.82-7.14,13.55-22.38,4.35-16.09,4.48-10.89,8.71-5.81v-5.68l-3.27-4.72,1.82-4.36-2.42-3.99h-6.05l-9.56,3.63-4.71,3.39-10.53-.24-5.8,3.5-5.09,5.81-7.14,1.82-12.21,.72-10.89-2.17-6.54-7.74-.72-10.77-4.12-5.2,.12-4.23-8.23-3.39-9.19-9.56-5.8-2.78h-8.23l-4.23-3.99-11.86,.72-6.05-1.45-8.35-6.77v-5.44l1.58-4.6-4.12-3.63v-6.17l-1.09-5.32-5.44-3.88-3.02-7.26-4.72-12.94-5.32-9.31-1.21-6.53-6.78-10.77-7.38-8.11-8.59-3.99h-8.11l-7.86-.85-9.56-4.36-7.87-3.99-16.44,.85-15.73,1.21-11.13,3.14-10.28,1.58-3.88,.72-14.51,11.38-.97,4.11,7.87,1.21,3.26,1.21,.25,6.05,2.3,5.68-2.79,5.68-10.89,7.5-6.16,8.83-4.84,11.62-8.71,9.91,2.9,5.68-1.34,5.45-4.71,1.57-7.63,1.58-7.74,3.99-6.05,6.29-4.35,.96-7.26-2.78-10.65-4.12-2.78-1.26-3.09,8.09-13.67,22.42-2.86,6.24v5.43l-3.61,2.06,1.77,6.19,3.55,2.29,6.99-4.14,9.8-.29,6.44,1.17,5.38,3.5h3.44l7.04-7.04,9.85-1.79,7.13,3.1,2.92,5.83,7.91,1.1,2.7,4.79,6.99,6.72,4.61,4.34,1.55,4.64v8.13h-14.5l-5.51-2.36-4.4,1.71-5.7,1.43-3.88-2.36-4.49,2.07-3.67,3.22h-4.46l-2.57-2.33-.99,.74-.56,3.37-2.44,2.24h-11.3l-9.95,9.81-1.17,5.12-4.98,3.73-7.39,4.83-7.6,.6-7.46,1.17-6.91-.93-6.36,7.82-8.61,6.41-5.96,2.35-9.26-1.49-7.96-1.2-6.9-5.77-10.99,.91-4.96,7.57-1.98,8.95,4.77,7.15,4.53,4.39-.73,5.5-5.6,4.49-9.28,3.48-5.31,2.99-11.85,13.29-16.65,5.76-14.53,2.02h-15.59l-14.3,1.01-14.44,1.68-11.06,6.28-9.1,2.98-9.63,4.68-6.12,3.52-11.18-1.9-2.49-3.3-7.91,.26-9.98-.14-11.57-5.79-19.3-3.19-10.25-9.97-15.92-.42-6.96-2.7-11.51,.95-6.17,2.8-11.43-1.64-13.31-1.57-16.37-1.01-9.43-1.27-10.28,1.31-4.8-1.33-11.24-12.74-2.01-8.5-9.35-11.54,.74-5.35-10.97-.91-8.61-5.64-17.77-10.58-13.27-1.39-27.82-.15-6.41-5.53-8.26-1.53-2.92-13.39,5.28-5.92v-6.65l3.6-3.61-2.48-11.34-13.52-12.23-1.13-7.64-6.89-4.77-7.74-3.59-14.76-1.75-8.15-8.73-8.32-3.08v-6.16l-4.45-2.44v-8.93l-.62,.26h-6.04l-12.11,3.57-3.24,9.74-10.66,5.97-10.41,2.84-2.54,11.11,2.23,9.21,1.41,9.26-8.3,5.14-10.34,4.35-6.37-4.51-17-.25-7.91-5.1-5.82-.4-1.61,9.17-6.86,13.73-1.43,7.99-4.02,7.36,.66,2.88,3.03,2.52,1.49,3.83-1.74,6.96-5.08-2.87-5.17,1.04-1.63,1.62-4.55-3.93-5.27-1.81-5.31,2.62-10.38,2.59-7.23,1.59-7.89,1.09-.54,2.63,1.47,1.93h4.73l5.05,1.5-2.04,5.52-.65,5.06,.64,6.98,5.5,8.93,1.07,5.14,1.7,4.55-2.66,6.37-3.71,1.5,.77,2.94-4.8,2.89-1.27,3.08,.51,4.9-.63,2.83,1.26,2.27-1.51,4.91-3.62,3.13-5.81,1.51-5.65,1.88-5.35,1.18-8.41,4.81-10.55,7.5-4.8,4.81-17.38,1.06h-5.4l-5.31,6.63-3.45,5.68-2.64,4.55h-7.41l-3.85,.83h-4.48l-1.46-4.64-1.39-1.94-4.12,1.1-2.39,2.39-7.32,.2-3.18,3.47-4.51,3.14-7.87,2.16-3.5,2v4.83l1.41,7.09-8.46,4.04,1.9,2.03,.92,3.11,1.47,2.81-.92,3.99,.72,3.51,1.41,1.26,3.55-.36,2.49-1.02,4.48,.24,3.85,1.25,5.02,1.88,1.02,3.66-.86,4.77,.75,2.8,2.25,4.06v5.34l1.25,4.03,3.06,2.92-2.44,3.59-3.31,1.79-1.16-.62-4.34,1.93v2.85l2.72-1.2,7.2,1.18,4.31,2.15,3.08,3.2,5.63,1.1,4.94,4.12,.96,7.12,.84,5.86,2.66,3.26,5.29,.96h4.8l3.06,2.45,2.65,3.22,1.74,5.26,.71,4.41h2.5l5.1-2.77,3.09-4.74,7.92-1.24,2.26,5.59,.93,6.53,4.39,5.19v3.55l5.5,2.41,6.21,2.49,3.69,5.01-5.58,5.15-.18,6.51,.18,6.71,3.84,2.56,3,5.84,2.25,7.39-1.77,10.43-7.93,1.79-2.38-4.12-3-.81-2.01,2.27,1.27,2.84,3.6,2.8,2,5.98-1,7.74,1.1,4.82h10.89l4.2,6.83,8.41,1.72,4.13,3.26,4.7,6.58,7.39,1.21Z"/>
          <path id="Dot_China" data-name="Dot China" class="cls-11" d="M688.44,112.48c0,2.76-2.24,5-5,5s-5-2.24-5-5,2.24-5,5-5,5,2.24,5,5"/>
          <g id="China">
            <text class="cls-6" transform="translate(656.34 95.54)"><tspan x="0" y="0">CHINA</tspan></text>
          </g>
        </g>
        <g id="Country_Singapore" data-name="Country Singapore">
          <polygon class="cls-20" points="558.85 590.93 553.55 591.21 547.88 591.02 545.09 591.49 547.5 596.14 550.94 598.93 555.32 597.91 559.69 598.93 564.25 596.97 564.8 594.1 558.85 590.93"/>
          <path id="Dot_Singapore" data-name="Dot Singapore" class="cls-11" d="M564.4,593.83c0,2.76-2.24,5-5,5s-5-2.24-5-5,2.24-5,5-5,5,2.24,5,5"/>
          <g id="Singapore">
            <text class="cls-5" transform="translate(572.34 600.83)"><tspan class="cls-9" x="0" y="0">SIN</tspan><tspan class="cls-17" x="30.94" y="0">G</tspan><tspan class="cls-9" x="45.2" y="0">APORE</tspan></text>
          </g>
        </g>
      </g>
    </g>
  </g>
</svg>