<?xml version="1.0" encoding="UTF-8"?>
<svg id="Layer_2" data-name="Layer 2" xmlns="http://www.w3.org/2000/svg" xmlns:xlink="http://www.w3.org/1999/xlink" viewBox="0 0 800 800">
  <defs>
    <style>
      .cls-1 {
        letter-spacing: .06em;
      }

      .cls-2 {
        fill: #939598;
      }

      .cls-3 {
        letter-spacing: .02em;
      }

      .cls-4, .cls-5, .cls-6 {
        fill: #fafafa;
        font-family: RedHatDisplayRoman-SemiBold, 'Red Hat Display';
        font-size: 17px;
        font-variation-settings: 'wght' 600;
        font-weight: 600;
      }

      .cls-4, .cls-7 {
        letter-spacing: .08em;
      }

      .cls-8 {
        letter-spacing: .06em;
      }

      .cls-9, .cls-6 {
        letter-spacing: .07em;
      }

      .cls-10 {
        letter-spacing: .08em;
      }

      .cls-11 {
        fill: #ed1d24;
      }

      .cls-12 {
        letter-spacing: .04em;
      }

      .cls-13 {
        clip-path: url(#clippath);
      }

      .cls-14 {
        letter-spacing: .1em;
      }

      .cls-15 {
        fill: none;
      }

      .cls-16 {
        letter-spacing: -.05em;
      }

      .cls-17 {
        letter-spacing: .05em;
      }

      .cls-18 {
        letter-spacing: -.05em;
      }

      .cls-19 {
        letter-spacing: .06em;
      }

      .cls-20 {
        fill: #58595b;
      }
    </style>
    <clipPath id="clippath">
      <rect class="cls-15" width="800" height="800"/>
    </clipPath>
  </defs>
  <g id="Layer_1-2" data-name="Layer 1">
    <g class="cls-13">
      <g>
        <polygon class="cls-20" points="657.42 366.08 654.63 363.79 652.98 361.57 651.01 360.43 648.53 361.25 647.89 364.62 647.89 368.3 647.89 371.04 648.21 375.04 648.91 376.69 651.83 375.86 653.42 372.43 654.25 370.72 657.1 370.27 658.69 368.3 657.42 366.08"/>
        <polygon class="cls-20" points="642.18 402.36 646.62 402.48 649.86 401.98 650.62 399.69 650.05 395.94 646.88 395.75 644.34 395.75 643.95 393.02 643.19 388.19 644.02 385.2 643.13 382.66 640.08 381.2 637.73 384.06 636.78 392.76 634.17 396.77 630.17 400.01 625.53 406.61 620.96 411.06 617.46 413.79 614.54 417.48 609.52 422.69 605.39 424.15 600.31 430.94 596.24 435.65 593.64 438.19 591.99 441.3 592.24 443.78 593.7 447.14 595.16 447.97 598.15 446.32 599.93 441.55 603.74 437.93 609.2 434.44 621.66 424.53 623.43 417.73 626.1 413.22 632.01 408.84 638.68 405.6 642.18 402.36"/>
        <polygon class="cls-20" points="654.32 328.16 651.28 328.16 651.81 331.63 654.65 333.77 657.03 335.09 658.01 332.91 657.55 331.2 657.55 329.02 654.32 328.16"/>
        <polygon class="cls-20" points="653.15 512.31 654.29 510.54 656.77 510.11 657.48 508.91 656.84 506.35 655.28 505.21 653.15 504.22 649.6 506.92 647.76 508.41 646.41 510.61 646.41 512.31 649.78 512.31 653.15 512.31"/>
        <polygon class="cls-20" points="650.05 379.42 647.89 377.33 646.75 377.33 645.99 378.02 645.29 379.1 645.29 381.2 646.3 381.52 649.16 381.01 650.05 379.42"/>
        <polygon class="cls-20" points="691.6 331.02 693.08 332.91 695.91 335.63 698.22 338.82 701.82 342.95 704.89 343.49 706.37 342.72 706.9 339.29 706.07 336.04 705.13 333.98 703 332.26 703.59 330.79 705.25 330.55 708.61 332.62 710.15 335.57 712.51 337.93 715.17 340.35 718.54 344.67 720.43 347.8 723.44 350.22 727.1 350.69 728.64 352.52 730.29 354.3 731.05 355.63 733.21 356.01 735.33 354.87 736.88 353.59 736.36 350.67 735.83 346.84 735.23 344.13 731.34 342.35 727.97 340.17 727.58 337.07 728.5 333.57 730.15 331.86 729.29 328.49 726.06 327.17 722.83 325.85 721.57 325.12 719.13 326.51 717.22 329.15 715.43 329.28 713.52 326.84 712.79 324.33 710.42 321.49 709.43 318.59 704.81 318.59 699.26 318.92 695.9 321.56 691.54 322.75 687.58 320.83 686.66 317.47 683.82 312.98 684.35 309.88 682.04 305.19 679.99 298.66 682.63 291.86 684.68 286.58 691.54 283.22 697.28 281.37 698.01 277.61 699.59 274.83 702.23 271.07 702.04 266.72 704.28 262.82 702.76 257.67 699.99 254.24 695.9 249.69 696.76 242.03 698.87 240.71 698.93 237.48 697.75 230.94 695.91 228.77 691.43 232.37 689.12 233.2 685.16 231.31 681.74 229.18 678.55 228.48 677.37 226.94 673.29 227.29 670.28 229.18 661.65 229.77 660.65 233.5 659.53 251.81 659.53 260.79 659.53 266.04 658.4 272.19 657.7 280.81 656.4 281.58 653.09 279.87 650.61 278.15 649.19 275.85 646.59 275.73 644.76 277.33 645.76 283.77 647.3 288.31 647.65 293.81 649.31 299.42 650.9 302.73 652.03 305.27 651.67 308.81 653.92 311.65 656.46 315.31 659.88 317.67 663.13 317.02 663.66 313.01 665.43 311.47 667.74 312.3 668.51 314.9 665.55 317.67 662.36 320.27 660.95 325.76 662.66 329.01 665.79 330.43 669.63 330.96 671.05 332.5 674 335.87 677.9 335.87 680.67 335.16 683.16 332.2 684.93 330.9 691.6 331.02"/>
        <polygon class="cls-20" points="687.29 223.99 689 225.82 691.48 225.4 692.08 224.34 693.14 222.39 693.14 220.26 691.54 218.55 688.18 218.55 687.29 221.56 687.29 223.99"/>
        <polygon class="cls-20" points="691.41 303.34 688.84 303.34 687.38 304.73 686.99 307.7 688.11 310.34 689.43 311.79 691.21 314.3 693.19 313.11 694.84 311.46 694.05 307.04 693.46 304.47 691.41 303.34"/>
        <polygon class="cls-20" points="732.13 333.7 734.24 336.34 736.88 337.2 739.72 336.94 742.03 334.76 743.15 332.58 743.75 329.35 742.3 327.3 739.92 326.05 738.07 324.4 734.97 324.4 734.05 325.19 734.71 326.77 733.91 330.54 732.13 333.7"/>
        <polygon class="cls-20" points="740.41 105.35 740.41 102.68 739.48 99.48 735.88 98.68 734.01 99.21 734.01 102.41 738.15 106.15 740.41 105.35"/>
        <polygon class="cls-20" points="678.61 210.1 677.37 211.29 677.37 213 679.08 214.59 681.89 215.48 684.22 215.48 685.16 213.53 685.16 210.87 682.56 208.92 680.79 209.22 678.61 210.1"/>
        <polygon class="cls-20" points="588.78 466.08 587.86 468.05 588.78 469.7 591.54 470.14 593.51 468.49 594.85 467.03 596.18 465.82 594.65 464.3 593.26 462.96 590.46 465.25 588.78 466.08"/>
        <polygon class="cls-20" points="287.98 367.71 286.65 365.93 286.4 365.14 284.47 364.23 282.83 365.62 282.23 367.38 284.32 369.32 284.89 370.71 286.83 371.19 288.52 370.1 287.98 367.71"/>
        <polygon class="cls-20" points="291.61 377.49 293.12 376.4 292.46 374.46 291.61 372.89 289.43 374.34 288.22 374.76 288.22 376.7 288.95 377.79 291.61 377.49"/>
        <polygon class="cls-20" points="437.84 238.31 440.2 235.19 446.17 233.2 449.58 229.89 454.59 227.14 456.87 221.55 459.14 216.54 460.18 211.61 466.71 207.45 465.58 202.24 461.51 198.93 456.68 195.71 451.28 196.27 446.17 198.07 437.36 198.83 428.75 200.72 424.96 203.09 420.98 207.54 417.48 210.29 414.73 212.84 414.73 226.76 415.21 231.02 420.51 234.05 424.58 234.15 427.99 236.7 432.06 238.31 437.84 238.31"/>
        <polygon class="cls-20" points="324.64 560.93 325.93 561.23 326.47 560.09 326.47 558.33 325.25 556.96 325.55 555.2 322.8 554.51 321.74 555.28 322.19 557.03 321.74 558.79 324.64 560.93"/>
        <polygon class="cls-20" points="237.19 417.16 235.85 418.82 235.85 420.64 237.19 421.58 238.85 422.06 240.35 422.06 241.54 420.56 241.54 418.5 240.12 417.16 238.69 417.16 237.19 417.16"/>
        <polygon class="cls-20" points="549.55 523.81 549.91 524.61 550.71 525.21 552.64 524.93 553.13 523.71 553.13 521.84 552.65 518.48 551.55 516.2 551.1 513.43 550.37 513.49 550.37 515.96 550.86 518.33 549.77 522.22 549.55 523.81"/>
        <path class="cls-20" d="M728.6,360.3l.95-1.43,.47-1.67-1.58-1.19-2.38-1.78h-1.48l-.43,1.78s.17,2,.35,2.17,1.9,1.16,1.9,1.16l2.21,.96Z"/>
        <polygon class="cls-20" points="452.98 192.39 451.19 191.07 447.4 191.07 447.4 192.77 450.19 195.14 451.94 193.91 452.98 192.39"/>
        <polygon class="cls-20" points="506.82 164.17 506.38 161.94 503.78 161.07 501.36 161.51 500.06 163.77 500.74 165.97 504.83 166.47 506.82 164.17"/>
        <polygon class="cls-20" points="543.11 517.88 543.65 516.4 542.83 513.88 541.44 514.94 538.45 516.99 534.71 517.99 529.61 521.69 532.61 524.69 533.64 526.46 535.93 528.77 537.22 530.95 539.18 531.21 540.48 531.21 542.13 529.59 542.64 527.87 542.44 525.49 541.39 523.14 542.31 519.56 543.11 517.88"/>
        <polygon class="cls-20" points="717.71 408.94 720.54 404.28 722.46 400.35 723.47 396.51 724.15 393.4 722.74 390.84 719.54 389.47 717.89 388.01 712.86 390.2 711.04 393.22 709.48 399.7 708.64 404.92 708.64 407.72 706.37 408.67 702.08 409.86 700.25 410.68 698.51 413.24 698.88 416.77 700.62 418.54 704.55 421.74 708.2 424.48 710.67 426.49 711.41 428.78 714.31 429.87 717.07 428.5 718.9 426.13 717.71 421.65 715.88 416.77 717.07 412.24 717.71 408.94"/>
        <polygon class="cls-20" points="730.78 405.77 734.07 402.36 734.62 398.38 734.16 394.77 734.62 391.39 733.34 389.65 731.51 389.65 730.02 394.95 727.49 399.7 723.74 405.28 721.11 408.94 719.26 413.69 719.26 417.26 720 418.91 722.01 418.91 725.04 416.77 726.03 412.24 728.86 408.94 730.78 405.77"/>
        <polygon class="cls-20" points="314.76 396.04 313.43 395.01 312.77 395.01 311.49 395.32 311.03 395.99 311.03 397.62 312.82 399.46 314.91 399.71 315.83 399 316.24 397.98 315.58 396.9 314.76 396.04"/>
        <polygon class="cls-20" points="721.46 427.41 721.92 429.51 724.15 430.42 726.94 429.87 726.94 426.4 726.21 424.3 724.15 425.94 721.46 427.41"/>
        <polygon class="cls-20" points="756.35 411.15 762.65 411.15 759.67 404.86 761.16 400.28 758.18 394.09 755.66 390.77 754.52 386.19 752.11 382.76 750.85 379.78 747.88 380.69 745.7 376.92 744.1 373.37 739.86 374.63 740.66 381.84 740.66 387.57 741.81 390.2 746.27 392.26 747.19 395.81 746.85 400.85 747.99 406.92 750.85 410.58 756.35 411.15"/>
        <polygon class="cls-20" points="746.84 425.68 745.53 426.62 746.15 427.93 746.84 430.42 749.32 431.22 750.48 429.87 750.48 428.11 749.27 426.43 748.17 425.28 746.84 425.68"/>
        <path class="cls-20" d="M722.29,357.79l-3.03-1.43-1.9,1.04,.65,2.37-2.44,2.64-1.25,4.29,1.91,3.37,4.03-1.32,1.65-2.64,2.57-.4,2.64,1.91,3.63,3.56,3.43,2.18,1.58-2.05-.86-2.11-1.06-2.57-2.77-2.57-1.44-.04-2.21-.48s-1.77-1.38-1.9-1.51c-.13-.13-1.64-2.38-1.77-2.46-.13-.09-1.47-1.77-1.47-1.77Z"/>
        <polygon class="cls-20" points="767.11 399.7 765.97 399.7 763.22 404.97 764.59 407.83 764.59 410.12 767.23 411.84 769.75 411.15 768.37 405.31 769.75 401.88 767.11 399.7"/>
        <polygon class="cls-20" points="695.5 365.32 695.5 362.55 695.96 358.12 696.29 354.76 693.46 353.37 690.49 357 689.03 360.1 689.03 364.39 690.82 365.32 695.5 365.32"/>
        <polygon class="cls-20" points="707.65 362.41 708.64 360.7 707.25 358.65 705.73 356.21 704.21 356.41 700.91 356.01 700.12 357 699.73 359.21 701.84 361.09 704.78 362.41 707.65 362.41"/>
        <polygon class="cls-20" points="695.31 399.7 698.24 397.7 700.98 396.23 704.18 394.95 707.11 392.26 709.12 390.29 712.04 388.37 716.26 384.81 717.07 381.33 716.26 377.59 713.32 377.13 711.41 375.48 708.64 375.48 703.72 375.48 702.99 374.11 698.24 371.92 696.29 374.2 693.76 376.86 693.94 380.42 692.66 383.71 692.66 388.28 690.82 393.77 690.82 399.34 693.21 401.45 695.31 399.7"/>
        <polygon class="cls-20" points="692.93 344.73 695.24 342.02 695.96 339.78 695.37 337.47 692.33 336.61 688.04 337.2 686.99 339.38 688.04 341.03 689.89 343.93 692.93 344.73"/>
        <polygon class="cls-20" points="773.87 411.84 772.95 414.13 773.76 416.77 776.62 416.77 777.99 414.13 777.37 409.03 775.93 407.72 773.87 411.84"/>
        <polygon class="cls-20" points="785.71 534.13 787.43 536.97 790.01 538.08 790.61 537.05 791.9 534.31 792.75 532.07 794.04 530.61 795.5 528.55 795.5 526.23 794.21 524.51 791.98 523.4 791.98 521.77 790.01 520.74 789.15 521.42 788.08 522.2 786.74 523.66 786.74 525.89 787.69 527.52 788.08 530.44 787.26 532.5 785.71 534.13"/>
        <polygon class="cls-20" points="587.35 449.3 585.89 451.21 585.57 454.7 586.65 456.04 588.02 456.55 590.46 455.85 591.41 453.82 591.99 450.89 590.46 448.48 587.35 449.3"/>
        <polygon class="cls-20" points="318.84 407.75 320.84 409.5 322.72 408.96 323.87 408.11 323.44 404.84 322.53 402.97 321.32 401.45 319.57 400.85 318.26 399.98 316.7 400.84 316.24 401.88 317.45 404.24 318.84 407.75"/>
        <polygon class="cls-20" points="756.81 787.82 758.81 784.72 756.31 782.92 755.11 780.72 748.81 780.72 744.11 782.06 742.31 785.42 740.91 787.82 748.01 787.82 756.81 787.82"/>
        <polygon class="cls-20" points="760.3 652.62 758.51 651.31 754.99 649.23 750.02 647.58 745.67 647.44 740.56 647.71 740.35 650.06 739.25 651.24 738.7 653.38 740.56 654.76 745.88 655.37 751.54 654.48 757.44 655.79 760.3 654.55 760.3 652.62"/>
        <polygon class="cls-20" points="738.6 786.55 740.1 784.27 738.5 782.72 737.1 783.63 734.95 784.82 731.9 784.92 729.8 786.55 731.8 789.02 734.5 790.52 736.9 789.72 738.6 786.55"/>
        <polygon class="cls-20" points="680.06 490.88 677.64 490.88 676.01 489.28 673.31 488.68 671.32 489.88 670.33 490.8 669.12 490.73 667.7 493.36 668.27 495.7 672.03 495.35 676.36 495.13 680.34 495.7 681.4 494.92 680.98 492.44 680.06 490.88"/>
        <polygon class="cls-20" points="421.36 558.79 423.04 557.03 423.04 553.67 421.89 552.22 419.99 553.22 418.23 554.67 418.23 556.5 419.6 557.64 421.36 558.79"/>
        <polygon class="cls-20" points="601.29 542.62 600.07 543.84 598.9 544.29 598.4 545.66 598.95 547.18 600.07 548.04 601.79 548.04 603.67 547.23 602.96 544.24 603.67 542.82 601.29 542.62"/>
        <polygon class="cls-20" points="683.69 351.33 682.96 346.38 682.1 342.75 680.19 341.36 677.62 340.04 674.25 339.45 671.68 337.73 668.44 336.61 664.09 336.28 659.07 335.09 658.74 336.61 656.76 336.61 655.71 338.26 657.42 340.3 659.86 344.2 664.42 346.9 664.81 351.13 665.01 353.5 668.31 356.74 670.88 359.71 674.18 363.73 677.15 364.06 679.53 362.48 681.31 358.45 683.69 356.01 683.69 351.33"/>
        <polygon class="cls-20" points="763.51 783.72 763.51 785.82 765.31 786.55 767.11 784.92 769.02 783.02 767.11 780.72 765.61 781.62 763.51 783.72"/>
        <polygon class="cls-20" points="770.73 658.42 770.8 661.66 772.25 664.98 775.63 666.22 776.74 664.28 776.46 660.9 775.7 658.49 776.25 656.76 779.15 655.79 781.64 654.14 781.29 652 777.08 652 766.73 651.62 763.83 651.62 762.79 653.51 764.72 655.79 770.25 656.41 770.73 658.42"/>
        <polygon class="cls-20" points="423.41 650.61 423.41 648.84 423.41 646.88 422.23 645.57 420.37 645.57 419.29 645.57 418.8 647.67 420.37 650.61 423.41 650.61"/>
        <path class="cls-20" d="M732.44,474.01l-.8,3.34,.89,4.51,2.21,3.67,2.73,2.68,3.15,2.54,2.63,1.65,4.04,1.83,2.91,1.5h4.04l2.77-.33,1.27,1.79,1.6,1.55h5.03l2.23-1.56,1.03-1.47v-7.67l-1.57-2.61-2.56-3.49-1.28-2.75,.98-3.19,.74-3.1,2.06-1.38,2.21,1.57,3.24,1.62,1.67-.74,7.31,.75,1.98-1.24,1.87-2.85,3.24-2.9-1.28-3.15-.25-6.54-1.67-5.26-1.62-3.69-1.18-3.69-1.08-5.26-.59-3.34,1.08-3.49-1.03-4.23-2.02-3-5.11-2.85-2.56-3.74-2.36-1.62-1.38-.74-.93-1.57-2.28-.49-.61,6.25-.19,3.95-.38,3.19-3.1,.52-2.26,1.46-1.17,1.5h-3.71l-3.52,.7v3.48l-.88,2.4-3.96-.42-3.2,1.93-2.91,3.34-2.35,1.64-3.38-.8-1.6-2.82-1.5-2.07-2.68-3.2-2.28-1.64-2.05,1.74-2.16,2.35-3.81,3.76-3.52,.89-2.3,2.91-2.68,2.16-3.95,1.74-4.61-.75-3.1,1.5-2.77,3.43-.47,5.54-2.68,4.32v5.97l1.74,1.41h2.58l3.48-1.74,1.79-2.35,1.79-4.14,1.5-3.29,2.11-1.17,1.36,1.5,.47,2.68,.61,2.4,3.29,.89,2.16-1.36,.7-3.1,1.64-.47,2.4,1.5,2.02,.14,2.4-.89,1.36-3.57,1.41-1.27,2.82,.8s1.55,.61,1.69,.66c.14,.05,3.81,.94,3.81,.94l2.91,2.73,.28,2.54-3.34,4.28-.61,4.84Z"/>
        <polygon class="cls-20" points="204.53 448.94 202.93 448.51 201.27 448.94 201.63 451.55 201.27 454.52 201.99 457.06 203.88 457.06 205.18 455.54 204.82 452.78 205.62 451.11 204.53 448.94"/>
        <path class="cls-20" d="M200.99,376.3l-1.9,1.11v2.45l1.9,.63,2.88-2.77h2.25l1.9-1.42-.55-3.95-1.34-2.29-2.25,1.34s-1.54,1.03-1.62,1.26c-.08,.24-.63,2.37-.63,2.37l-.63,1.26Z"/>
        <path class="cls-20" d="M231.58,480.67c0-.17-.46-1.88-.51-2.05-.06-.17-1.31-1.26-1.31-1.26l-1.26,.91-.97,1.31-.63,2.17,1.83,.86,1.03,2.8,1.77,1.77h2.68s.74-.97,.74-1.14,.51-1.65,.51-1.65l-1.48-1.08-2.17-.63s-.23-1.83-.23-2Z"/>
        <path class="cls-20" d="M202.65,361.76l.4,.63h1.9l1.19-.79v-4.47l-.71-3.83-1.58-1.42-1.5,1.42s-.71,2.21-.71,2.53,.63,3.48,.79,3.95c.16,.47,.24,1.98,.24,1.98Z"/>
        <path class="cls-20" d="M202.81,410.44v-3.16h-3.16s.24,2.37,0,2.61c-.24,.24-.55,2.21-.55,2.21h1.9l1.82-1.66Z"/>
        <path class="cls-20" d="M199.59,394.87l2.04,.79,1.5-.71,.75-3.16-1.54-1.9-.32-1.19h-2.13c-.4,0-2.13,1.26-2.13,1.26l-.59,1.74,1.94,1.66,.49,1.5Z"/>
        <path class="cls-20" d="M236.61,480.91l.97-.72,2.2-2.39h3.75l1.83,1.31,1.75,.02,3.67,.66,2.41,3.59,4.64,.94,3.24,3.94v4.75l-.94,2.64,1.12,1.23,.26-.17,2.36-4.9,7.64,1.32,2.27,1.34,2.21-.94,2.04-3.1,4.48-4.37-11.97-10.19-5.02-4.09-7.81-.37-5.02-3.25-5.2-1.49-.84-2.33,2.41-2.7-.19-10.05-2.51-4.37-1.02-4.65-5.12-4.55-1.39-3.63-.94-3.16-.74-6.88-4-.94-9.95-.09-.29-22.51,2.51-4.84,3.07-6.41,3.71-10.42,4.28-7.44,2.7-7.35,.18-22.41,5.31-2.61h10.5l2.24,4.29-.93,5.11,2.14,8,10.32-1.21,7.06,.94,7.26,4.55,8.09,4.94,.77,.78,2.98-5.15-1.51-2.49-5.45-3,1.1-4.28-2.13-4.78-3.09-2.47v-8.84l5.61-2.23,1.48-3.69,4.64-6.02,4.54-2.69,5.19-3.68,6.8-1.61,6.67,2.44,13.96-2.57,10.4,1.74,1.18,1.29,3.82-3.63,2.34-1.89-.43-5.56-1.27-7.17,2.59-4.15,1.18-3.54-3.1-4.33-3.93-3-5.26-4.29-4.87-5.91v-5.55l-2.25-6.75,2.17-5.32-1.19-3.98-2.95-2.57-7.05-4.74-3.17-7.2-3.84-3.52-7.76-1.51-3.45,2.23-6.1,7.82-7.52,2.78-7.89-5.7-2.16-1.41-7,2.65-7.13,7.84-6.25,3.9h-5.18l-.64-5.78,1.6-5.27,2.33-4.77-3.06-5.29,1.93-6.33,4.57-5.59-1.34-6.75v-5.66l-3.41,.98c-10.21,.49-10.61,.11-11.06-.33l-.42-.4v-.31c-.4-.63-1.86-2.47-3.12-3.96l-.62-.73,3.49-5.69-1.41-2.31-4.4-4.27h-4.12l-5.78,.91-4.72,3.88-3.79,.92-3.2,5.21-5.62,3.15h-15.05l-2.91,1.6-1.09,6.51-1.92,4.53,1.26,7.14-3.37,4.44-3.79,1.77,.25,1.51,4.86,4.73v4.73l.77,4.29,3.71,4.27,8.07,6.2,3.69,6.73,.7,7.33,3.67,2.33,3.39,4.22-1.69,4.03-3.56,3.57,.11,3.31-2.25,7.15-3.06,2.92-3.44,3,.53,4.38,2.11,5.28,4.41,5.53,11.84,11.59v16.07l1.36,6.3,4.16,4.74-.13,3.73,3.18,6.38v9.74l-3.92,3.8-3.32,5.84-7.8,10.57-5.96,2.95-.58,6.61-2.87,20.52-2.7,9.54,1.73,9.1,2.28,1.14,2.11,1.3,2.65,.28,2.96,2.25,4.22,6.03,9.46,11.48,4.55,5.23-.25,4.14,3.19,2.61,1,1.68Z"/>
        <polygon class="cls-20" points="198.86 360.02 195.78 360.02 193.33 360.73 193.33 362.39 195.62 363.65 196.61 365.31 197.6 366.42 200.99 366.42 200.99 363.22 199.89 361.44 198.86 360.02"/>
        <polygon class="cls-20" points="207.94 449.66 207.28 451.11 209.17 452.78 210.47 452.78 211.05 450.9 209.6 449.01 208.3 448.51 207.94 449.66"/>
        <polygon class="cls-20" points="361.48 670.87 364.25 672.62 366.29 675.25 370.28 676.71 373.1 677.2 376.9 677.2 377.68 675.74 377.68 673.69 376.8 671.94 376.8 669.41 375.63 667.47 373.2 665.52 370.28 663.67 368.14 661.63 366.29 658.52 365.9 654.04 363.28 650.73 360.65 647.52 358.31 645.57 352.38 646.06 351.11 648.3 347.32 651.9 344.98 653.36 343.72 654.43 344.11 657.15 347.32 657.54 352.77 658.32 356.46 659 359.68 663.67 359.58 667.37 361.48 670.87"/>
        <polygon class="cls-20" points="331.3 621.95 328.68 621.95 326.65 621.95 325.99 624.21 327.01 626.24 327.52 627.84 329.92 628.57 332.72 628.57 332.24 625.26 333.12 623.41 331.3 621.95"/>
        <polygon class="cls-20" points="358.53 557.03 359.75 556.12 359.75 553.75 358.61 552.68 357.08 550.93 355.63 550.93 354.1 551.54 353.34 551.99 354.26 553.98 355.33 555.81 358.53 557.03"/>
        <polygon class="cls-20" points="393.91 678.63 395.78 680.68 398.13 680.68 401.26 680.68 404.2 680.68 406.75 679.7 407.53 677.2 408.91 676.18 410.18 673.04 409.3 670.3 407.53 668.73 404.1 667.85 402.34 665.79 399.7 665.79 396.56 666.48 394.5 669.03 395.09 672.26 395.78 675.2 394.6 676.47 393.91 678.63"/>
        <polygon class="cls-20" points="412.12 539.93 413.19 536.88 412.35 534.13 411.59 531.69 409.45 529.7 406.63 527.18 404.79 527.18 404.03 528.79 403.57 531.08 402.05 532.91 400.9 535.81 402.81 537.57 405.48 539.09 406.63 540.85 409.91 541.61 411.13 539.93 412.12 539.93"/>
        <polygon class="cls-20" points="336.75 619.26 336.75 615.99 334.94 613.08 333.55 610.61 331.95 609.3 330.5 610.75 330.5 613.08 329.12 615.48 328.68 618.1 329.41 619.92 333.77 619.92 336.75 619.26"/>
        <path class="cls-20" d="M292.22,590.25c-.34-.23-2.5-3.07-2.5-3.07l-1.71-3.36-4.21-.74h-.91l1.59,3.87,2.05,3.53,1.93,3.94,5.12,3.11,4.78,1.3h3.07l1.69-3.46-2.71-2.96-5.46-1.46s-2.39-.48-2.73-.7Z"/>
        <path class="cls-20" d="M307.91,591.96h-1.82v4.21s-.11,2.36,0,2.66,1.59,3.03,1.59,3.03h2.84l.57-3.03-2.53-4.41-.66-2.46Z"/>
        <path class="cls-20" d="M270.37,572.65l-2.44,1.97,1.22,3.48s1.79,2.35,2.07,2.44c.28,.09,3.85,0,3.85,0l1.03-2.44-1.88-3.2-1.22-3.1-2.63,.85Z"/>
        <polygon class="cls-20" points="686.48 84.86 682.47 82.45 676.84 85.06 670.01 89.68 665.39 99.12 656.96 110.37 652.14 117.8 653.95 135.27 660.77 147.12 667.6 156.56 680.06 123.83 690.1 87.87 686.68 87.67 686.48 84.86"/>
        <polygon class="cls-20" points="717.27 713.39 717.65 710.93 716.98 708.32 716.49 705.81 712.19 705.81 711.08 709.77 709.99 713.16 709.58 715.79 708.86 717.69 708.43 719.67 709.01 721.48 708.43 722.56 707.41 724.36 707.03 726.34 708.86 728.85 711.04 727.98 713.55 727.55 715.96 725.52 716.4 721.99 713.84 719.24 713.74 716.68 715.53 714.75 717.27 713.39"/>
        <path class="cls-20" d="M718.14,700.4l-.77-2.08-.87-1.35-1.3-1.01-2.46,.73-.34,1.55,.58,1.84s.43,1.35,.53,1.5,2.22,.68,2.22,.68l1.93-.29,.48-1.55Z"/>
        <polygon class="cls-20" points="705.54 706.2 710.07 705.54 710.98 704.31 710.89 699.86 708.26 698.05 703.81 694.67 698.29 690.71 696.89 686.02 698.78 682.06 698.12 673.17 695.4 668.63 689.73 666.16 685.02 661.55 685.27 659.24 681.4 656.44 679.5 653.97 681.73 651.5 685.85 650.18 688.9 648.61 693.84 648.78 697.38 649.27 701.09 646.72 702.41 643.51 705.46 638.32 708.42 635.76 711.64 634.77 715.75 635.43 719.38 635.19 720.2 629.17 716.5 627.52 712.62 626.45 706.77 628.59 701.34 629.34 698.78 631.23 693.92 632.71 690.54 633.54 686.51 631.56 684.04 631.15 681.65 634.28 678.43 638.15 674.07 642.02 669.21 642.68 663.77 640.29 660.8 638.56 657.26 635.27 653.3 627.77 651.16 622.09 653.14 618.79 654.29 613.43 657.34 610.06 660.23 605.44 666.57 604.29 676.04 604.45 685.85 605.69 692.11 604.04 698.95 605.36 707.6 605.28 715.34 606.76 720.53 607.83 726.47 607.91 740.14 606.68 743.19 603.8 748.3 599.26 751.1 595.06 754.72 590.28 757.44 586.91 756.45 582.7 754.39 580.73 751.61 579.74 746.38 584.46 742.94 589.1 734.95 595.46 727.65 596.92 709.53 596.14 702.92 593.91 686.08 592.45 681.1 591.94 677.67 589.53 672.94 587.38 669.25 588.33 666.24 593.31 663.32 597.43 659.8 599.24 653.02 599.84 645.11 608.77 646.32 616.76 645.89 624.39 644.74 629.91 640.62 634.11 637.24 643.67 635.29 649.36 634.68 655.78 632.46 660.56 630.15 665.67 628.26 669.38 627.85 679.02 627.85 685.61 629.49 687.5 632.87 687.17 635.84 687.09 638.39 688.41 638.89 692.36 640.45 694.67 642.18 698.87 643.34 706.95 642.02 710.57 639.96 715.35 639.71 719.55 638.97 724.66 639.38 727.62 640.62 729.35 643.01 730.1 647.62 731 652.32 730.26 655.78 730.1 658.33 731 660.47 730.51 661.63 727.79 659.57 722.43 657.42 717.82 659.07 712.71 660.06 707.69 659.32 695.91 661.13 688.9 659.73 681.73 657.75 678.77 658.58 674.07 661.71 672.18 665.25 671.11 669.12 671.77 671.27 674.4 669.45 679.59 668.05 685.28 669.12 687.83 671.43 690.8 674.73 693.02 678.1 695.58 682.39 698.71 682.22 702.25 681.56 705.71 681.15 710.24 682.22 713.54 685.68 714.69 693.26 713.45 695.24 709.66 697.14 707.44 702.74 705.79 705.54 706.2"/>
        <polygon class="cls-20" points="664.08 760.51 665.48 762.07 666.34 761.64 666.98 760.67 666.61 759.43 665.85 758.41 665.1 757.39 664.61 757.66 663.49 758.41 664.08 760.51"/>
        <polygon class="cls-20" points="691.42 719.63 690.6 717.33 688.09 719.43 686.73 721.22 687.51 723.68 689.34 725.81 690.6 727.79 692.64 727.79 693.06 726.2 692.64 723.64 692.05 721.75 692.64 720.25 691.42 719.63"/>
        <polygon class="cls-20" points="660.31 747.06 661.9 748.51 662.57 747.92 662.19 745.98 662.57 743.83 661.66 742.43 659.99 742.75 659.45 744.31 660.31 747.06"/>
        <path class="cls-20" d="M702.82,726.34l2.15-2.73,.08-1.56v-1.22l1.07-1.83,.99-1.68-.58-2.03v-1.9l.88-1.75-2.13-1.01-3.29,.19-1.5,1.21s-1.45,1.84-1.5,1.98c-.05,.15-1.21,3.24-1.21,3.24v5.94l.43,2.32,2.75,.19,1.84,.63Z"/>
        <polygon class="cls-20" points="720.78 647.13 723.58 646.64 724.65 645.24 723.99 643.09 723.58 641.12 721.6 639.22 719.63 638.98 717.4 640.54 715.92 639.47 713.12 638.65 710.23 638.98 708.5 639.55 708.67 641.86 708.75 644.33 707.52 645.57 707.52 648.04 712.46 648.04 713.04 646.47 715.26 645.81 716.08 647.13 718.56 647.13 720.78 647.13"/>
        <polygon class="cls-20" points="716.23 345.58 713.19 343.54 711.41 344 711.41 347.23 713.98 351.26 718.34 354.56 719.22 354.56 721.11 353.9 719.92 351 716.23 345.58"/>
        <polygon class="cls-20" points="724.51 726 725.53 726.39 726.69 726.2 727.37 724.8 726.98 723.1 725.92 721.9 725.92 720.83 723.69 720.83 722.29 721.61 722.29 722.33 723.11 723.93 724.51 726"/>
        <polygon class="cls-20" points="685.77 622.25 684.78 623.73 683.71 624.48 683.71 627.11 686.92 628.43 689.47 627.77 691.37 626.04 690.96 623.9 688.48 622.25 685.77 622.25"/>
        <polygon class="cls-20" points="662.73 734.69 661.17 733.5 659.72 734.79 659.72 736.46 659.72 738.72 661.17 739.8 662.3 740.33 663.59 739.63 664.08 737.7 663.38 736.35 662.73 734.69"/>
        <polygon class="cls-20" points="596.68 632.18 600.55 630.3 600.33 625.99 599.12 620.9 598.34 614.93 599.12 609.95 601.33 605.96 605.53 598.33 608.07 595.68 611.62 595.24 614.83 597.34 621.57 597.34 624.45 596.12 626.66 593.69 627.77 591.03 625.77 589.48 621.79 586.5 618.91 584.17 615.05 581.64 612.72 580.42 609.35 578.87 607.19 576.54 607.3 573.11 610.07 570.68 611.17 566.26 609.35 563.61 605.09 559.07 602.66 556.3 599.67 554.42 596.47 549.99 593.26 548.11 592.81 543.91 593.37 541.7 595.35 540.37 599.12 540.37 600.33 539.15 599.89 534.62 601.71 533.15 597.77 529.54 592.96 528.5 584.17 527.29 576.55 528.52 568.22 528.52 563.41 530.3 560.04 532.94 560.04 546.67 557.85 551.88 552.17 554.91 550.8 558.89 552.1 565.89 545.05 569.79 545.05 576.37 539.1 580.44 539.1 587.72 525.01 587.72 519.2 590.86 509.08 589.3 502.35 583.25 494.02 584.32 487.85 588.96 484.02 595.08 464.27 595.08 460.37 598.53 453.73 600.28 445.18 593.97 440.66 587.33 435.07 583.24 435.07 578.61 434.29 572.82 432.23 573.75 430.48 577.85 426.03 579.95 423.11 583.75 421.6 586.85 421.6 591.41 419.96 593.98 419.6 602.29 420.83 607.08 422.59 610.29 425.16 612.69 426.15 615.02 425.39 618.06 424.57 621.52 425.78 625.99 426.67 629.53 425.78 632.4 430.88 634.84 434.19 635.94 433.64 638.16 432.42 642.14 434.09 643.57 437.52 642.02 440.5 639.49 442.6 640.14 444.48 643.13 444.48 648.78 445.03 651.65 446.25 654.75 446.69 658.73 448.69 661.93 449.35 666.36 448.69 671.34 452.67 674.77 456.65 677.09 463.39 678.41 467.38 678.19 471.69 676.98 474.79 675.54 478.55 674.33 480.98 675.98 481.75 679.64 480.98 682.62 481.98 686.6 484.75 688.15 487.18 685.83 491.71 684.94 494.92 684.06 499.01 683.29 502.88 681.18 505.65 678.75 508.97 678.19 513.06 679.08 515.16 680.85 517.71 683.84 520.8 685.5 523.79 685.83 527 684.39 530.87 684.06 534.41 685.39 538.06 688.04 539.5 693.35 539.5 698.22 541.82 700.77 545.03 698.88 552.1 695.79 563.06 690.03 566.7 687.27 569.25 682.29 571.13 679.86 573.23 675.88 576.99 666.03 579.21 661.93 578.32 658.95 576.99 655.52 575.89 651.32 577.88 646.9 583.41 641.47 590.93 635.61 596.68 632.18"/>
        <polygon class="cls-20" points="598.96 782.32 597.15 784.17 598.15 785.42 600.16 787.22 602.96 786.72 604.16 785.42 604.16 783.27 604.16 781.12 601.76 781.12 600.66 783.27 598.96 782.32"/>
        <path class="cls-20" d="M578.55,784.17l-1.8-.9-8.9,4.55v3.1s.6,1.9,.4,2.2-3.2,1.7-3.2,1.7l-.6,2.3,2.2,.9h3l1.5,.9h4.9l3.6-1.9,2-2.4,.8-2.9,.4-3.9-.6-1.9-3.7-1.75Z"/>
        <polygon class="cls-20" points="633.67 794.32 632.97 790.47 631.67 788.12 629.37 786.72 627.97 785.02 626.06 784.82 616.56 783.92 612.96 781.42 610.26 780.32 606.16 782.32 606.16 784.82 607.86 786.12 610.26 787.72 611.16 788.82 611.36 791.27 609.86 792.22 605.66 792.22 602.56 789.82 597.45 788.72 595.75 787.92 594.35 786.72 593.35 785.42 591.65 786.27 589.85 786.72 588.55 788.52 585.85 790.27 584.55 792.22 584.55 795.82 584.55 798.83 586.95 800.63 591.05 799.83 596.85 798.92 602.86 799.83 604.56 799.23 613.46 797.72 617.76 796.62 625.46 796.52 629.97 795.82 633.67 794.32"/>
        <polygon class="cls-20" points="559.7 758.77 560.34 757.05 559.06 754.48 558.29 754.48 556.24 752.66 553.37 754.59 552.62 755.87 553.27 757.48 555.52 758.77 559.7 758.77"/>
        <polygon class="cls-20" points="634.27 784.92 633.67 783.27 631.97 781.12 630.57 782.32 630.57 784.32 632.37 785.42 634.27 784.92"/>
        <polygon class="cls-20" points="680.68 789.77 675.68 787.72 672.58 784.27 668.68 784.27 665.23 783.63 662.57 782.32 659.45 783.63 656.18 785.22 651.87 786.42 649.47 787.82 647.17 790.92 646.07 793.62 647.77 794.92 657.28 794.92 660.28 795.52 665.23 796.12 670.08 796.12 674.18 797.22 681.58 797.22 686.69 798.22 690.29 796.72 693.69 795.22 694.09 791.62 694.09 790.52 687.49 789.02 680.68 789.77"/>
        <polygon class="cls-20" points="641.07 795.82 642.17 794.22 642.87 791.27 642.87 788.22 640.17 786.72 639.07 788.62 637.67 790.92 637.67 793.02 638.92 794.92 641.07 795.82"/>
        <path class="cls-20" d="M753.39,805.03l-1.48-1.99,.62-2.92v-1.69l-.33-.28-.6,1.18-5.98,2.55-.04,3.47c-.12,.52-.43,1.76-.69,2.28-.16,.31-.4,.79-3.63,2.61l-2.17,1.48-5.32-.8-2.17-2.68-6.1,3.9,.9,4.3-1.3,4,1,1.91,.61,3.6,3.3,.5h5.1l5-2.4,4.01,.2,5.5-3,3.1-5.5,2.8-3.88-2.11-2.64v-4.19Z"/>
        <polygon class="cls-20" points="722 782.72 718.4 784.27 716.5 786.55 715.2 787.82 713.2 789.82 713.2 790.92 717.2 790.52 721.35 789.82 725.1 788.22 727.8 783.22 722 782.72"/>
        <polygon class="cls-20" points="797.12 784.42 796.22 783.63 791.12 786.12 788.72 787.92 783.92 789.12 765.02 789.12 761.71 790.82 755.91 790.82 753.45 795.7 755.21 797.17 755.18 800.54 754.78 802.42 756.06 804.14 756.06 808.28 757.45 810.02 761.41 807.53 767.01 803.92 775.41 801.22 781.02 799.73 787.72 795.62 792.53 792.23 796.22 791.33 800.73 790.52 797.22 786.55 797.12 784.42"/>
        <polygon class="cls-20" points="558.04 782.32 557.44 780.32 543.44 781.12 540.83 782.52 538.73 783.27 538.73 785.42 541.23 787.22 543.24 788.92 544.94 791.1 547.04 793.62 549.74 793.62 554.74 792.22 555.84 791.1 557.84 789.92 560.14 789.22 561.44 787.72 559.34 784.17 558.04 782.32"/>
        <path class="cls-20" d="M709.09,787.82l3-2,2.3-2.19-1.2-2.41-2.4,.5-3.6,2.55-2.9,3.05-1.9,2s-1.9,.4-2.2,.7c-.3,.3-1.8,2.7-1.8,2.7v.9l4,.6,3.2-1,2.8-2.7,.7-2.7Z"/>
        <polygon class="cls-20" points="63.98 24.47 61.95 22.9 57.27 21.67 50.7 23.01 48.84 20.72 46.14 20.94 39.51 20.64 35.01 16.57 30.25 15.66 27.58 18.23 24.24 21.28 18.38 26.19 15.15 30.49 11.85 34.98 10.05 34.4 10.2 39.77 7.86 41.12 8.45 43.8 12.1 44.8 14.19 47.31 22.63 47.86 24.73 49.69 30.71 48.91 33.92 49.62 36.67 46.62 41.14 45.12 42.23 48.24 56.97 48.24 60.97 46.16 64.33 47.54 68.06 47.54 72.39 45.54 72.42 42.3 73.07 38.57 70.87 36.44 67.32 34.6 62.49 32.36 63.98 26.75 63.98 24.47"/>
        <path class="cls-20" d="M55.38,144.39l-1.67-1.55-2.39-.3-2.57-1.25-1.07,2.75,1.49,1.55,1.37,1.25,.42,2.09,1.58,3.28,2,.72,1.43-1.07s.36-2.27,.36-2.45-.6-2.33-.6-2.33l-.36-2.69Z"/>
        <path class="cls-20" d="M-5.36,54.06l4.34-1.09,4.36,2.81-.98,1.51,2.77,.53,1.29,1.49,5.62-1.91,1.77,3.75,2.84,3.96,3.91-.56,4.18-3.43,3.77,4.98v14.93l3.74,1.58,4.42,1.47,22.63-1.44,11.42,1.46h7.25l2.54,3.53,2.71,3.04-4.99,5.27-2.54,4.04-2.55,6-4.83,2.74-5.73,2.1-3.57,2.92-1.53,3.38,.88,7.9,2.34,3.51,2.83,1.92h2.8l3.12-7.78,3.62-6.67,7.23,1.44,1.58,5.94,.88,6.75-.83,4.01,1.32,4.38c.72,1.31,1.62,2.84,1.93,3.25,.53,.41,.8,1.32,1.45,11.63l2.16-.94,2.99-.57,2.62-.77-.73-3.01,.04-6.15,2.36-9.43,4.14-1.38v-22.41l7.2-.38,4.74,2.81,2.76,.23,.96-.56,.97-2.81,1.38-5.97,3.77-3.91,2.78-5.14,2.03-5.48-2.26-2.98,1.4-5.95,4.58-4.28,1.59-4.2,3.59-3.59-.7-2.73-.94-5.95,3.47-6.96,8.21-3.19,5.17-3.26,2.31-3.56,3.14-3.48,8.11-.16,6.51,.96,2.94,1.15,.96-.25,.29-1.39-1.52-2.16-1.28-3.84,2.57-3.96,2.74-2.73,2.25-1.76,1.22-4.73,.6-1.79-5.1-.41-3.61-1.67-3.44-.38h-5.26l-4.66-1.59,2.26-4.82,1.28-3.6v-1.63l-1.16-.99-4.77-.53,1.52-7.52-1.75-1.84h-4.07l-4.03,2.08-3.87,4.57-4.08,.82-6.41-.46-3.72-3.14-4.29-1.36L119.46,.21l-7.3,5.58-11.78,2.69-2.97,6.73-5.23,2.54-2.55,1.51-.78,2.45-4.2,4.2-4.02,1.1-5.26,.54-6.02,1.72-3.08-.74-.61,2.34,2.85,1.33,3.96,2.05,3.49,3.39-.88,5v4.61l-6.42,2.97h-4.84l-2.71-1.1-3.47,1.8h-17.3l-.84-2.41-1.33,.44-3.32,3.63-4.25-.94-6.72,.88-2.33-2.04-8.69-.55-2.28-2.74-4.4-1.21-1.35-6.16,2.65-1.54-.12-4.7-.55-.18-1.1-3.47v-5.08l-1.44-2.38-3.3-.74-2.98,1.31-2.28,1.34-2.13,1.18,1.32,2.45-1.62,7.81-2.9,4.48,1.88,3.97,2.58,4.65-.19,5.16Z"/>
        <path class="cls-20" d="M82.65,168.37l.43,.03,.02-2.72,1-6.3v-3.93c-.3-5.06-.73-10.69-.96-11.96-.36-.46-1-1.46-2.28-3.78l-.11-.27-1.55-5.16,.87-4.23-.81-6.23-1.1-4.07-3.66-.74-2.65,4.88-3.7,9.24h-5.43l-3.95-2.68-2.98-4.48-1.05-9.28,2.1-4.61,4.41-3.61,6.03-2.22,3.75-2.14,2.34-5.46,2.82-4.45,3.39-3.59-1.21-1.37-1.77-2.47h-6.15s-11.25-1.45-11.25-1.45l-22.89,1.46-5.07-1.69-5.42-2.28v-15.8l-1.55-2.05-2.6,2.14-6.26,.9-3.98-5.59-.8-1.7-5.07,1.72-1.86-2.15-2.93-.57-.89,1.38-3.91,2.41-1.1,4.85,3.9,4.08,5.91,3.54,4.43,4.65v6.58l-7.95,1.29-2.69,2.88-4.92,1.46-.88,3.65,2.5,4.37H-.11l7.7,4.43-2.3,8.02-2.12,5.31,3.36,6.01,4.08,4.72-1.81,8.66,3.28,6.95v7.18l.6,9.07,6.95-.71,6.41-3.88,2.53-4.39,5.32,1.27,1.94,3.29,6.16-2.36,5.15-3.3-5.07-18.51-1.58-8.52h3.71l2.23,8.34,3.8,5.01,4.45,3.43,4.36-1.3,4.9,.85,3.21,5.49,4.04,9.03,.68,9.2,2.07,5.22,.84-1.12,4.73-2.84,3.14,2.98Z"/>
        <polygon class="cls-20" points="805.9 632.74 808.34 633.96 811.4 633.96 812.92 631.42 810.58 629.08 809.57 625.31 807.73 622.77 805.19 622.07 802.95 622.07 801.22 620.32 799.59 619.3 796.13 619.92 796.13 623.48 797.15 627.45 797.15 630.5 798.88 632.43 801.42 632.43 805.9 632.74"/>
        <polygon class="cls-20" points="726.54 100.41 724.8 102.55 725.74 105.35 729.47 107.62 731.47 106.68 732.41 104.15 729.74 101.08 726.54 100.41"/>
        <polygon class="cls-20" points="764.43 97.34 765.63 95.34 764.16 92.54 761.5 91.07 760.3 89.74 759.23 90.94 758.16 93.54 760.3 95.21 764.43 97.34"/>
        <path class="cls-20" d="M767.92,386.19l.46-2.4-1.83-5.95s-1.83-6.07-1.83-6.41,.46-6.1,.46-6.1l-3.55-5.02-2.86-3.94-5.27-.35-7.44-1.45-5.38,1.45v8.05l3.08,2.32,2.87,3.09,4.01,2.98,2.63,3.55,.11,3.44,.11,1.95,5.15,2.75,4.35,2.06h4.92Z"/>
        <polygon class="cls-20" points="736.36 416.77 739.47 418.17 742.57 416.16 745.04 415.34 744.4 410.77 741.29 408.21 739.1 407.11 736.08 407.72 733.25 410.04 730.6 413.24 730.02 416.16 733.25 416.77 736.36 416.77"/>
        <polygon class="cls-20" points="702.08 397.97 702.08 400.07 703.95 400.9 705.64 399.7 707.01 398.38 706.19 395.87 703.95 396.6 702.08 397.97"/>
        <polygon class="cls-20" points="776.72 778.32 782.17 779.22 785.92 777.56 790.02 774.32 789.12 771.62 785.22 770.57 780.82 770.57 774.32 770.57 771.12 773.72 769.02 775.72 769.02 778.52 772.12 779.22 776.72 778.32"/>
        <polygon class="cls-20" points="688.72 482.22 691.06 483.78 693.97 484.63 696.52 483.78 697.94 481.43 697.94 478.95 695.53 478.95 694.32 476.82 690.7 476.82 688.72 478.31 687.3 479.59 686.87 480.44 687.15 481.93 688.72 482.22"/>
        <polygon class="cls-20" points="761.32 562.22 763.12 563.42 763.81 561.62 763.81 560.07 763.81 557.67 762.52 556.21 760.03 556.21 758.91 557.32 758.91 558.53 760.03 559.81 761.06 560.59 761.32 562.22"/>
        <path class="cls-20" d="M793.73,691.83c.16-.11,4.56-1.38,4.56-1.38l1.8-2.44-1.17-2.44-2.76-4.08-1.59-3.24-6.21-.69-10.61,.48-2.23,2.81-.58,3.45,3.66,2.65,3.03,.53,4.82,4.19,4.99,1.43s2.12-1.17,2.28-1.27Z"/>
        <g id="Country_Sarawak" data-name="Country Sarawak">
          <polygon class="cls-20" points="554.1 527.81 549.54 528.48 547.3 526.79 546.35 524.67 546.71 522.06 547.66 518.69 547.25 516.57 547.25 513.09 546.47 512.54 544.77 513.08 546.02 516.91 545.1 519.44 544.32 521.05 543.75 523.36 544.61 525.28 544.89 528.59 544.05 531.46 541.12 534.34 538.46 534.33 535.13 533.89 533.27 530.75 531.05 528.58 530.02 526.79 527.18 523.95 523.68 527.92 517.54 535.52 514.79 540.19 507.77 547.44 498.71 551.88 493.81 553.81 490.53 554.11 486.85 555.04 483.75 557.38 481.41 557.32 477.5 558.13 473.58 560.89 473.28 563.51 472.35 565.79 469.19 567.37 467.26 574.1 466.09 575.85 465.63 580.23 465.68 583.63 463.93 584.8 460.6 584.73 458.49 583.27 456.1 582.63 450.31 580.64 446.45 580.41 442.82 577.66 438.15 574.92 436.61 573.79 437.28 578.98 437.28 582.35 442.16 585.91 446.68 592.56 453.84 597.83 458.62 596.56 462.81 592.87 482.08 592.87 485.39 587.58 492.53 582.22 502.77 580.9 509.82 587.24 518.27 588.54 523.88 585.51 535.97 585.51 535.97 579.5 541.92 575.42 541.92 568.67 548.66 564.95 547.59 559.15 549.54 553.51 555.29 550.43 556.91 546.59 556.91 532.11 554.1 527.81"/>
          <path id="Dot_Sarawak" data-name="Dot Sarawak" class="cls-11" d="M526.92,556.75c0,2.76-2.24,5-5,5s-5-2.24-5-5,2.24-5,5-5,5,2.24,5,5"/>
          <g id="Sarawak">
            <text class="cls-5" transform="translate(422.07 555.63)"><tspan class="cls-19" x="0" y="0">S</tspan><tspan class="cls-9" x="11.53" y="0">A</tspan><tspan class="cls-10" x="24.72" y="0">R</tspan><tspan class="cls-3" x="37.37" y="0">AW</tspan><tspan class="cls-9" x="65.53" y="0">AK</tspan></text>
          </g>
        </g>
        <g id="Country_Sabah" data-name="Country Sabah">
          <polygon class="cls-20" points="622.12 514.16 626.77 514.16 629.43 513.17 631.86 511.62 634.29 509.95 635.29 507.19 635.29 505.09 632.53 503.43 628.65 502.99 626.55 501.88 624.12 499.78 621.3 498.56 616.7 496.35 612.83 495.7 611.62 493.25 606.19 493.25 603.32 491.26 603.65 489.27 604.09 483.74 603.21 480.75 600.11 479.76 596.68 478.1 593.04 476.44 591.37 474.78 585.57 474.78 583.41 472.01 581.37 472.01 579.79 473.85 579.5 477.24 578.68 480.05 577.27 483.02 575.05 485.66 571.08 488.22 568.56 492.44 567.16 496.06 564.88 500.62 558.8 501.32 554.59 504.77 555.52 508.11 556.46 511.26 554.7 513.13 553.79 513.2 554.13 515.39 555.25 517.68 555.8 521.75 555.8 524.22 555.05 526.1 558.45 530.79 562.08 527.94 567.74 525.84 576.43 525.84 584.14 524.59 593.48 525.88 599.03 527.08 603.23 530.91 603.88 528.98 607.86 526.88 611.28 527.65 615.82 526.77 620.79 525.88 622.79 522.89 620.36 520.46 616.81 518.81 615.93 516.93 616.15 514.71 622.12 514.16"/>
          <path id="Dot_Sabah" data-name="Dot Sabah" class="cls-11" d="M593.21,507.15c0,2.76-2.24,5-5,5s-5-2.24-5-5,2.24-5,5-5,5,2.24,5,5"/>
          <g id="Sabah">
            <text class="cls-5" transform="translate(558.49 490.24)"><tspan class="cls-19" x="0" y="0">S</tspan><tspan class="cls-9" x="11.53" y="0">A</tspan><tspan class="cls-8" x="24.72" y="0">B</tspan><tspan class="cls-9" x="37.21" y="0">AH</tspan></text>
          </g>
        </g>
        <g id="Country_Indonesia" data-name="Country Indonesia">
          <path class="cls-20" d="M777.07,484.83s1.56,.68,1.72,.68,1.36-1.56,1.36-1.56v-2.5l-1.72-1.62,.05-1.88-1.2-1.62-1.77,.73v1.77l.36,2.76-.1,2.71,1.3,.52Z"/>
          <polygon class="cls-20" points="535.04 762.95 537.19 762.2 537.19 760.05 535.58 758.77 535.04 758.77 532.68 758.77 531.18 760.16 531.82 761.13 533.97 761.98 535.04 762.95"/>
          <polygon class="cls-20" points="279.98 722.88 279.98 724.51 279.98 726.07 282.74 726.07 285.87 729.27 287.88 729.27 288.51 724.88 287.75 723.88 279.98 722.88"/>
          <polygon class="cls-20" points="346.43 730.36 349.03 729.27 350.58 729.84 353.7 734.12 356.16 734.9 357.2 732.3 357.33 700.13 357.46 693 360.57 682.62 361.48 678.34 358.24 673.15 354.74 670.29 351.75 666.3 348.38 664.48 343.32 663.94 339.17 664.48 336.06 667.96 333.33 667.96 332.68 665.75 333.85 663.29 336.06 661.47 338.13 659.01 336.31 656.23 332.81 650.06 332.03 646.42 329.44 637.6 323.73 636.18 314.91 635.53 310.76 632.53 307.77 628 306.87 625.41 310.76 618.4 313.48 616.98 315.82 612.57 314.26 608.8 310.11 606.6 304.79 606.99 300.77 608.8 298.56 608.8 299.34 606.6 300.77 604.26 299.86 601.54 295.32 601.02 288.19 597.13 285.33 592.98 284.55 589.86 280.14 585.06 274.69 583.12 268.34 580.78 266.26 577.28 264.19 573.26 259.78 568.46 256.53 569.58 253.29 571.83 250.05 570.4 247.84 567.94 242 561.55 236.81 554.45 228.77 547.31 221.64 541.09 216.06 538.49 209.7 535.12 202.7 529.67 198.93 525.26 195.04 521.5 192.32 513.58 188.95 508.78 185.44 508.01 172.99 508.78 161.7 507.23 156.41 503.47 152.23 500.22 139 500.22 138.48 503.73 139 506.58 141.74 511.12 141.74 515.4 147.82 519.68 154.96 527.21 158.59 533.95 164.95 538.1 172.6 540.18 176.85 544.33 181.81 550.43 187.27 557.43 190.24 567.33 196.86 569.58 207.24 576.76 212.43 581.95 214.37 589.22 218.39 596.09 219.04 607.64 225.4 611.01 232.01 615.81 237.85 623.07 243.95 632.53 247.45 642.9 254.46 651.61 256.01 662.25 267.69 675.59 281.96 688.2 285.85 696.11 294.41 702.86 302.59 710.77 307.9 713.49 314.26 717.39 328.4 733.6 332.42 733.6 334.5 731.01 337.22 730.1 338.78 731.4 343.84 732.56 346.43 730.36"/>
          <polygon class="cls-20" points="209.5 624.72 210.8 621.24 208.54 618.9 207.15 616.55 205.76 613.95 201.86 613.52 201.86 614.3 202.29 617.94 203.07 620.63 201.86 622.28 201.86 626.36 204.98 628.62 207.59 627.41 209.5 624.72"/>
          <polygon class="cls-20" points="235.8 661.87 233.37 658.66 230.51 656.23 227.55 656.23 226.43 659.44 226.43 662.05 229.9 662.31 232.16 664.48 235.37 664.48 235.8 661.87"/>
          <polygon class="cls-20" points="85.4 393.86 83.11 389.55 80.54 389.55 79.74 389.55 78.66 392.92 77.71 395.01 77.71 397.64 79.74 400.47 82.97 400.47 85.4 398.31 85.4 393.86"/>
          <polygon class="cls-20" points="246.92 674.81 244.66 672.64 241.53 669.69 239.71 667 236.32 666.3 235.8 667.86 234.67 670.56 236.76 672.73 237.36 674.29 239.8 676.63 242.4 677.76 244.14 681.32 247 684.88 249 683.75 249.61 679.93 248.65 676.46 246.92 674.81"/>
          <polygon class="cls-20" points="503.2 761.45 507.49 761.45 511.35 763.48 515.42 764.77 520.89 762.95 526.89 761.77 530.22 758.77 528.18 754.91 525.39 753.62 503.84 754.48 502.02 757.37 502.02 759.3 503.2 761.45"/>
          <polygon class="cls-20" points="557.04 792.72 556.24 794.42 557.14 796.52 559.14 796.52 559.74 794.92 560.34 794.17 559.14 791.82 557.04 792.72"/>
          <polygon class="cls-20" points="347.52 750.08 347.52 748.15 346.45 746.22 344.84 746.97 342.8 748.15 341.41 750.4 342.8 752.55 343.88 752.98 346.88 751.69 347.52 750.08"/>
          <path class="cls-20" d="M536.22,787.22l.96-2.4v-1.55l1.07-2.95-1.07-3.22-.96-2.9-3.22-1.82-5.36-.43-3.54-2.04-5.04,.11-4.07,2.04-7.18-.54-2.57-2.04-2.04-.75-2.25-2.36,1.07-3.43-2.25-3-.86-3.22-2.57-.96-8.47-1.61-8.15-1.5-8.26-1.72-4.29-1.82-2.68-3.32-3.65,.54-4.82,6.54-2.25,2.9-4.29,1.07-5.68-1.72-7.83-.64-13.19-.32-5.15-.96-8.26-10.4-15.12-.75-4.5-4.07-8.04-.86-4.07,1.5-7.83-1.5h-6.65l-2.89,3.54-6.22,8.36-1.72,2.57-3.22,1.82-2.25,.75v2.25l3.22,.43h4.72l7.51-.75,1.61,1.18,2.68,1.72,2.79,.86v2.68s.54,2.79,.64,3.11c.11,.32,4.07,2.68,4.07,2.68h3.97l5.58,1.82h6.97l4.4,1.29,3.65,2.36,3.54,1.5,7.29,1.29,8.36-1.29,3.75-1.61,11.47,1.07,6.11,1.82,10.19,2.47,3.54,3.97,9.65,3.32h11.47l8.47,1.5,8.47,.75h5.04l7.93,.54,3.65-1.93,6.22,.54,7.29,2.14,4.61,1.24,4.5,2.53,4.93,.55,3.59,1.48,1.56-.64v-1.93l-3.11-3-.96-2.85Z"/>
          <polygon class="cls-20" points="498.59 730.14 496.34 731.96 496.34 734.21 498.59 735.29 501.48 734.75 502.02 732.71 500.73 731.21 498.59 730.14"/>
          <polygon class="cls-20" points="221.74 643.9 219.74 640.43 218.26 636.35 215.92 633.83 209.5 632.53 208.02 632.96 207.59 636.18 207.59 640.69 207.59 644.34 210.36 645.9 213.49 650.24 217.92 652.76 222.34 653.28 224.08 649.02 223.13 646.16 221.74 643.9"/>
          <polygon class="cls-20" points="179.46 572.71 183.62 574.97 185.19 573.93 186.14 571.49 183.71 569.24 181.37 567.33 176.42 567.33 176.42 569.58 177.37 571.15 179.46 572.71"/>
          <polygon class="cls-20" points="104.34 451.61 106.57 450.33 106.57 446.91 103.86 444.52 102.31 444.52 101.55 447.23 99.8 448.34 98.05 450.33 98.05 453.84 100.52 455.43 103.31 455.43 104.82 454.31 104.34 451.61"/>
          <polygon class="cls-20" points="86.83 423.98 85.4 426.77 86.83 429.63 90.33 430.43 91.2 426.69 90.57 423.98 86.83 423.98"/>
          <polygon class="cls-20" points="90.25 339.66 89.11 342.9 85.8 349.77 85.67 358.67 85.13 365.68 81.62 371.21 82.97 374.58 83.78 382.8 86.75 384.02 89.04 381.19 90.25 374.04 91.6 365.41 94.43 360.56 96.59 355.7 94.3 353.01 94.57 348.56 96.59 341.28 96.59 336.02 92.54 334.81 90.25 339.66"/>
          <polygon class="cls-20" points="113.1 466.57 110.95 464.66 108.88 462.2 105.69 461.72 104.26 463.79 104.9 467.21 106.57 468.33 106.57 470.79 108.16 473.58 109.44 476.68 112.62 476.68 114.37 474.77 113.5 469.68 113.1 466.57"/>
          <polygon class="cls-20" points="194.39 591.2 191.7 588.95 190.22 586.17 187.53 583.82 179.89 583.82 177.63 585.47 176.85 588.16 179.89 592.94 184.49 595.54 187.79 601.53 191.52 605.01 194.74 603.88 196.13 602.06 197.69 598.83 196.56 593.37 194.39 591.2"/>
          <polygon class="cls-20" points="159.57 559.25 155.93 555.87 150.81 553.52 148.81 554.65 146.99 556.82 147.85 559.51 152.11 562.9 158.32 565.68 162.09 569.58 165.22 569.58 165.83 566.29 164.18 563.85 159.57 559.25"/>
          <polygon class="cls-20" points="144.69 497.93 145.71 496.18 144.57 493.57 138.74 493.29 137.77 496.57 142.59 498.61 144.69 497.93"/>
          <path id="Dot_Indonesia" data-name="Dot Indonesia" class="cls-11" d="M288.27,642.84c0,2.76-2.24,5-5,5s-5-2.24-5-5,2.24-5,5-5,5,2.24,5,5"/>
          <g id="Indonesia">
            <text class="cls-4" transform="translate(234.7 671.58)"><tspan x="0" y="0">INDONESIA</tspan></text>
          </g>
        </g>
        <g id="Country_Myanmar" data-name="Country Myanmar">
          <polygon class="cls-20" points="104.5 227.42 106.64 228.92 109.21 228.92 109.21 225.58 108.48 223.01 104.99 221.5 103 221.84 101.01 223.15 102.32 225.72 104.5 227.42"/>
          <path class="cls-20" d="M152.91,281.79l7.43-6.58,11.73-5.92,1.43-11.73,2.96-1.43,1.68,4.3,5.15,9.79,6.24,6.76,1.69,6.83,2.19,25.66,4.81,15.62,6.33,9.87,4.56,10.39,1.35,5.91-1.81,3.47-.16,1.97-.16,3.88,.55,1.35-.28,3.02-.12,3.7,1.11,2.37-.09,3.71,.55,1.66,.56,.97,.77,4.98-2.11,11.65-.17,1.92,3.92-1.94,3.3-4.5,4.08-5.5,3.39-5.96,3.39-3.29v-7.97l-3.2-6.42,.12-3.36-3.92-4.45-1.57-7.4v-15.09l-11.21-10.98-4.7-5.9-2.4-5.98-.73-6.13,4.45-3.89,2.52-2.41,1.91-6.06-.13-4.02,4.02-4.02,.87-2.08-2.11-2.63-4.4-2.81-.77-8.08-3.16-5.75-7.92-6.13-4.28-4.93-.94-5.37v-3.71l-4.68-4.56-.73-4.37,5.02-2.35,2.25-2.98-1.18-6.76,2.16-5.1,1.18-7.34,4.66-2.56h15.04l4.41-2.47,3.41-5.56,4.28-1.03,4.81-3.96,6.81-1.05h3.63l.73-4.81,6.83-9.26,4.94-4.68,4.75-2.14,2.22-3.27-1.04-2.75-.94,.24-2.39,1.63-3.05,3.17-5.49,.7-6.24-1.62-3.8-3.96-2.36-3.27-.83-3.42-4.74-.72-6.73-.65-3.92-3.55,5.08-6.81-.49-7.2,2.2-3.08-1.32-2.05h-5.35l-5.1-2.7-.65-7.79-3.69-6.87,1.4-4.19-2.25-.35h-5.72l-4.94,1.27-4.19,2.2-3.69,1.34-2.55-3.92,2-5.01-1.51-3.37-1.68-4.61,3.41-5.9,2.29-8.28,4.26-2.71,3.67-5.02,3.97-2.51,3.92-2.07-.12-6.57,2.17-3.2,2.65-11.82-3.99-6.52,.76-8.53-.91-3.55h-5.06l-3.37-2.73-.76-7.41-3.39-4.63c-1.22-1.17-2.72-2.52-3.16-2.82-.65-.22-2.33-.95-3.56-1.51l-3.18,1.27-2.08,6.29-1.42,5.49-2.91,2.27-2.46,2.45-1.61,2.54,.76,2.26,1.97,2.79-.87,4.14-3.4,.91-3.61-1.42-5.84-.84-6.73,.13-2.3,2.55-2.43,3.79-6,3.77-7.38,2.87-2.64,5.26,.8,5.04,1.04,4.02-4.26,4.27-1.61,4.24-4.44,4.15-.93,3.94,2.39,3.14-2.66,7.11-2.99,5.54-3.5,3.65-1.27,5.45-1.32,3.8-2.54,1.49-4.22-.36-4.57-2.72-3.86,.2v21.81l-4.58,1.52-1.96,7.86v5.49l1.3,5.01-5.3,1.57-2.9,.55-2.7,1.19-.02,3.41-1,6.3v5.24l-4.23-.27-2.38-2.25-2.54,1.53-1.51,2.02,3.63,9.16,9.87,10.13,8.36,4.13,7.85,7.09,4.98,3.63-3.23,3.98-4.13,.58,7.82,11.6,3.06-.1,.88-7.03,3.04,3.21,2.28,9.45,6.49,18.4-.76,10.81-3.8,15.79-.33,7.34,3.12,3.71,11.99,2.28,9.87,1.94,6.84-6.58Z"/>
          <g id="Myanmar">
            <text class="cls-5" transform="translate(106.57 155.55)"><tspan class="cls-7" x="0" y="0">M</tspan><tspan class="cls-18" x="15.91" y="0">Y</tspan><tspan class="cls-9" x="26.37" y="0">ANMAR</tspan></text>
          </g>
          <path id="Dot_Myanmar" data-name="Dot Myanmar" class="cls-11" d="M158.38,174.14c0,2.76-2.24,5-5,5s-5-2.24-5-5,2.24-5,5-5,5,2.24,5,5"/>
        </g>
        <g id="Country_Peninsular_Malaysia" data-name="Country Peninsular Malaysia">
          <polygon class="cls-20" points="320.07 587.93 322.76 585.52 323.89 583.84 319.79 569.88 318.11 564.87 310.49 556.5 309.38 540.96 309.09 532.12 311.51 527.76 311.24 521.33 308.91 516.41 308.26 510.08 303.98 505.43 298.77 499.76 284.7 487.79 280.15 492.21 277.93 495.64 273.73 497.43 270.71 495.66 265.54 494.76 263.74 498.49 260.98 500.36 257.2 496.25 258.53 492.52 258.53 489.2 256.5 486.73 251.7 485.77 249.33 482.21 246.89 481.77 244.64 481.77 242.81 480.46 241.09 480.46 239.42 482.25 238.12 483.22 239.58 485.71 242.35 487.4 244.46 493.23 245.22 502.09 241.25 505.22 243.11 508.43 245.82 512.48 249.87 523.95 253.41 535.27 259.32 542.11 264.64 548.26 265.4 556.96 274.34 562.78 289.12 574.27 298.49 579.67 304.91 584.68 310.03 587.28 316.63 588.12 320.07 587.93"/>
          <path id="Dot_Peninsular_Malaysia" data-name="Dot Peninsular Malaysia" class="cls-11" d="M293.27,543.94c0,2.76-2.24,5-5,5s-5-2.24-5-5,2.24-5,5-5,5,2.24,5,5"/>
          <g id="Peninsular_Malaysia" data-name="Peninsular Malaysia">
            <text class="cls-5" transform="translate(227.97 504.74)"><tspan class="cls-9" x="0" y="0">PENINSU</tspan><tspan class="cls-14" x="82.55" y="0">L</tspan><tspan class="cls-9" x="94.62" y="0">AR</tspan><tspan class="cls-7" x="12.65" y="20.4">MA</tspan><tspan class="cls-14" x="41.75" y="20.4">L</tspan><tspan class="cls-16" x="53.82" y="20.4">A</tspan><tspan class="cls-1" x="64.87" y="20.4">Y</tspan><tspan class="cls-7" x="77.28" y="20.4">SIA</tspan></text>
          </g>
        </g>
        <g id="Country_Vietnam" data-name="Country Vietnam">
          <path class="cls-20" d="M429.78,354.76l.28-32.84-2.41-6.05-2.61-5.11-2.14-12-6.89-9.11-10.23-9.4-15.25-14.04-17.58-17.96-.28-11.44-5.95-2.51-10.24-12.93,.09-4.84,2.42-3.72,2.7-8.09,7.35-8.46,6.14-3.63,2.04-6.79,3.91-2.04,4.84,.37,4.37-6.98,4.84-1.76,2.6-7.26,3.5-.43-.84-1.65-1.62-1.74-8.2,1.58-7.14-5.1-9.76-5.05,.54-3.83-2.9-4.5,.77-5.57,3.5-3.78-.81-.94-4.08-.42-6.38-.16h-5.57l-5.37-2.51-3.68-4.51-2.57-2.44-3.95,2.49-3.55,2.13-.95,4.61-3.23,2.23-6.65,1.37h-4.83l-4.17,5.2-3.83-2.13-5.31-2.36-5.02,1.26-5.87,5.33-5.15-3.77-2.9-2.51-3.7,2.71-1.92,3.99,1.27,7.86,4.91,4.31,8.17,1.79v13.13l5.1,3.61,7.47,3.3,6.33-3.16,5.38-1.08,8.91,3.71-1.34,6.58,2.66,2.47,3.75,4.23,2.15,4.94-6.13,5.6-4.44,3.09h-5.33l-.51,2.53-1,3.79,4.5,3.47,12.69,6.68,5.24,3.06v6.24l5.16,5.38,5.31,5.79,16.93,19.15v7.69l7.22,2.19,6.29,4.77,5.43,4.86-4.01,6.02,3.18,5.17,6.86,3.02-3.74,8.28,1.83,8.7-4.59,.79,.5,1.67-1.5,5.64,.43,4.39,2.94,3.71,2,4.72-1.17,8,1.15,14.85-3.04,5.07h-7.32l-9.42,6.01-4.06,4.23-4.81,2.9-5.14-2.35-2.62,2.61-.76,3.92,3.3,3.3,4,2.78,1.48,4.68-5.49,2.29-6.15-2.11-3.4-.99-4.29,1.57-5.17,3.55-4.27,3.38-3.54,3.69,4.91,3.58,3.07,4.69-4.04,4.21-2.94,12.6-.84,5.12,.28,5.58,5.02,.93,4.75-1.39,9.02-9.11,9.11-5.31s7.29-6.98,7.01-6.9c-.29,.1,5.83-10.42,5.83-10.42l4.46-6.49,4.37,1.67,5.11,1.02,10.41-5.49,14.51-12.09,13.77-10.98,.46-19.62Z"/>
          <path id="Dot_Vietnam" data-name="Dot Vietnam" class="cls-11" d="M420.41,367.26c0,2.76-2.24,5-5,5s-5-2.24-5-5,2.24-5,5-5,5,2.24,5,5"/>
          <g id="Vietnam">
            <text class="cls-6" transform="translate(434.61 372.26)"><tspan x="0" y="0">VIETNAM</tspan></text>
          </g>
        </g>
        <g id="Country_Laos" data-name="Country Laos">
          <path class="cls-20" d="M263.52,173.89l-1.89-4.03-.47-1.67-1.42,2.09-5.03,2.26-4.52,4.29-6.22,8.44-.7,4.62,4.63,4.53,2.35,3.85-3.34,5.44c1.51,1.81,2.28,2.85,2.68,3.5,1.43,.09,5.46,0,8.96-.17l6.38-1.92v9.11l1.54,7.6-5.04,6.16-1.44,4.72,3.18,5.51-2.9,5.96-1.34,4.44,.32,2.87h2.02l5.29-3.3,7.3-8.04,8.87-3.36,3.35,2.17,6.79,4.91,5.47-2.02,5.92-7.57,4.73-3.06,9.55,1.85,4.81,4.4,3.08,7,6.61,4.46,3.59,3.14,1.69,5.63-2.16,5.26,2.08,6.23v5.02l4.18,5.06,4.94,4,4.21,3.22,4.12,5.76-1.8,5.26-2.13,3.41,1.13,6.35,.53,7.04-3.39,2.73-3.73,3.55,.52,.57,6.67,.47,5.39,4.09,1.55,.24,.88-3.41-1.84-4.5,6.74-2.12,3.86-3.86,6.16,3.22,3.5,3.1,4.22-2.38,3.19-2.84h2.82l3.22-.55-1.43-6.84,2.99-6.62-5.16-2.27-4.52-7.34,3.68-5.51-3.66-3.28-5.77-4.39-8.66-2.62v-8.66l-16.25-18.38-5.27-5.75-5.88-6.13v-5.78l-3.87-2.26-12.93-6.82-6-4.63,1.43-5.43,.92-4.6h6.68l3.67-2.57,4.53-4.13-1.22-2.81-3.42-3.86-3.63-3.34,1.2-5.92-6.13-2.55-4.23,.85-7.14,3.56-8.98-3.99-6.33-4.48v-12.36l-6.74-1.48-6.15-5.4-1.31-8.15-2.88-.12-6.01-.74-3.77,3.16,1.67,3.71,3.72,2.48-.7,7.81,.74,7.51-4.63,1.32h-8.27Z"/>
          <path id="Dot_Laos" data-name="Dot Laos" class="cls-11" d="M377.97,292.08c0,2.76-2.24,5-5,5s-5-2.24-5-5,2.24-5,5-5,5,2.24,5,5"/>
          <g id="Laos">
            <text class="cls-5" transform="translate(345.96 276.14)"><tspan class="cls-14" x="0" y="0">L</tspan><tspan class="cls-12" x="12.07" y="0">A</tspan><tspan class="cls-9" x="24.65" y="0">OS</tspan></text>
          </g>
        </g>
        <g id="Country_Cambodia" data-name="Country Cambodia">
          <polygon class="cls-20" points="391.87 332.44 388.66 328.38 388.11 322.73 389.54 317.36 389.12 315.91 388.19 315.91 385.43 318.34 379.42 321.72 374.62 317.47 370.62 315.4 367.67 318.34 363.08 319.8 364.15 322.42 362.44 329.04 357.83 328.32 352.54 324.3 345.6 323.81 341.99 319.87 332.96 318.36 318.74 320.98 312.13 318.57 306.63 319.87 301.73 323.34 297.57 325.8 293.47 331.12 291.7 335.53 286.71 337.52 286.71 343.25 289.31 345.32 292.08 351.55 291.26 354.73 295.52 357.07 298.22 361.53 294.09 368.68 298.26 372.9 300.96 379.6 301.7 387.87 303.12 392.34 307.16 389.77 310.73 386.69 313.03 388.51 313.4 392.8 316.93 395.69 318.48 397.16 323.69 400.04 324.9 397.72 327.13 399.52 327.28 401.17 332.81 402.09 337.3 397.42 341.74 393.91 347.38 390.09 352.66 388.16 356.97 389.41 362.21 391.21 364.5 390.26 364.04 388.78 360.5 386.3 356.11 381.9 357.3 375.79 361.81 371.29 367.35 373.83 370.65 371.84 374.82 367.54 385.03 361.02 391.63 361.02 393.45 357.99 392.33 343.69 393.44 336.13 391.87 332.44"/>
          <path id="Dot_Cambodia" data-name="Dot Cambodia" class="cls-11" d="M337.96,367.26c0,2.76-2.24,5-5,5s-5-2.24-5-5,2.24-5,5-5,5,2.24,5,5"/>
          <g id="Cambodia">
            <text class="cls-5" transform="translate(282.35 350.06)"><tspan class="cls-9" x="0" y="0">CAM</tspan><tspan class="cls-19" x="42.64" y="0">B</tspan><tspan class="cls-7" x="55.15" y="0">ODIA</tspan></text>
          </g>
        </g>
        <g id="Country_China" data-name="Country China">
          <path class="cls-2" d="M-160.63-35.47l4.37,4.96,3.13,2.46,2.67,.89,3.53-3.48,5.59-3.74,5.92,1.13,4.33,2.74,4.35,4.12,2.43,3.53,4.61,1.46,3.28,4.21h8.41l3.08,5.04,2.34,3.63,7.14,1.11h6.56l1.63,6.25,4.91,4.53,4.42,1.69h6.98l2.31,5.19,1.67,3.53,8.51,1.79h4.19l2.77,3.61,1.86,1.67,4.55-.91,3.21,.91,4.9-2.69,9.79,2.98,2.56,3.72h7.77l8.22-1.18,3.05-1.68,2.45-1.43,3.86-1.7,5.26,1.19,2.42,3.97v5.42l.55,1.77,1.91,.6,2.16-2.95,3.54-4.65,5.94-4.97,3.27-3,3.65-3.49,6.84,1.3,4.34,3.94,5.51,.25,3.93-.33,1.73,2.13,5.59-1.14,5.82,1.52,3.49,2.71v2.71l2.64,.64,5.69-1.6,5.27-.54,3-.84,3.25-3.25,.88-2.8,3.58-2.11,4.38-2.13,3.12-7.07,12.53-2.86,6.81-5.19,8.26-6.79,6.19,1.96,3.47,2.93,5.18,.37,2.82-.56,3.6-4.27,5.08-2.62h5.87l3.5,3.69-1.24,6.01,2.69,.29,2.72,2.32v3.32l-1.51,4.21-1.02,2.17,1.42,.48h5.03s3.95,.45,3.95,.45l3.56,1.65,5.27,.43,1.02-3.12,5.39-2.16,.52,.23c1.59,.71,3.5,1.54,3.83,1.64,.31,.08,.81,.21,4.25,3.51l.15,.18,3.88,5.3,.71,7.03,1.77,1.43h6.19l1.53,6-.71,8.11,4.09,6.69-2.98,13.37-1.99,2.91,.12,7.38-5.33,2.81-3.4,2.16-3.67,5.02-3.82,2.42-2.19,7.77-2.87,4.97,1.24,3.4,1.92,4.26-1.91,4.77,.63,.98,1.6-.59,4.37-2.27,5.59-1.38h6.2s5.48,.86,5.48,.86l-2.03,6.09,3.4,6.34,.58,6.89,3.22,1.7h6.15l3.08,4.8-2.69,3.78,.49,7.22-4.22,5.67,1.47,1.33,5.92,.57,6.58,1.01,1.13,4.65,2,2.77,3.09,3.21,5.02,1.3,4.04-.52,2.7-2.77,2.88-1.97,3.71-.97,2.38,6.3-.04,.05,1.05,3.73,1.04,2.19h6.2l2.13-.61-.54-5.54,.58-6.48-3.04-2.03-2.82-6.25,6.21-5.2,7.12,.86,2.93,.12,2.01-4.18,5.95-4.37,4.46,3.88,3.25,2.38,4.76-4.32,6.56-1.64,6.32,2.81,1.91,1.06,3.56-4.45h5.97l5.71-1.2,1.92-1.32,.97-4.71,4.53-2.71,5.68-3.6,4.24,4.06,3.35,4.11,4.28,2h5.02l6.57,.17,5.19,.53,3.06,3.56-4.54,4.9-.52,3.76,2.9,4.51-.42,2.93,8.33,4.33,6.28,4.49,8.53-1.64,2.89,3.09,1.45,2.84,3.44-.42,4.75-3.35,6.32,.37,5.2,2.88,2.51,3.16,7.07-.84,3.72-1.3,3.53,2.24,7.54,2.33,4.28,2.04,9.77-1.95,5.11-4.37,7.91-.74,7.71-3.44,4.65-3.26,8.65-.28,4.93-1.3,7.16-3.16,7.9-5.96s2.14-4.55,1.77-4.46c-.37,.1-.19-5.02-.19-5.02l1.58-.84,3.72,1.31,.46,3.9-.37,4.84,2.98,1.21,7.45-.84,2.23-6.79,4.1-2.15,5.11,.94,8.93-1.21,5.21,.56,10.51-1.86,9.58-5.59,9.21-10.5,4.75-3.54,3.71,2.23,4.19-2.69,1.59-5.21,8-4,1.85-8,1.59-2.89,6.05,1.67,5.67-2.79,1.21-5.86,2.98-2.41,1.3-4.46,4.28-.94,3.06-5.3,2.98-.09,3.82,2.23,2.5-3.06-4-8.28-.18-6.04,6.97-4.94-.75-5.39,4.94-5.59,7.16-8.46,2.41-4.75,2.6-6.32,3.54-6.32,6.05-2.14,5.21-4.09,2.69-5.02,.94-7.35,.09-6.14-.37-3.35,3.16,.75,4.47,.65,1.49-4.1-1.59-5.76,1.67-4.56-2.98-1.76-3.81-.75-3.44-4.46-2.7-3.77-4.1-1.72-5.39,2.33-5.02,2.61-8.09-1.59,1.76-2.79,6.14-1.59,6.14-2.14,4.94-3.35,6.98-1.85,4.28-2.42,2.6-3.16-2.6-4.65-4.65-3.81-4.84-4.28-8.28-6.32-2.24-3.35,1.86-1.02,2.79,.37,1.11,3.72,4.19,2.24,2.61,2.7,4.55,1.49,4.1,1.49,1.3-2.7-1.3-5.11-1.4-5.3-5.3-4.56-4.37-5.76-3.38-2.8-5.46-1.85,.19-6.05-1.95-8-3.81-8.28-3.26-7.63-4.19-7.63-4.37-5.58-10.61-4.19-5.95-4.46,1.77-4.75,5.95-7.54,7.71-7.44,3.63-5.21,2.79-3.9,9.11-1.11,.46-5.4,2.89-1.4,4.19-4.46,7.25-1.58,4-2.98,4.1-2.51,6.6,1.76,6.14-.09,.46-3.35,2.24-6.14-2.14-6.7-11.54,.37-10.41-2.05-7.72-4.93-8.84-4.37-6.98,4.74-4.46,6.05-6.42,4.19-7.71,3.16-7.63-3.63-2.89-4.65,2.7-5.49-.84-8-6.32-2.61h-8.84l-6.89-3.06-5.58-6.98-1.77-3.82,4.94-5.02,2.41-3.35,5.11,.93,11.54-.19,6.79-3.35,4.75-6.98,2.7-5.39,6.23-3.72,6.51-1.86,4.84-3.63,3.54-2.14h4.19l.93-5.11,2.14-4.19,6.98-5.02h7.54l6.6,.84,4.37,4.28-.28,4.84-5.02,5.3-10.41,10.51-4.1,5.11,.46,3.26,3.26,.74,3.54,.29,2.6,1.67-.75,2.69-3.44,1.02-2.7,.46-3.53,1.67-1.4,3.35,.84,3.63,1.76,.74,1.46-.35,15.3-9.59,12.19-8.55,12.44-3.63,11.93-3.37,10.74-3.36,4.93-10.88,7.88-2.9,7.33-6.34,11.39-5.15,5.34-1.25,2.86-6.29,6.49-4.9,1.57-6.54,4.85-4.12,7.47,1.93,2.37,5.13,6.56,1.24,12.31-.37,1.02-1.59-1.72-3.91-4.11-2.28,1.52-5.79h18.74l2.94-2.12,3.19-7.45h7.88l2.1-6.65,2.52-7.12h5.89l5.17,2.96v3.29l2.93,.14,15.38-13.61-2.66-10.28,2.06-7.74-4.72-21.9,8.11-1.81,8.71-9.08,6.89,2.06,6.65,3.03,8.6,.85,4.71-3.27,1.82-7.14,13.55-22.38,4.35-16.09,4.48-10.89,8.71-5.81v-5.68l-3.27-4.72,1.82-4.36-2.42-3.99h-6.05l-9.56,3.63-4.71,3.39-10.53-.24-5.8,3.5-5.09,5.81-7.14,1.82-12.21,.72-10.89-2.17-6.54-7.74-.72-10.77-4.12-5.2,.12-4.23-8.23-3.39-9.19-9.56-5.8-2.78h-8.23l-4.23-3.99-11.86,.72-6.05-1.45-8.35-6.77v-5.44l1.58-4.6-4.12-3.63v-6.17l-1.09-5.32-5.44-3.88-3.02-7.26-4.72-12.94-5.32-9.31-1.21-6.53-6.78-10.77-7.38-8.11-8.59-3.99h-8.11l-7.86-.85-9.56-4.36-7.87-3.99-16.44,.85-15.73,1.21-11.13,3.14-10.28,1.58-3.88,.72-14.51,11.38-.97,4.11,7.87,1.21,3.26,1.21,.25,6.05,2.3,5.68-2.79,5.68-10.89,7.5-6.16,8.83-4.84,11.62-8.71,9.91,2.9,5.68-1.34,5.45-4.71,1.57-7.63,1.58-7.74,3.99-6.05,6.29-4.35,.96-7.26-2.78-10.65-4.12-2.78-1.26-3.09,8.09-13.67,22.42-2.86,6.24v5.43l-3.61,2.06,1.77,6.19,3.55,2.29,6.99-4.14,9.8-.29,6.44,1.17,5.38,3.5h3.44l7.04-7.04,9.85-1.79,7.13,3.1,2.92,5.83,7.91,1.1,2.7,4.79,6.99,6.72,4.61,4.34,1.55,4.64v8.13h-14.5l-5.51-2.36-4.4,1.71-5.7,1.43-3.88-2.36-4.49,2.07-3.67,3.22h-4.46l-2.57-2.33-.99,.74-.56,3.37-2.44,2.24h-11.3l-9.95,9.81-1.17,5.12-4.98,3.73-7.39,4.83-7.6,.6-7.46,1.17-6.91-.93-6.36,7.82-8.61,6.41-5.96,2.35-9.26-1.49-7.96-1.2-6.9-5.77-10.99,.91-4.96,7.57-1.98,8.95,4.77,7.15,4.53,4.39-.73,5.5-5.6,4.49-9.28,3.48-5.31,2.99-11.85,13.29-16.65,5.76-14.53,2.02h-15.59l-14.3,1.01-14.44,1.68-11.06,6.28-9.1,2.98-9.63,4.68-6.12,3.52-11.18-1.9-2.49-3.3-7.91,.26-9.98-.14-11.57-5.79-19.3-3.19-10.25-9.97-15.92-.42-6.96-2.7-11.51,.95-6.17,2.8-11.43-1.64-13.31-1.57-16.37-1.01-9.43-1.27-10.28,1.31-4.8-1.33-11.24-12.74-2.01-8.5-9.35-11.54,.74-5.35-10.97-.91-8.61-5.64-17.77-10.58-13.27-1.39-27.82-.15-6.41-5.53-8.26-1.53-2.92-13.39,5.28-5.92v-6.65l3.6-3.61-2.48-11.34-13.52-12.23-1.13-7.64-6.89-4.77-7.74-3.59-14.76-1.75-8.15-8.73-8.32-3.08v-6.16l-4.45-2.44v-8.93l-.62,.26h-6.04l-12.11,3.57-3.24,9.74-10.66,5.97-10.41,2.84-2.54,11.11,2.23,9.21,1.41,9.26-8.3,5.14-10.34,4.35-6.37-4.51-17-.25-7.91-5.1-5.82-.4-1.61,9.17-6.86,13.73-1.43,7.99-4.02,7.36,.66,2.88,3.03,2.52,1.49,3.83-1.74,6.96-5.08-2.87-5.17,1.04-1.63,1.62-4.55-3.93-5.27-1.81-5.31,2.62-10.38,2.59-7.23,1.59-7.89,1.09-.54,2.63,1.47,1.93h4.73l5.05,1.5-2.04,5.52-.65,5.06,.64,6.98,5.5,8.93,1.07,5.14,1.7,4.55-2.66,6.37-3.71,1.5,.77,2.94-4.8,2.89-1.27,3.08,.51,4.9-.63,2.83,1.26,2.27-1.51,4.91-3.62,3.13-5.81,1.51-5.65,1.88-5.35,1.18-8.41,4.81-10.55,7.5-4.8,4.81-17.38,1.06h-5.4l-5.31,6.63-3.45,5.68-2.64,4.55h-7.41l-3.85,.83h-4.48l-1.46-4.64-1.39-1.94-4.12,1.1-2.39,2.39-7.32,.2-3.18,3.47-4.51,3.14-7.87,2.16-3.5,2v4.83l1.41,7.09-8.46,4.04,1.9,2.03,.92,3.11,1.47,2.81-.92,3.99,.72,3.51,1.41,1.26,3.55-.36,2.49-1.02,4.48,.24,3.85,1.25,5.02,1.88,1.02,3.66-.86,4.77,.75,2.8,2.25,4.06v5.34l1.25,4.03,3.06,2.92-2.44,3.59-3.31,1.79-1.16-.62-4.34,1.93v2.85l2.72-1.2,7.2,1.18,4.31,2.15,3.08,3.2,5.63,1.1,4.94,4.12,.96,7.12,.84,5.86,2.66,3.26,5.29,.96h4.8l3.06,2.45,2.65,3.22,1.74,5.26,.71,4.41h2.5l5.1-2.77,3.09-4.74,7.92-1.24,2.26,5.59,.93,6.53,4.39,5.19v3.55l5.5,2.41,6.21,2.49,3.69,5.01-5.58,5.15-.18,6.51,.18,6.71,3.84,2.56,3,5.84,2.25,7.39-1.77,10.43-7.93,1.79-2.38-4.12-3-.81-2.01,2.27,1.27,2.84,3.6,2.8,2,5.98-1,7.74,1.1,4.82h10.89l4.2,6.83,8.41,1.72,4.13,3.26,4.7,6.58,7.39,1.21Z"/>
          <path id="Dot_China" data-name="Dot China" class="cls-11" d="M461.07,112.48c0,2.76-2.24,5-5,5s-5-2.24-5-5,2.24-5,5-5,5,2.24,5,5"/>
          <g id="China">
            <text class="cls-6" transform="translate(428.96 95.54)"><tspan x="0" y="0">CHINA</tspan></text>
          </g>
        </g>
        <g id="Country_Singapore" data-name="Country Singapore">
          <polygon class="cls-20" points="331.48 590.93 326.18 591.21 320.5 591.02 317.71 591.49 320.13 596.14 323.57 598.93 327.94 597.91 332.31 598.93 336.88 596.97 337.43 594.1 331.48 590.93"/>
          <path id="Dot_Singapore" data-name="Dot Singapore" class="cls-11" d="M337.02,593.83c0,2.76-2.24,5-5,5s-5-2.24-5-5,2.24-5,5-5,5,2.24,5,5"/>
          <g id="Singapore">
            <text class="cls-5" transform="translate(344.96 600.83)"><tspan class="cls-9" x="0" y="0">SIN</tspan><tspan class="cls-17" x="30.94" y="0">G</tspan><tspan class="cls-9" x="45.2" y="0">APORE</tspan></text>
          </g>
        </g>
      </g>
    </g>
  </g>
</svg>